<?xml version="1.0" encoding="UTF-8" standalone="no"?><!DOCTYPE svg PUBLIC "-//W3C//DTD SVG 1.1//EN" "http://www.w3.org/Graphics/SVG/1.1/DTD/svg11.dtd"><svg width="100%" height="100%" viewBox="0 0 512 512" version="1.1" xmlns="http://www.w3.org/2000/svg" xmlns:xlink="http://www.w3.org/1999/xlink" xml:space="preserve" xmlns:serif="http://www.serif.com/" style="fill-rule:evenodd;clip-rule:evenodd;stroke-linecap:round;stroke-linejoin:round;stroke-miterlimit:1.5;"><rect id="ArtBoard1" x="0" y="0" width="512" height="512" style="fill:none;"/><path d="M140,148C140,144.026 141.392,140.175 144,136.513L144,72C144,45.508 194.186,24 256,24C317.814,24 368,45.508 368,72L368,136.513C370.608,140.175 372,144.026 372,148L372,169.997L372,170C371.999,176.092 368.726,181.897 362.813,187.175C360.897,192.405 356.718,197.335 350.696,201.795C353.979,204.845 356.464,208.081 358.036,211.454C366.941,219.945 371.999,229.67 372,240L372,420.003C371.998,453.118 320.021,480.003 256,480.003C191.979,480.003 140.002,453.118 140,420.003L140,240C140.001,229.67 145.059,219.945 153.964,211.454C155.536,208.081 158.021,204.845 161.304,201.795C155.282,197.335 151.103,192.405 149.187,187.175C143.274,181.897 140.001,176.092 140,170L140,169.997L140,148Z" style="fill:rgb(234,244,255);fill-opacity:0.3;stroke:rgb(47,57,68);stroke-width:4px;"/><ellipse cx="256" cy="420.002" rx="116" ry="60.002" style="fill:rgb(234,244,255);fill-opacity:0.3;stroke:rgb(47,57,68);stroke-width:2px;"/><path d="M368,287.05L368,420.891L367.755,420.891C363.907,451.649 315.306,476.003 256,476.003C196.694,476.003 148.093,451.649 144.245,420.891L144,420.891L144,287.05C144.003,319.639 194.188,346.097 256,346.097C317.812,346.097 367.997,319.639 368,287.05Z" style="fill:rgb(167,215,255);fill-opacity:0.6;stroke:rgb(47,57,68);stroke-width:2px;"/><ellipse cx="256" cy="287.047" rx="112" ry="59.05" style="fill:rgb(167,215,255);fill-opacity:0.6;stroke:rgb(47,57,68);stroke-width:2px;"/><path d="M341.757,199.614C360.54,210.277 371.999,224.452 372,240L372,420.003C371.998,453.118 320.021,480.003 256,480.003C191.979,480.003 140.002,453.118 140,420.003L140,240C140.001,224.452 151.46,210.277 170.243,199.614C191.465,208.449 222.038,213.997 256,213.997C289.962,213.997 320.535,208.449 341.757,199.614Z" style="fill:rgb(234,244,255);fill-opacity:0.3;stroke:rgb(47,57,68);stroke-width:2px;"/><path d="M344.419,205.894C359.007,215.289 367.999,227.009 368,240L368,420.003C367.999,432.09 360.145,443.099 347.3,452.16C326.711,466.684 293.454,476.003 256,476.003C218.546,476.003 185.289,466.684 164.7,452.16C151.855,443.099 144.001,432.09 144,420.003L144,240C144.001,227.009 152.993,215.289 167.581,205.894C187.128,217.225 219.457,224.635 256,224.635C292.543,224.635 324.872,217.225 344.419,205.894Z" style="fill:none;stroke:rgb(47,57,68);stroke-width:1px;"/><path d="M256,333.665C203.077,333.665 160.11,312.776 160.11,287.047C160.11,261.317 203.077,240.428 256,240.428C207.199,240.428 167.579,261.317 167.579,287.047C167.579,312.776 207.199,333.665 256,333.665ZM256,240.428C308.923,240.428 351.89,261.317 351.89,287.047C351.89,312.776 308.923,333.665 256,333.665C304.801,333.665 344.421,312.776 344.421,287.047C344.421,261.317 304.801,240.428 256,240.428Z" style="fill:rgb(234,244,255);fill-opacity:0.6;"/><path d="M256,318.126C220.718,318.126 192.073,304.2 192.073,287.047C192.073,269.894 220.718,255.968 256,255.968C223.466,255.968 197.053,269.894 197.053,287.047C197.053,304.2 223.466,318.126 256,318.126ZM256,255.968C291.282,255.968 319.927,269.894 319.927,287.047C319.927,304.2 291.282,318.126 256,318.126C288.534,318.126 314.947,304.2 314.947,287.047C314.947,269.894 288.534,255.968 256,255.968Z" style="fill:rgb(234,244,255);fill-opacity:0.6;"/><path d="M256,302.586C238.359,302.586 224.037,295.623 224.037,287.047C224.037,278.47 238.359,271.507 256,271.507C239.733,271.507 226.526,278.47 226.526,287.047C226.526,295.623 239.733,302.586 256,302.586ZM256,271.507C273.641,271.507 287.963,278.47 287.963,287.047C287.963,295.623 273.641,302.586 256,302.586C272.267,302.586 285.474,295.623 285.474,287.047C285.474,278.47 272.267,271.507 256,271.507Z" style="fill:rgb(234,244,255);fill-opacity:0.6;"/><path d="M368,136.513C370.608,140.175 372,144.026 372,148C372,172.284 320.022,192 256,192C191.978,192 140,172.284 140,148C140,144.026 141.392,140.175 144,136.513L144,144C144,168.284 194.186,188 256,188C317.814,188 368,168.284 368,144L368,136.513Z" style="fill:rgb(64,106,191);fill-opacity:0.3;stroke:rgb(47,57,68);stroke-width:2px;"/><path d="M368,72L368,144C368,168.284 317.814,188 256,188C194.186,188 144,168.284 144,144L144,72C144,98.492 194.186,120 256,120C317.814,120 368,98.492 368,72Z" style="fill:rgb(64,106,191);fill-opacity:0.3;stroke:rgb(47,57,68);stroke-width:1px;"/><path d="M368,98.003L368,144C368,151.129 363.675,157.865 356,163.823L356,98.003C356,94.692 358.689,92.003 362,92.003C365.311,92.003 368,94.692 368,98.003ZM196,181.152L196,120C196,116.76 198.573,114.117 201.786,114.004C202.783,114.241 203.79,114.472 204.806,114.696C206.705,115.704 208,117.702 208,120L208,183.76C203.854,182.985 199.847,182.113 196,181.152ZM180,176.308L180,116C180,112.689 182.689,110 186,110C189.311,110 192,112.689 192,116L192,180.104C187.779,178.946 183.769,177.677 180,176.308ZM164,169.087L164,110C164,106.689 166.689,104 170,104C173.311,104 176,106.689 176,110L176,174.781C171.61,173.021 167.593,171.116 164,169.087ZM148,155.686L148,101C148,97.689 150.689,95 154,95C157.311,95 160,97.689 160,101L160,166.663C154.802,163.274 150.734,159.588 148,155.686ZM212,184.469L212,123C212,119.94 214.295,117.413 217.256,117.046C218.319,117.214 219.39,117.375 220.468,117.53C222.55,118.472 224,120.568 224,123L224,186.175C219.897,185.694 215.892,185.124 212,184.469ZM228,186.611L228,124C228,121.777 229.211,119.835 231.009,118.799C233.252,119.018 235.521,119.209 237.814,119.369C239.149,120.47 240,122.136 240,124L240,187.554C235.925,187.324 231.921,187.009 228,186.611ZM244,187.75L244,125.301C244,122.895 245.419,120.819 247.464,119.862C249.223,119.919 250.994,119.959 252.775,119.98C254.691,120.983 256,122.99 256,125.301L256,188C251.946,188 247.943,187.915 244,187.75ZM260,187.972L260,125.297C260,122.924 261.382,120.87 263.384,119.897C265.002,119.852 266.61,119.792 268.208,119.718C270.428,120.598 272,122.766 272,125.297L272,187.554C268.062,187.775 264.058,187.916 260,187.972ZM276,187.299L276,124C276,121.924 277.057,120.093 278.661,119.015C280.555,118.848 282.432,118.661 284.29,118.453C286.467,119.354 288,121.499 288,124L288,186.175C284.085,186.633 280.081,187.01 276,187.299ZM292,185.674L292,122C292,119.96 293.02,118.156 294.578,117.072C296.276,116.805 297.954,116.52 299.612,116.219C302.142,116.924 304,119.247 304,122L304,183.76C300.118,184.485 296.112,185.125 292,185.674ZM308,182.973L308,119C308,116.795 309.192,114.866 310.966,113.823C312.063,113.558 313.148,113.285 314.221,113.004C317.43,113.121 320,115.763 320,119L320,180.104C316.168,181.155 312.161,182.114 308,182.973ZM340,173.091L340,108C340,104.689 342.689,102 346,102C349.311,102 352,104.689 352,108L352,166.663C348.493,168.949 344.472,171.1 340,173.091ZM324,178.955L324,115C324,111.689 326.689,109 330,109C333.311,109 336,111.689 336,115L336,174.781C332.26,176.281 328.25,177.676 324,178.955Z" style="fill:rgb(64,106,191);fill-opacity:0.3;stroke:rgb(47,57,68);stroke-width:1px;"/><path d="M308,357.946C308,356.083 309.286,354.467 311.1,354.048C331.213,349.368 347.459,342.206 357.364,333.577C358.534,332.54 360.203,332.285 361.629,332.926C363.054,333.567 363.972,334.985 363.972,336.548C364,345.506 364,357.681 364,361.935C364,362.955 363.611,363.936 362.911,364.679C354.535,373.217 336.421,380.391 312.736,384.856C311.567,385.075 310.361,384.762 309.446,384.002C308.531,383.242 308.001,382.115 308.001,380.926C308,374.544 308,363.405 308,357.946Z" style="fill:white;fill-opacity:0.75;stroke:rgb(47,57,68);stroke-width:1px;"/><path d="M288,473.651L288,222.668C294.997,221.784 301.691,220.617 308,219.201L308,469.521C301.659,471.211 294.969,472.599 288,473.651ZM316,467.172L316,217.217C318.759,216.464 321.428,215.66 324,214.809L324,464.339C321.417,465.34 318.748,466.286 316,467.172Z" style="fill:white;fill-opacity:0.6;stroke:rgb(47,57,68);stroke-width:1px;"/><path d="M362.813,187.175C355.05,208.362 310.153,224.635 256,224.635C201.847,224.635 156.95,208.362 149.187,187.175C166.843,202.934 208.043,213.997 256,213.997C303.957,213.997 345.157,202.934 362.813,187.175Z" style="fill:rgb(234,244,255);fill-opacity:0.3;stroke:rgb(47,57,68);stroke-width:2px;"/><path d="M372,148L372,170C371.995,194.283 320.019,213.997 256,213.997C191.981,213.997 140.005,194.283 140,170L140,148C140,172.284 191.978,192 256,192C320.022,192 372,172.284 372,148Z" style="fill:rgb(64,106,191);fill-opacity:0.3;stroke:rgb(47,57,68);stroke-width:2px;"/><ellipse cx="256" cy="72" rx="112" ry="48" style="fill:rgb(64,106,191);fill-opacity:0.3;stroke:rgb(47,57,68);stroke-width:2px;"/><ellipse cx="256.066" cy="72" rx="106" ry="44" style="fill:rgb(64,106,191);fill-opacity:0.3;stroke:rgb(47,57,68);stroke-width:2px;"/><ellipse cx="256" cy="72.002" rx="100" ry="39.998" style="fill:rgb(64,106,191);fill-opacity:0.3;stroke:rgb(47,57,68);stroke-width:1px;"/><ellipse cx="256.12" cy="70.002" rx="11.88" ry="5.998" style="fill:rgb(64,106,191);fill-opacity:0.3;stroke:rgb(47,57,68);stroke-width:1px;"/><ellipse cx="256" cy="70" rx="4" ry="2" style="fill:rgb(64,106,191);fill-opacity:0.3;stroke:rgb(47,57,68);stroke-width:1px;"/></svg>