<?xml version="1.0" encoding="UTF-8" standalone="no"?><!DOCTYPE svg PUBLIC "-//W3C//DTD SVG 1.1//EN" "http://www.w3.org/Graphics/SVG/1.1/DTD/svg11.dtd"><svg width="100%" height="100%" viewBox="0 0 512 512" version="1.1" xmlns="http://www.w3.org/2000/svg" xmlns:xlink="http://www.w3.org/1999/xlink" xml:space="preserve" xmlns:serif="http://www.serif.com/" style="fill-rule:evenodd;clip-rule:evenodd;stroke-linecap:round;stroke-linejoin:round;stroke-miterlimit:1.5;"><rect id="ArtBoard1" x="0" y="0" width="512" height="512" style="fill:none;"/><path d="M85.786,95.032C85.579,95.085 85.366,95.13 85.148,95.167C50.141,101.065 39.884,118.867 28.569,121.935C29.804,120.025 33.232,114.724 50.59,103.962C68.254,93.011 81.283,91.19 84.569,90.602C84.719,88.524 85.749,86.613 87.651,86.315C88.615,86.164 89.596,86.036 90.58,85.93C93.784,79.007 103.486,62.399 107.577,55.396C106.706,55.608 106.107,55.742 105.979,55.762C105.648,55.814 105.351,55.826 105.083,55.802C100.605,58.479 94.941,61.427 94.747,61.535C63.344,78.985 60.863,83.547 51.678,85.404C59.175,78.687 89.111,59.36 102.958,53.421C102.908,53.078 102.888,52.72 102.892,52.36C102.432,52.572 101.967,52.792 101.497,53.017C94.744,53.321 86.266,53.643 79.008,54.37C47.772,57.499 41.238,64.533 29.011,65.806C32.922,61.684 47.587,56.032 56.019,53.884C83.046,46.998 96.959,48.272 103.396,49.24C103.462,49.04 103.523,48.89 103.571,48.807C103.964,48.127 107.059,47.567 110.251,47.16C105.979,45.924 101.308,44.218 92.874,43.108C68.715,39.929 54.499,43.386 49.786,41.568C57.868,37.634 89.208,32.216 118.802,44.875C122.703,42.48 131.877,45.972 147.169,47.578C149.699,44.91 152.665,46.587 152.976,46.668C168.366,50.71 181.579,57.869 185.758,60.226C185.784,60.219 185.81,60.213 185.835,60.209C186.68,60.059 206.398,70.814 219.741,83.711C219.743,83.711 219.744,83.711 219.746,83.711C221.217,83.785 221.893,83.819 232.658,94.758C270.785,67.849 341.945,81.088 364,123.869C395,184 444.167,225 440,300C438,336 421.333,360 428,388C434.667,416 487.435,468.531 480,468C466,467 425,399 384,400C365.978,400.44 346.72,406.259 328,404C212,390 154,254 232,169C216,165 200,186.833 196,183C192,179.167 208.154,158.965 208,146C207.854,133.758 210.411,123.347 214.981,114.678C209.352,110.182 206.493,109.021 205.081,107.205C205.013,107.268 204.944,107.329 204.873,107.39C184.448,117.339 184.105,116.466 163.831,126.612C160.064,128.497 158.004,129.726 156.112,129.17C157.362,135.073 157.302,149.129 157.744,155.074C159.767,182.28 161.468,199.776 155.691,209.353C156.74,181.414 149.875,148.966 152.247,132.572C147.484,136.047 140.281,139.243 139.084,139.604C138.332,139.83 137.65,139.913 137.033,139.879C135.217,145.455 128.387,156.529 121.419,180.845C116.288,198.747 116.468,198.844 112.351,205.968C112.413,203.147 112.623,193.563 118.796,171.286C121.998,159.729 128.185,147.322 131.455,141.16C128.319,144.303 122.056,150.558 121.756,150.833C119.597,152.812 117.976,153.096 116.79,152.619C114.754,155.909 109.506,160.87 104.739,166.285C88.8,184.394 84.761,197.482 76.506,206.031C83.094,183.387 91.154,171.336 114.222,149.192C114.053,148.612 114.278,147.677 114.548,147.404C112.228,148.39 110.452,148.816 109.159,148.42C108.971,148.362 108.601,147.935 108.208,147.288C107.086,148.106 106.033,148.828 105.836,148.963C75.943,169.454 72.799,181.891 62.326,187.004C67.216,174.273 89.67,152.965 106.834,143.513C106.643,141.981 106.976,140.446 108.463,139.5C112.362,137.019 116.376,135.145 119.988,133.747C120.291,131.162 121.054,126.603 123.012,118.044C126.729,101.798 126.601,100.929 130.33,90.256C128.156,90.977 125.218,91.638 121.793,92.615C118.585,93.529 113.025,95.649 109.369,95.782C109.089,97.219 107.65,100.205 100.438,108.007C79.07,131.123 81.983,136.574 70.687,149.115C71.114,147.348 72.91,139.901 79.439,128.146C87.079,114.39 93.37,106.535 98.855,100.55C95.005,102.508 90.464,104.311 87.752,105.382C49.918,120.332 48.091,131.029 35.917,137.28C40.747,128.652 70.316,104.401 99.725,95.477C101.302,95.239 102.905,94.971 104.427,94.692L105.097,93.997C99.333,95.34 90.118,96.791 87.83,96.31C86.985,96.133 86.304,95.669 85.786,95.032ZM94.745,85.597C99.656,85.329 104.264,85.478 107.113,85.632C107.156,85.584 107.201,85.538 107.246,85.494C109.596,83.275 129.771,80.642 130.139,80.634C130.236,80.632 130.331,80.631 130.423,80.632C130.863,76.14 135.843,76.763 139.501,76.566C170.279,74.911 170.414,68.529 181.333,71.927C181.579,71.569 181.836,71.255 182.101,70.999C182.029,70.929 181.963,70.854 181.902,70.774C179.257,70.011 165.246,65.081 154.19,61.103C149.98,59.588 146.89,58.859 145.357,57.416C142.848,57.786 139.964,56.142 136.808,55.625C123.682,53.473 118.761,54.105 117.211,52.472C116.199,52.932 114.698,53.436 113.12,53.908C108.73,61.666 108.065,62.487 103.682,69.911C97.67,80.096 95.671,83.874 94.745,85.597ZM150.551,119.343C152.608,114.391 165.58,111.674 188.527,100.232C191.434,98.783 195.565,96.592 199.011,95.148C181.149,84.995 179.045,83.803 178.601,81.792C173.595,83.225 166.783,84.621 159.145,86.109C143.947,89.07 138.038,92.959 134.712,91.394C134.002,95.847 132.298,102.656 132.085,103.51C127.587,121.492 126.159,128.003 123.223,132.579C126.788,131.381 131.32,129.597 131.355,129.542C132.161,128.259 136.818,125.812 150.483,119.318L150.551,119.343Z" style="stroke:rgb(47,57,68);stroke-width:4px;"/><path d="M208,146C208.154,158.965 192,179.167 196,183C200,186.833 216,165 232,169C154,254 212,390 328,404C346.72,406.259 365.978,400.44 384,400C425,399 466,467 480,468C487.435,468.531 434.667,416 428,388C421.333,360 438,336 440,300C444.167,225 395,184 364,123.869C333.245,64.212 207,62 208,146Z" style="fill:rgb(228,227,228);fill-opacity:0.3;stroke:rgb(47,57,68);stroke-width:2px;"/><path d="M205.512,171.41C209.449,163.26 214.089,153.441 214,145.929C213.544,107.656 242.364,89.317 274.514,87.048C307.461,84.723 344.307,98.763 358.667,126.618C374.212,156.771 394.298,182.135 409.989,209.355C425.083,235.538 436.019,263.492 434.009,299.667C433.034,317.228 428.433,331.853 424.937,345.512C421.104,360.491 418.597,374.411 422.163,389.39C424.381,398.705 431.369,410.672 439.703,422.602C432.313,415.724 424.431,409.225 416.293,404.214C405.772,397.736 394.789,393.735 383.854,394.002C366.107,394.435 347.153,400.268 328.719,398.043C217.594,384.632 161.699,254.484 236.421,173.057C237.851,171.498 238.355,169.301 237.747,167.275C237.138,165.248 235.508,163.692 233.455,163.179C228.447,161.927 223.431,162.517 218.639,164.218C213.931,165.889 209.446,168.678 205.512,171.41Z" style="fill:none;stroke:rgb(47,57,68);stroke-width:1px;"/><path d="M232.658,94.758C229.161,97.227 225.941,100.033 223.063,103.185C222.93,103.07 222.785,102.938 222.627,102.787C219.293,99.612 219.356,99.586 215.966,96.5C209.876,90.957 216.92,83.569 219.746,83.711C221.217,83.785 221.893,83.819 232.658,94.758Z" style="fill:rgb(228,227,228);fill-opacity:0.3;stroke:rgb(47,57,68);stroke-width:2px;"/><path d="M182.101,70.999C179.805,68.803 183.737,60.581 185.835,60.209C186.68,60.059 206.398,70.814 219.741,83.711C217.56,83.609 212.883,87.97 213.64,92.512C212.881,91.985 211.982,91.359 211.006,90.68L211.114,90.666C211.13,89.887 210.884,89.161 210.265,88.553C209.748,88.043 189.077,69.926 183.523,70.26C183.033,70.29 182.555,70.56 182.101,70.999Z" style="fill:rgb(228,227,228);fill-opacity:0.3;stroke:rgb(47,57,68);stroke-width:2px;"/><path d="M185.758,60.226C183.709,60.764 180.074,68.324 181.902,70.774C179.257,70.011 165.246,65.081 154.19,61.103C146.029,58.166 142.078,58.184 145.512,50.221C148.176,44.043 152.593,46.568 152.976,46.668C168.366,50.71 181.579,57.869 185.758,60.226Z" style="fill:rgb(228,227,228);fill-opacity:0.3;stroke:rgb(47,57,68);stroke-width:2px;"/><path d="M147.169,47.578C146.58,48.199 146.015,49.055 145.512,50.221C143.849,54.076 143.918,56.061 145.357,57.416C142.848,57.786 139.964,56.142 136.808,55.625C119.437,52.777 116.436,54.805 116.603,50.005C116.958,39.761 126.445,45.402 147.169,47.578Z" style="fill:rgb(228,227,228);fill-opacity:0.3;stroke:rgb(47,57,68);stroke-width:2px;"/><path d="M102.958,53.421C103.139,54.657 103.721,55.683 105.083,55.802C100.605,58.479 94.941,61.427 94.747,61.535C63.344,78.985 60.863,83.547 51.678,85.404C59.175,78.687 89.111,59.36 102.958,53.421Z" style="fill:rgb(228,227,228);fill-opacity:0.3;stroke:rgb(47,57,68);stroke-width:2px;"/><path d="M117.363,46.446C116.906,47.328 116.655,48.494 116.603,50.005C116.562,51.178 116.71,51.943 117.211,52.472C114.123,53.878 106.478,55.684 105.979,55.762C101.445,56.475 103.111,49.606 103.571,48.807C104.335,47.483 115.342,46.614 117.363,46.446Z" style="fill:rgb(228,227,228);fill-opacity:0.3;stroke:rgb(47,57,68);stroke-width:2px;"/><path d="M214.981,114.678C206.396,107.822 204.255,108.721 203.861,103.226C203.471,97.77 208.197,91.088 211.006,90.68C211.83,90.56 212.691,90.691 213.577,91.017C213.435,92.833 214.052,94.758 215.966,96.5C219.356,99.586 219.293,99.612 222.627,102.787C222.785,102.938 222.93,103.07 223.063,103.185C219.94,106.605 217.219,110.433 214.981,114.678Z" style="fill:rgb(228,227,228);fill-opacity:0.3;stroke:rgb(47,57,68);stroke-width:2px;"/><path d="M199.011,95.148C179.311,83.95 178.779,83.652 178.501,81.135C178.239,78.754 180.667,70.432 183.523,70.26C189.077,69.926 209.748,88.043 210.265,88.553C210.884,89.161 211.13,89.887 211.114,90.666L211.006,90.68C209.568,90.889 207.628,92.741 206.129,95.231C205.83,94.746 205.492,94.322 205.119,93.978C204.329,93.246 201.913,93.933 199.011,95.148Z" style="fill:rgb(228,227,228);fill-opacity:0.3;stroke:rgb(47,57,68);stroke-width:2px;"/><path d="M132.687,89.266C133.276,90.341 133.921,91.022 134.712,91.394C134.002,95.847 132.298,102.656 132.085,103.51C127.587,121.492 126.159,128.003 123.223,132.579C122.194,132.925 121.11,133.313 119.988,133.747C120.291,131.162 121.054,126.603 123.012,118.044C126.729,101.798 126.601,100.929 130.33,90.256C131.264,89.947 132.057,89.627 132.687,89.266Z" style="fill:rgb(228,227,228);fill-opacity:0.3;stroke:rgb(47,57,68);stroke-width:2px;"/><path d="M181.333,71.927C179.545,74.521 178.31,79.402 178.501,81.135C178.527,81.37 178.555,81.585 178.601,81.792C173.595,83.225 166.783,84.621 159.145,86.109C138.991,90.036 135.172,95.594 132.049,87.902C127.045,75.575 134.505,76.835 139.501,76.566C170.279,74.911 170.414,68.529 181.333,71.927Z" style="fill:rgb(228,227,228);fill-opacity:0.3;stroke:rgb(47,57,68);stroke-width:2px;"/><path d="M130.423,80.632C130.263,82.274 130.709,84.601 132.049,87.902C132.257,88.414 132.468,88.867 132.687,89.266C130.589,90.467 126.688,91.219 121.793,92.615C117.456,93.851 108.815,97.292 106.4,95.044C105.645,94.342 105.285,87.348 107.246,85.494C109.596,83.275 129.771,80.642 130.139,80.634C130.236,80.632 130.331,80.631 130.423,80.632Z" style="fill:rgb(228,227,228);fill-opacity:0.3;stroke:rgb(47,57,68);stroke-width:2px;"/><path d="M107.113,85.632C105.711,87.21 105.61,91.577 105.979,93.785C100.325,95.181 90.239,96.816 87.83,96.31C83.501,95.401 83.474,86.97 87.651,86.315C94.845,85.187 102.902,85.404 107.113,85.632Z" style="fill:rgb(228,227,228);fill-opacity:0.3;stroke:rgb(47,57,68);stroke-width:2px;"/><path d="M110.251,47.16C105.979,45.924 101.308,44.218 92.874,43.108C68.715,39.929 54.499,43.386 49.786,41.568C57.868,37.634 89.208,32.216 118.802,44.875C118.196,45.247 117.717,45.761 117.363,46.446C116.38,46.528 113.272,46.775 110.251,47.16Z" style="fill:rgb(228,227,228);fill-opacity:0.3;stroke:rgb(47,57,68);stroke-width:2px;"/><path d="M101.497,53.017C94.744,53.321 86.266,53.643 79.008,54.37C47.772,57.499 41.238,64.533 29.011,65.806C32.922,61.684 47.587,56.032 56.019,53.884C83.046,46.998 96.959,48.272 103.396,49.24C103.176,49.908 102.903,51.141 102.892,52.36C102.432,52.572 101.967,52.792 101.497,53.017Z" style="fill:rgb(228,227,228);fill-opacity:0.3;stroke:rgb(47,57,68);stroke-width:2px;"/><path d="M90.58,85.93C93.784,79.007 103.486,62.399 107.577,55.396C108.989,55.053 111.117,54.506 113.12,53.908C108.73,61.666 108.065,62.487 103.682,69.911C97.67,80.096 95.671,83.874 94.745,85.597C93.369,85.672 91.97,85.78 90.58,85.93Z" style="fill:rgb(228,227,228);fill-opacity:0.3;stroke:rgb(47,57,68);stroke-width:2px;"/><path d="M84.569,90.602C84.455,92.198 84.859,93.891 85.786,95.032C85.579,95.085 85.366,95.13 85.148,95.167C50.141,101.065 39.884,118.867 28.569,121.935C29.804,120.025 33.232,114.724 50.59,103.962C68.254,93.011 81.283,91.19 84.569,90.602Z" style="fill:rgb(228,227,228);fill-opacity:0.3;stroke:rgb(47,57,68);stroke-width:2px;"/><path d="M109.369,95.782C109.089,97.219 107.65,100.205 100.438,108.007C79.07,131.123 81.983,136.574 70.687,149.115C71.114,147.348 72.91,139.901 79.439,128.146C87.079,114.39 93.37,106.535 98.855,100.55C102.364,98.765 105.298,96.851 105.75,95.241C105.854,94.869 105.777,94.625 105.568,94.478C105.194,94.55 104.813,94.622 104.427,94.692L105.144,93.948C105.218,93.879 105.505,93.566 105.898,93.199C106.005,94.144 106.187,94.846 106.4,95.044C107.029,95.63 108.081,95.829 109.369,95.782Z" style="fill:rgb(228,227,228);fill-opacity:0.3;stroke:rgb(47,57,68);stroke-width:2px;"/><path d="M84.569,90.602C84.455,92.198 84.859,93.891 85.786,95.032C85.579,95.085 85.366,95.13 85.148,95.167C50.141,101.065 39.884,118.867 28.569,121.935C29.804,120.025 33.232,114.724 50.59,103.962C68.254,93.011 81.283,91.19 84.569,90.602Z" style="fill:rgb(228,227,228);fill-opacity:0.3;stroke:rgb(47,57,68);stroke-width:2px;"/><path d="M99.725,95.477C101.701,95.179 103.719,94.834 105.568,94.478C105.777,94.625 105.854,94.869 105.75,95.241C104.801,98.618 92.935,103.334 87.752,105.382C49.918,120.332 48.091,131.029 35.917,137.28C40.747,128.652 70.316,104.401 99.725,95.477Z" style="fill:rgb(228,227,228);fill-opacity:0.3;stroke:rgb(47,57,68);stroke-width:2px;"/><path d="M205.081,107.205C205.013,107.268 204.944,107.329 204.873,107.39C184.448,117.339 184.105,116.466 163.831,126.612C157.519,129.771 155.999,131.086 152.037,125.254C145.23,115.236 158.123,115.392 188.527,100.232C193.882,97.562 203.391,92.377 205.119,93.978C205.492,94.322 205.83,94.746 206.129,95.231C204.699,97.607 203.671,100.562 203.861,103.226C203.997,105.118 204.339,106.252 205.081,107.205Z" style="fill:rgb(228,227,228);fill-opacity:0.3;stroke:rgb(47,57,68);stroke-width:2px;"/><path d="M155.886,129.095C155.961,129.123 156.037,129.148 156.112,129.17C157.362,135.073 157.302,149.129 157.744,155.074C159.767,182.28 161.468,199.776 155.691,209.353C156.74,181.414 149.875,148.966 152.247,132.572C153.837,131.412 155.155,130.222 155.886,129.095Z" style="fill:rgb(228,227,228);fill-opacity:0.3;stroke:rgb(47,57,68);stroke-width:2px;"/><path d="M133.37,137.637C134.221,138.881 135.403,139.789 137.033,139.879C135.217,145.455 128.387,156.529 121.419,180.845C116.288,198.747 116.468,198.844 112.351,205.968C112.413,203.147 112.623,193.563 118.796,171.286C122.881,156.546 131.821,140.421 133.37,137.637Z" style="fill:rgb(228,227,228);fill-opacity:0.3;stroke:rgb(47,57,68);stroke-width:2px;"/><path d="M150.551,119.343C149.883,120.952 150.368,122.797 152.037,125.254C153.54,127.466 154.691,128.65 155.886,129.095C152.962,133.597 140.681,139.123 139.084,139.604C131.603,141.856 131.112,129.928 131.355,129.542C132.161,128.259 136.818,125.812 150.483,119.318C150.506,119.325 150.529,119.334 150.551,119.343Z" style="fill:rgb(228,227,228);fill-opacity:0.3;stroke:rgb(47,57,68);stroke-width:2px;"/><path d="M106.834,143.513C107.01,144.929 107.633,146.343 108.208,147.288C107.086,148.106 106.033,148.828 105.836,148.963C75.943,169.454 72.799,181.891 62.326,187.004C67.216,174.273 89.67,152.965 106.834,143.513Z" style="fill:rgb(228,227,228);fill-opacity:0.3;stroke:rgb(47,57,68);stroke-width:2px;"/><path d="M114.222,149.192C114.56,150.349 115.356,152.041 116.79,152.619C114.754,155.909 109.506,160.87 104.739,166.285C88.8,184.394 84.761,197.482 76.506,206.031C83.094,183.387 91.154,171.336 114.222,149.192Z" style="fill:rgb(228,227,228);fill-opacity:0.3;stroke:rgb(47,57,68);stroke-width:2px;"/><path d="M131.455,141.16C128.319,144.303 122.056,150.558 121.756,150.833C115.676,156.405 113.859,148.542 114.037,148.064C114.096,147.904 114.278,147.677 114.548,147.404C117.324,146.225 120.878,144.243 125.31,141.909C127.216,140.905 129.871,139.521 132.573,138.032C132.68,138.217 132.774,138.399 132.855,138.567C132.495,139.222 132.019,140.098 131.455,141.16Z" style="fill:rgb(228,227,228);fill-opacity:0.3;stroke:rgb(47,57,68);stroke-width:2px;"/><path d="M131.314,130.341C131.36,131.885 131.795,135.304 133.347,137.602C130.385,139.254 127.398,140.809 125.31,141.909C117.173,146.194 111.998,149.289 109.159,148.42C108.4,148.187 104.662,141.919 108.463,139.5C117.769,133.577 127.734,131.112 131.314,130.341Z" style="fill:rgb(228,227,228);fill-opacity:0.3;stroke:rgb(47,57,68);stroke-width:2px;"/><ellipse cx="236.5" cy="127.812" rx="16.5" ry="18.188" style="fill-opacity:0.3;stroke:rgb(47,57,68);stroke-width:2px;"/><ellipse cx="236.082" cy="127.282" rx="11.918" ry="12.604" style="fill-opacity:0.3;stroke:rgb(47,57,68);stroke-width:1px;"/><ellipse cx="232.5" cy="121.462" rx="4.5" ry="4.538" style="fill:rgb(228,227,228);fill-opacity:0.3;stroke:rgb(47,57,68);stroke-width:1px;"/></svg>