<?xml version="1.0" encoding="UTF-8" standalone="no"?><!DOCTYPE svg PUBLIC "-//W3C//DTD SVG 1.1//EN" "http://www.w3.org/Graphics/SVG/1.1/DTD/svg11.dtd"><svg width="100%" height="100%" viewBox="0 0 512 512" version="1.1" xmlns="http://www.w3.org/2000/svg" xmlns:xlink="http://www.w3.org/1999/xlink" xml:space="preserve" xmlns:serif="http://www.serif.com/" style="fill-rule:evenodd;clip-rule:evenodd;stroke-linecap:round;stroke-linejoin:round;stroke-miterlimit:1.5;"><rect id="SLIP" x="0" y="0" width="512" height="512" style="fill:none;"/><g><path d="M200,160.013L200.027,160L320,264C320,264.007 320,264.022 320,264.043C320.005,264.656 320.057,271.578 320,272C320,272.002 319.996,272.006 319.989,272.011L320.027,272.043L318.691,272.711C304.971,279.838 187.427,338.366 158.44,352.795L152.026,356L152.017,355.992C152.006,355.997 152,356 152,356L32,252L32,244L200,160C200,160 200,160.004 200,160.013Z" style="fill:rgb(234,244,255);fill-opacity:0.3;stroke:rgb(47,57,68);stroke-width:4px;"/><path d="M320,272C320.06,271.567 320,264 320,264L152,348L152,356C152,356 319.94,272.433 320,272Z" style="fill:rgb(234,244,255);fill-opacity:0.3;stroke:rgb(47,57,68);stroke-width:2px;"/><path d="M32,244L152,348L152,356L32,252L32,244Z" style="fill:rgb(234,244,255);fill-opacity:0.3;stroke:rgb(47,57,68);stroke-width:2px;"/><path d="M152,348L32,244L200.027,160L320,264.043L152,348Z" style="fill:rgb(234,244,255);fill-opacity:0.29;stroke:rgb(47,57,68);stroke-width:2px;"/><path d="M152,342.534L40,245.466L200,165.446L312,262.573L152,342.534Z" style="fill:rgb(234,244,255);fill-opacity:0.3;stroke:rgb(47,57,68);stroke-width:1px;"/><path d="M220,308.551L176,330.54L132,199.455L172,179.45L220,308.551Z" style="fill:white;fill-opacity:0.3;stroke:rgb(47,57,68);stroke-width:1px;"/><path d="M256,290.56L212,175.853L200,165.446L188,171.448L236,300.555L256,290.56Z" style="fill:white;fill-opacity:0.3;stroke:rgb(47,57,68);stroke-width:1px;"/></g><g><path d="M360,160.013L360.027,160L480,264C480,264.007 480,264.022 480,264.043C480.005,264.656 480.057,271.578 480,272C480,272.002 479.996,272.006 479.989,272.011L480.027,272.043L478.691,272.711C464.971,279.838 347.427,338.366 318.44,352.795L312.026,356L312.017,355.992C312.006,355.997 312,356 312,356L192,252L192,244L360,160C360,160 360,160.004 360,160.013Z" style="fill:rgb(234,244,255);fill-opacity:0.3;stroke:rgb(47,57,68);stroke-width:4px;"/><path d="M480,272C480.06,271.567 480,264 480,264L312,348L312,356C312,356 479.94,272.433 480,272Z" style="fill:rgb(234,244,255);fill-opacity:0.3;stroke:rgb(47,57,68);stroke-width:2px;"/><path d="M192,244L312,348L312,356L192,252L192,244Z" style="fill:rgb(234,244,255);fill-opacity:0.3;stroke:rgb(47,57,68);stroke-width:2px;"/><path d="M312,348L192,244L360.027,160L480,264.043L312,348Z" style="fill:rgb(234,244,255);fill-opacity:0.29;stroke:rgb(47,57,68);stroke-width:2px;"/><path d="M312,342.534L200,245.466L360,165.446L472,262.573L312,342.534Z" style="fill:rgb(234,244,255);fill-opacity:0.3;stroke:rgb(47,57,68);stroke-width:1px;"/><path d="M380,308.551L336,330.54L292,199.455L332,179.45L380,308.551Z" style="fill:white;fill-opacity:0.3;stroke:rgb(47,57,68);stroke-width:1px;"/><path d="M416,290.56L372,175.853L360,165.446L348,171.448L396,300.555L416,290.56Z" style="fill:white;fill-opacity:0.3;stroke:rgb(47,57,68);stroke-width:1px;"/></g></svg>