<?xml version="1.0" encoding="UTF-8" standalone="no"?><!DOCTYPE svg PUBLIC "-//W3C//DTD SVG 1.1//EN" "http://www.w3.org/Graphics/SVG/1.1/DTD/svg11.dtd"><svg width="100%" height="100%" viewBox="0 0 512 512" version="1.1" xmlns="http://www.w3.org/2000/svg" xmlns:xlink="http://www.w3.org/1999/xlink" xml:space="preserve" xmlns:serif="http://www.serif.com/" style="fill-rule:evenodd;clip-rule:evenodd;stroke-linecap:round;stroke-linejoin:round;stroke-miterlimit:1.5;"><rect id="ArtBoard1" x="0" y="0" width="512" height="512" style="fill:none;"/><path d="M168,216C164,212 164,208 164,204L164,160.039C164,136 184,128 196,116L196,108C196,107.892 196.003,107.784 196.01,107.676C193.417,105.286 192,102.699 192,100L192,88C192,84.975 193.78,82.091 197,79.467L197,48C197,39.169 223.437,32 256,32C288.563,32 315,39.169 315,48L315,79.467C318.22,82.091 320,84.975 320,88L320,100C320,102.699 318.583,105.286 315.99,107.676C315.997,107.784 316,107.892 316,108L316,116C328,128 348,136 348,160.039L348,204C348,208 348,212 344,216L344,324C348,328 348,336 348,340L344,440.019C344,462.085 304.569,480 256,480C207.431,480 168,462.085 168,440.019L164,340C164,336 164,328 168,324L168,216Z" style="fill:rgb(234,244,255);fill-opacity:0.3;stroke:rgb(47,57,68);stroke-width:4px;"/><ellipse cx="256" cy="440.019" rx="88" ry="39.981" style="fill:rgb(234,244,255);fill-opacity:0.3;stroke:rgb(47,57,68);stroke-width:1px;"/><path d="M316,116C328,128 348,136 348,160.039L348,204C348,208 348,212 344,216L344,324C348,328 348,336 348,340L344,440.019C344,462.085 304.569,480 256,480C207.431,480 168,462.085 168,440.019L164,340C164,336 164,328 168,324L168,216C164,212 164,208 164,204L164,160.039C164,136 184,128 196,116C196,125.934 222.885,134 256,134C289.115,134 316,125.934 316,116Z" style="fill:rgb(234,244,255);fill-opacity:0.3;stroke:rgb(47,57,68);stroke-width:1px;"/><path d="M174,214.548C170.126,210.044 168,205.144 168,200.019C168,177.953 207.431,160.039 256,160.039C304.569,160.039 344,177.953 344,200.019C344,205.144 341.874,210.044 338,214.548L338,324C338,325.591 338.632,327.117 339.757,328.243C340.921,329.407 341.291,331.24 341.582,332.986C342.01,335.556 342.001,338.126 342,339.878L338.005,439.78C338.002,439.859 338,439.939 338,440.019C338,447.089 332.405,453.225 323.851,458.525C308.554,468.003 283.829,474 256,474C228.171,474 203.446,468.003 188.149,458.525C179.595,453.225 174,447.089 174,440.019C174,439.939 173.998,439.859 173.995,439.78L170,339.879C169.999,338.127 169.99,335.556 170.418,332.986C170.709,331.24 171.079,329.407 172.243,328.243C173.368,327.117 174,325.591 174,324L174,214.548Z" style="fill:rgb(168,215,255);fill-opacity:0.3;stroke:rgb(47,57,68);stroke-width:2px;"/><path d="M338,224L338,324C338,325.591 338.632,327.117 339.757,328.243C340.921,329.407 341.291,331.24 341.582,332.986C342.01,335.556 342.001,338.126 342,339.878L338.005,439.78C338.002,439.859 338,439.939 338,440.019C338,447.089 332.405,453.225 323.851,458.525C308.554,468.003 283.829,474 256,474C228.171,474 203.446,468.003 188.149,458.525C179.595,453.225 174,447.089 174,440.019C174,439.939 173.998,439.859 173.995,439.78L170,339.879C169.999,338.127 169.99,335.556 170.418,332.986C170.709,331.24 171.079,329.407 172.243,328.243C173.368,327.117 174,325.591 174,324L174,224" style="fill:rgb(234,244,255);fill-opacity:0.3;stroke:rgb(47,57,68);stroke-width:2px;"/><path d="M174,216C174,214.409 173.368,212.883 172.243,211.757C169.689,209.204 170,206.554 170,204L170,160.039C170,147.731 176.344,140.453 183.471,134.306C187.059,131.211 190.849,128.371 194.389,125.464C195.798,126.879 197.56,128.227 199.697,129.463C210.259,135.572 231.493,140 256,140C280.507,140 301.741,135.572 312.303,129.463C314.44,128.227 316.202,126.879 317.611,125.464C321.151,128.371 324.941,131.211 328.529,134.306C335.656,140.453 342,147.731 342,160.039L342,204C342,206.554 342.311,209.204 339.757,211.757C338.632,212.883 338,214.409 338,216" style="fill:rgb(234,244,255);fill-opacity:0.3;stroke:rgb(47,57,68);stroke-width:2px;"/><path d="M186,177.924L186,160.039C186,153.363 190.055,149.756 193.921,146.422C194.392,146.016 194.867,145.614 195.344,145.216C208.28,151.31 230.547,156 256,156C281.453,156 303.72,151.31 316.656,145.216C317.133,145.614 317.608,146.016 318.079,146.422C321.945,149.756 326,153.363 326,160.039L326,177.924" style="fill:rgb(234,244,255);fill-opacity:0.3;stroke:rgb(47,57,68);stroke-width:2px;"/><ellipse cx="256" cy="200.019" rx="88" ry="39.981" style="fill:rgb(168,215,255);fill-opacity:0.3;stroke:rgb(47,57,68);stroke-width:1px;"/><ellipse cx="256" cy="440.019" rx="88" ry="39.981" style="fill:rgb(168,215,255);fill-opacity:0.3;stroke:rgb(47,57,68);stroke-width:1px;"/><path d="M316,108L316,116C316,125.934 289.115,134 256,134C222.885,134 196,125.934 196,116L196,108C196,117.934 222.885,126 256,126C289.115,126 316,117.934 316,108Z" style="fill:rgb(128,128,128);fill-opacity:0.3;stroke:rgb(47,57,68);stroke-width:2px;"/><path d="M315.99,107.676C315.997,107.784 316,107.892 316,108C316,117.934 289.115,126 256,126C222.885,126 196,117.934 196,108C196,107.892 196.003,107.784 196.01,107.676C205.079,116.038 228.53,122 256,122C283.47,122 306.921,116.038 315.99,107.676Z" style="fill:rgb(128,128,128);fill-opacity:0.3;stroke:rgb(47,57,68);stroke-width:1px;"/><path d="M320,88L320,100C320,112.142 291.323,122 256,122C220.677,122 192,112.142 192,100L192,88C192,100.142 220.677,110 256,110C291.323,110 320,100.142 320,88Z" style="fill:rgb(128,128,128);fill-opacity:0.3;stroke:rgb(47,57,68);stroke-width:2px;"/><path d="M315,79.467C318.22,82.091 320,84.975 320,88C320,100.142 291.323,110 256,110C220.677,110 192,100.142 192,88C192,84.975 193.78,82.091 197,79.467L197,88C197,97.383 223.437,105 256,105C288.563,105 315,97.383 315,88L315,79.467Z" style="fill:rgb(128,128,128);fill-opacity:0.3;stroke:rgb(47,57,68);stroke-width:2px;"/><path d="M315,48L315,88C315,97.383 288.563,105 256,105C223.437,105 197,97.383 197,88L197,48C197,56.831 223.437,64 256,64C288.563,64 315,56.831 315,48Z" style="fill:rgb(128,128,128);fill-opacity:0.3;stroke:rgb(47,57,68);stroke-width:1px;"/><path d="M197.457,50C198.7,52.698 202.424,55.188 207.989,57.297L207.989,97.878C201.072,95.093 197,91.682 197,88L197,50L197.457,50ZM212,58.655C216.544,60.034 221.955,61.198 228,62.084L228,102.965C221.955,102.023 216.544,100.786 212,99.321L212,58.655ZM232,62.619C238.18,63.367 244.92,63.835 252,63.964L252,104.961C244.92,104.825 238.18,104.327 232,103.532L232,62.619ZM256,64C263.019,64 269.754,63.667 276,63.056L276,103.997C269.754,104.646 263.019,105 256,105L256,64ZM280,62.619C285.909,61.903 291.307,60.932 296,59.757L296,100.492C291.307,101.741 285.909,102.772 280,103.532L280,62.619ZM300,58.655C305.307,57.045 309.431,55.142 312,53.047L312,93.362C309.431,95.588 305.307,97.61 300,99.321L300,58.655Z" style="fill:rgb(128,128,128);fill-opacity:0.3;stroke:rgb(47,57,68);stroke-width:2px;"/><ellipse cx="256" cy="48" rx="59" ry="16" style="fill:rgb(128,128,128);fill-opacity:0.3;stroke:rgb(47,57,68);stroke-width:2px;"/><ellipse cx="256" cy="48" rx="48" ry="8" style="fill:rgb(128,128,128);fill-opacity:0.3;stroke:rgb(47,57,68);stroke-width:2px;"/><path d="M316,348C316,252 309,228 344,216" style="fill:none;stroke:rgb(47,57,68);stroke-width:2px;"/><path d="M196,348C196,252 203,228 168,216" style="fill:none;stroke:rgb(47,57,68);stroke-width:2px;"/><path d="M308,200L308,224.223C308,226.707 307.422,229.157 306.311,231.378C305.85,232.301 305.366,233.268 304.961,234.079C304.329,235.342 304,236.735 304,238.148C304,248.861 304,296 304,296" style="fill:none;stroke:rgb(47,57,68);stroke-width:2px;"/><path d="M204,200L204,224.223C204,226.707 204.578,229.157 205.689,231.378C206.15,232.301 206.634,233.268 207.039,234.079C207.671,235.342 208,236.735 208,238.148C208,248.861 208,296 208,296" style="fill:none;stroke:rgb(47,57,68);stroke-width:2px;"/></svg>