<?xml version="1.0" encoding="UTF-8" standalone="no"?><!DOCTYPE svg PUBLIC "-//W3C//DTD SVG 1.1//EN" "http://www.w3.org/Graphics/SVG/1.1/DTD/svg11.dtd"><svg width="100%" height="100%" viewBox="0 0 30 30" version="1.1" xmlns="http://www.w3.org/2000/svg" xmlns:xlink="http://www.w3.org/1999/xlink" xml:space="preserve" xmlns:serif="http://www.serif.com/" style="fill-rule:evenodd;clip-rule:evenodd;stroke-linecap:round;stroke-linejoin:round;stroke-miterlimit:1.5;"><rect id="duplicate" x="0" y="0" width="30" height="30" style="fill:none;"/><clipPath id="_clip1"><rect x="0" y="0" width="30" height="30"/></clipPath><g clip-path="url(#_clip1)"><path d="M2,10L23,10L23,25L2,25L2,10ZM6,7L6,4L29,4L29,22L26,22L26,10C26,8.343 24.657,7 23,7L6,7Z" style="fill:rgb(235,235,235);stroke:rgb(235,235,235);stroke-width:2px;"/><path d="M11,19L7,19C6.448,19 6,18.552 6,18C6,17.448 6.448,17 7,17L11,17L11,13C11,12.448 11.448,12 12,12C12.552,12 13,12.448 13,13L13,17L17,17C17.552,17 18,17.448 18,18C18,18.552 17.552,19 17,19L13,19L13,23C13,23.552 12.552,24 12,24C11.448,24 11,23.552 11,23L11,19Z" style="fill:rgb(203,203,203);"/><path d="M11,19L7,19C6.448,19 6,18.552 6,18C6,17.448 6.448,17 7,17L11,17L11,13C11,12.448 11.448,12 12,12C12.552,12 13,12.448 13,13L13,17L17,17C17.552,17 18,17.448 18,18C18,18.552 17.552,19 17,19L13,19L13,23C13,23.552 12.552,24 12,24C11.448,24 11,23.552 11,23L11,19Z" style="fill:rgb(203,203,203);"/></g></svg>