<?xml version="1.0" encoding="UTF-8" standalone="no"?><!DOCTYPE svg PUBLIC "-//W3C//DTD SVG 1.1//EN" "http://www.w3.org/Graphics/SVG/1.1/DTD/svg11.dtd"><svg width="100%" height="100%" viewBox="0 0 512 512" version="1.1" xmlns="http://www.w3.org/2000/svg" xmlns:xlink="http://www.w3.org/1999/xlink" xml:space="preserve" xmlns:serif="http://www.serif.com/" style="fill-rule:evenodd;clip-rule:evenodd;stroke-linecap:round;stroke-linejoin:round;stroke-miterlimit:1.5;"><rect id="ArtBoard1" x="0" y="0" width="512" height="512" style="fill:none;"/><path d="M126.604,105.045C121.167,98.086 124.521,86.367 134.089,78.892C143.657,71.417 155.839,70.997 161.276,77.956L171.606,91.177C173.413,93.49 174.249,96.329 174.208,99.363C175.919,95.932 178.588,92.628 182.089,89.893C191.657,82.417 203.839,81.998 209.276,88.957L219.606,102.178C221.557,104.676 222.376,107.786 222.182,111.094C227.773,111.109 232.753,113.109 235.893,117.128C235.943,117.192 235.992,117.256 236.04,117.32L240,116L292,128L304,148L304,163.345C320.205,165.91 334.754,171.446 345.163,180.391C347.829,182.48 350.215,185.016 352.326,187.971C355.856,192.635 358.482,197.967 360,204C368.092,229.733 365.838,247.405 364.58,310.192C364.888,310.26 365.192,310.348 365.492,310.457C369.139,311.784 380.44,315.36 384.208,316.732C390.951,319.186 392.746,331.283 388.216,343.73C383.686,356.178 374.534,364.291 367.792,361.837C366.908,361.515 365.576,361.062 364.01,360.54C364.004,362.98 364,365.466 364,368C364,368 363.852,368.07 363.568,368.205L371.978,372.265C375.034,373.741 377.001,376.81 377.064,380.203C377.064,380.226 377.065,380.249 377.065,380.273C377.094,382.876 376.298,396.424 375.859,405.244C375.856,405.414 375.847,405.589 375.833,405.767C375.669,409.096 375.562,411.674 375.579,412.599C375.642,415.993 373.791,419.133 370.791,420.721C370.791,420.721 330.927,444.91 301.202,461.631C286.437,469.942 274.14,476.424 270.515,477.146C248.692,481.489 233.457,483.327 188.515,464.146C171.772,457 162.41,450.621 157.369,445.291C150.586,438.617 149.319,433.201 149.319,430C149.319,424.119 148.832,412.918 149.474,404C149.484,403.868 149.495,403.738 149.508,403.611C149.578,402.612 149.8,401.736 150.085,400.992C150.844,398.874 152,398 152,398L204,360L222,350.471L222,347L222.249,347C222.404,346.693 222.629,346.394 222.918,346.105C212.804,343.678 206,339.164 206,334L206,327.639L138,302L138,286L222,254L242.107,260.922C242.037,260.623 242,260.314 242,260.002L242,248L240,248L240,238.396L236.238,245.774L234.616,244.947L230.468,253.081C230.101,253.8 229.464,254.344 228.697,254.593C227.929,254.843 227.094,254.777 226.376,254.41L215.576,248.903C214.857,248.537 214.313,247.9 214.064,247.132C213.815,246.365 213.882,245.529 214.248,244.81L218.396,236.676L216.774,235.849L220.921,227.716L221.241,227.879C220.174,227.335 219.456,226.378 219.182,225.302C218.381,224.243 217.833,223.086 217.567,221.837C217.535,221.687 217.508,221.537 217.484,221.387L217.472,221.39L215.81,213.571C215.036,209.931 216.775,206.025 220.388,202.321L219.94,200.215C212.537,198.068 208,195.177 208,192L208,179.429L196,176L196,170.863C183.409,169.785 168.313,166.776 164.555,161.965L146.508,138.461C143.188,134.212 142.556,128.514 144.22,122.765C141.277,122.068 138.735,120.572 136.933,118.266L126.604,105.045ZM251.048,264L296,279.475L296,268L308.013,263.495C308.155,257.556 309.101,201.143 293.907,196.324C293.966,196.526 294.018,196.731 294.062,196.938L295.724,204.757L295.712,204.759C295.751,204.906 295.787,205.054 295.819,205.204C296.196,206.978 295.976,208.815 295.233,210.662L295.895,211.752C296.445,212.659 296.612,213.748 296.36,214.778C296.108,215.809 295.456,216.697 294.549,217.247L294.399,217.338L300.897,228.049L299.111,229.132L305.7,239.992C306.846,241.881 306.243,244.341 304.355,245.487L293.343,252.167C291.455,253.313 288.995,252.71 287.849,250.821L281.26,239.96L279.475,241.043L272.978,230.333L272.828,230.424C271.921,230.974 270.832,231.141 269.802,230.889C269.12,230.722 268.5,230.381 268,229.906L268,232C268,234.209 266.209,236 264,236L264,248L262,248L262,260.002C262,261.062 261.579,262.079 260.829,262.829C260.079,263.579 259.062,264 258.002,264L251.048,264ZM328.258,290.581L335.359,293.025L335.477,292.837L328.258,290.581Z" style="fill:rgb(255,250,255);stroke:rgb(47,57,68);stroke-width:4px;"/><path d="M369.791,421.283C369.791,421.283 281.359,474.987 270.515,477.146C248.692,481.489 233.457,483.327 188.515,464.146C138.235,442.687 154.515,428.146 154.515,428.146L274.515,354.146L374.493,402.411C377.549,403.886 374.516,409.769 374.579,413.162C374.642,416.555 372.791,419.695 369.791,421.283Z" style="fill:rgb(255,250,255);stroke:rgb(47,57,68);stroke-width:1px;"/><path d="M149.319,430C149.319,424.119 148.832,412.918 149.474,404C149.786,399.673 152,398 152,398L204,360L272,324L371.978,372.265C375.034,373.741 377.001,376.81 377.064,380.203C377.127,383.596 375.516,409.206 375.579,412.599C375.642,415.993 373.791,419.133 370.791,420.721C370.791,420.721 281.359,474.987 270.515,477.146C248.692,481.489 233.457,483.327 188.515,464.146C153.596,449.243 149.319,435.881 149.319,430Z" style="fill:rgb(255,250,255);stroke:rgb(47,57,68);stroke-width:1px;"/><path d="M320,416C320,416 278.844,444.842 268,447C246.177,451.343 230.942,453.181 186,434C135.72,412.541 152,398 152,398L204,360L272,324L371.978,372.265C375.034,373.741 377.001,376.81 377.064,380.203C377.127,383.596 375.276,386.736 372.276,388.324L320,416Z" style="fill:rgb(255,250,255);stroke:rgb(47,57,68);stroke-width:1px;"/><path d="M320,416C320,416 278.844,444.842 268,447C246.177,451.343 230.942,453.181 186,434C135.72,412.541 152,398 152,398L204,360L320,416Z" style="fill:rgb(255,250,255);stroke:rgb(47,57,68);stroke-width:1px;"/><path d="M371.978,372.265C375.034,373.741 377.001,376.81 377.064,380.203C377.127,383.596 375.276,386.736 372.276,388.324C352.192,398.957 320,416 320,416L204,360L272,324C272,324 340.15,356.9 371.978,372.265Z" style="fill:rgb(255,250,255);stroke:rgb(47,57,68);stroke-width:1px;"/><path d="M345.163,180.391C333.93,171.591 317.711,170.734 296,180L296,192L292,162C312.933,163.434 332.239,169.285 345.163,180.391ZM360,204C358.044,197.78 355.494,192.404 352.326,187.971C355.856,192.635 358.482,197.967 360,204Z" style="fill:none;stroke:rgb(47,57,68);stroke-width:1px;"/><path d="M308.013,263.495C308.161,257.318 309.179,196.538 292,196C370.155,171.442 331.002,359.561 328,374L276,348L280,345.789L280,340L316,324L336,292L336,270L312,262L308.013,263.495Z" style="fill:none;stroke:rgb(47,57,68);stroke-width:1px;"/><path d="M200,391C200,401.486 219.716,410 244,410C259.658,410 273.417,406.46 281.216,401.135L328,374C330.973,359.703 369.387,175.129 294.274,195.336C295.398,194.277 296,193.157 296,192L296,180C330.599,165.234 351.251,176.177 360,204C370.158,236.304 364.013,255.905 364,368C364,368 308,394.667 288,404C273.401,410.813 265.111,424 244,424C219.716,424 200,415.934 200,406L200,391ZM200,391L200,390.7L200.005,390.701C200.002,390.8 200,390.9 200,391Z" style="fill:white;stroke:rgb(47,57,68);stroke-width:1px;"/><path d="M204,384L276,348" style="fill:none;stroke:rgb(47,57,68);stroke-width:1px;"/><path d="M316,368L292,360L280,366L304,374L316,368Z" style="fill:white;stroke:rgb(47,57,68);stroke-width:1px;"/><path d="M316,314L316,368L304,374L304,321L316,314Z" style="fill:white;stroke:rgb(47,57,68);stroke-width:1px;"/><path d="M280,366L304,374L304,329L280,322L280,366Z" style="fill:white;stroke:rgb(47,57,68);stroke-width:1px;"/><path d="M284,383.079C286.568,385.491 288,388.174 288,391C288,401.486 268.284,410 244,410C219.716,410 200,401.486 200,391C200,388.174 201.432,385.491 204,383.079L204,390C204,398.831 221.923,406 244,406C266.077,406 284,398.831 284,390L284,383.079Z" style="fill:none;stroke:rgb(47,57,68);stroke-width:1px;"/><g><path d="M283.923,378L284,378L284,390C284,398.831 266.077,406 244,406C221.923,406 204,398.831 204,390L204,378L204.077,378C205.369,386.366 222.763,393 244,393C265.237,393 282.631,386.366 283.923,378Z" style="stroke:rgb(47,57,68);stroke-width:1px;"/><path d="M280,370.022C282.562,372.131 284,374.499 284,377C284,385.831 266.077,393 244,393C221.923,393 204,385.831 204,377C204,374.499 205.438,372.131 208,370.022L208,372C208,380.831 224.131,388 244,388C263.869,388 280,380.831 280,372L280,370.022Z" style="stroke:rgb(47,57,68);stroke-width:1px;"/><ellipse cx="244" cy="368" rx="36" ry="16" style="fill:rgb(255,250,255);stroke:rgb(47,57,68);stroke-width:1px;"/><path d="M280,368L280,372C280,380.831 263.869,388 244,388C224.131,388 208,380.831 208,372L208,368C208,376.831 224.131,384 244,384C263.869,384 280,376.831 280,368Z" style="stroke:rgb(47,57,68);stroke-width:1px;"/><ellipse cx="244" cy="368" rx="36" ry="16" style="stroke:rgb(47,57,68);stroke-width:1px;"/><ellipse cx="243" cy="366" rx="25" ry="10" style="stroke:rgb(47,57,68);stroke-width:1px;"/><ellipse cx="244" cy="370" rx="20" ry="6" style="fill:rgb(105,186,201);stroke:rgb(47,57,68);stroke-width:1px;"/></g><g><path d="M222,348L222,347L222.249,347C222.085,347.325 222,347.659 222,348ZM257.751,347L258,347L258,348C258,347.659 257.915,347.325 257.751,347ZM258,348L258,352C258,355.311 249.934,358 240,358C230.066,358 222,355.311 222,352L222,348C222,351.311 230.066,354 240,354C249.934,354 258,351.311 258,348Z" style="fill:rgb(128,128,128);stroke:rgb(47,57,68);stroke-width:1px;"/><ellipse cx="240" cy="348" rx="18" ry="6" style="fill:rgb(128,128,128);stroke:rgb(47,57,68);stroke-width:1px;"/><path d="M274,326L274,334C274,341.727 258.765,348 240,348C221.235,348 206,341.727 206,334L206,326C206,333.727 221.235,340 240,340C258.765,340 274,333.727 274,326Z" style="stroke:rgb(47,57,68);stroke-width:1px;"/><ellipse cx="240" cy="326" rx="34" ry="14" style="stroke:rgb(47,57,68);stroke-width:1px;"/></g><path d="M336,270L312,262L296,268L320,276L336,270Z" style="stroke:rgb(47,57,68);stroke-width:1px;"/><path d="M320,276L320,288L336,293L336,270L320,276Z" style="stroke:rgb(47,57,68);stroke-width:1px;"/><path d="M296,268L320,276L320,288L296,280L296,268Z" style="stroke:rgb(47,57,68);stroke-width:1px;"/><g><path d="M138,302L138,286L222,254L344,296L344,312L260,348L138,302Z" style="fill:white;stroke:rgb(47,57,68);stroke-width:1px;"/><path d="M344,312L260,348L138,302L222,270L344,312Z" style="fill:white;stroke:rgb(47,57,68);stroke-width:1px;"/><path d="M260,332L344,296L344,312L260,348L260,332Z" style="stroke:rgb(47,57,68);stroke-width:1px;"/><path d="M138,286L138,302L260,348L260,332L138,286Z" style="stroke:rgb(47,57,68);stroke-width:1px;"/><path d="M344,296L260,332L138,286L222,254L344,296Z" style="stroke:rgb(47,57,68);stroke-width:1px;"/></g><path d="M288,299L260,311L192,287L220,275L288,299Z" style="fill:rgb(105,186,201);stroke:rgb(47,57,68);stroke-width:1px;"/><path d="M367.792,361.837C364.145,360.51 352.843,356.934 349.075,355.562C342.333,353.108 340.537,341.011 345.067,328.563C349.598,316.116 358.75,308.003 365.492,310.457C369.139,311.784 380.44,315.36 384.208,316.732C390.951,319.186 392.746,331.283 388.216,343.73C383.686,356.178 374.534,364.291 367.792,361.837Z" style="fill:white;"/><clipPath id="_clip1"><path d="M367.792,361.837C364.145,360.51 352.843,356.934 349.075,355.562C342.333,353.108 340.537,341.011 345.067,328.563C349.598,316.116 358.75,308.003 365.492,310.457C369.139,311.784 380.44,315.36 384.208,316.732C390.951,319.186 392.746,331.283 388.216,343.73C383.686,356.178 374.534,364.291 367.792,361.837Z"/></clipPath><g clip-path="url(#_clip1)"><path d="M432,333L366,361.286L288,334.286L354,306L432,333Z" style="stroke:rgb(47,57,68);stroke-width:1px;"/><path d="M417,333.134L364.75,355.527L303,334.152L355.25,311.759L417,333.134Z" style="stroke:rgb(47,57,68);stroke-width:1px;"/><path d="M402,333.268L363.5,349.768L318,334.018L350.5,315.441L402,333.268Z" style="stroke:rgb(47,57,68);stroke-width:1px;"/><path d="M382,333.446L362.833,342.435L327,330.032L347.167,321.389L382,333.446Z" style="stroke:rgb(47,57,68);stroke-width:1px;"/><path d="M367,333.58L365.583,338.061L342,329.898L344,325.619L367,333.58Z" style="stroke:rgb(47,57,68);stroke-width:1px;"/></g><path d="M367.792,361.837C364.145,360.51 352.843,356.934 349.075,355.562C342.333,353.108 340.537,341.011 345.067,328.563C349.598,316.116 358.75,308.003 365.492,310.457C369.139,311.784 380.44,315.36 384.208,316.732C390.951,319.186 392.746,331.283 388.216,343.73C383.686,356.178 374.534,364.291 367.792,361.837Z" style="fill:none;stroke:rgb(47,57,68);stroke-width:1px;"/><path d="M384.208,316.732C390.951,319.186 392.746,331.283 388.216,343.73C383.686,356.178 374.534,364.291 367.792,361.837C361.049,359.383 359.254,347.285 363.784,334.838C368.314,322.391 377.466,314.278 384.208,316.732Z" style="stroke:rgb(47,57,68);stroke-width:1px;"/><path d="M381.472,324.249C385.621,325.759 386.538,333.722 383.518,342.02C380.497,350.318 374.677,355.829 370.528,354.319C366.379,352.809 365.462,344.846 368.482,336.548C371.503,328.25 377.323,322.739 381.472,324.249Z" style="stroke:rgb(47,57,68);stroke-width:1px;"/><g><path d="M220.921,227.716L216.774,235.849L236.238,245.774L240.385,237.641L220.921,227.716Z" style="fill:rgb(128,128,128);stroke:rgb(47,57,68);stroke-width:1px;"/><path d="M220.097,221.317C220.097,221.317 219.84,221.82 219.495,222.498C218.491,224.466 219.273,226.875 221.241,227.879C226.195,230.405 235.112,234.952 240.066,237.478C242.034,238.481 244.443,237.699 245.446,235.731C245.792,235.053 246.048,234.55 246.048,234.55L220.097,221.317Z" style="stroke:rgb(47,57,68);stroke-width:1px;"/><path d="M218.396,236.676L214.248,244.81L230.468,253.081L234.616,244.947L218.396,236.676Z" style="fill:rgb(128,128,128);stroke:rgb(47,57,68);stroke-width:1px;"/><path d="M214.248,244.81C214.248,244.81 214.248,244.81 214.248,244.811C213.881,245.53 213.815,246.365 214.064,247.132C214.313,247.9 214.857,248.537 215.576,248.903C218.574,250.432 223.377,252.881 226.376,254.41C227.094,254.777 227.929,254.843 228.697,254.593C229.464,254.344 230.101,253.801 230.468,253.082C230.468,253.081 230.468,253.081 230.468,253.081L214.248,244.81Z" style="fill:rgb(128,128,128);stroke:rgb(47,57,68);stroke-width:1px;"/></g><g><rect x="240" y="236" width="24" height="12" style="fill:rgb(128,128,128);stroke:rgb(47,57,68);stroke-width:1px;"/><path d="M236,229L236,232C236,234.209 237.791,236 240,236C246.148,236 257.852,236 264,236C266.209,236 268,234.209 268,232C268,230.432 268,229 268,229L236,229Z" style="stroke:rgb(47,57,68);stroke-width:1px;"/><rect x="242" y="248" width="20" height="12" style="fill:rgb(128,128,128);stroke:rgb(47,57,68);stroke-width:1px;"/><path d="M242,260L242,260.002C242,261.062 242.421,262.079 243.171,262.829C243.921,263.579 244.938,264 245.998,264L258.002,264C259.062,264 260.079,263.579 260.829,262.829C261.579,262.079 262,261.062 262,260.002L262,260L242,260Z" style="fill:rgb(128,128,128);stroke:rgb(47,57,68);stroke-width:1px;"/></g><g><path d="M272.978,230.333L279.475,241.043L300.897,228.049L294.399,217.338L272.978,230.333Z" style="fill:rgb(128,128,128);stroke:rgb(47,57,68);stroke-width:1px;"/><path d="M265.618,226.251C265.618,226.251 266.449,227.621 267.333,229.079C267.883,229.986 268.771,230.637 269.802,230.889C270.832,231.141 271.921,230.974 272.828,230.424C278.322,227.091 289.055,220.58 294.549,217.247C295.456,216.697 296.108,215.809 296.36,214.778C296.612,213.748 296.445,212.659 295.895,211.752C295.011,210.295 294.179,208.924 294.179,208.924L265.618,226.251Z" style="stroke:rgb(47,57,68);stroke-width:1px;"/><path d="M281.26,239.96L287.758,250.671L305.609,239.842L299.111,229.132L281.26,239.96Z" style="fill:rgb(128,128,128);stroke:rgb(47,57,68);stroke-width:1px;"/><path d="M287.758,250.671C287.758,250.671 287.791,250.726 287.849,250.821C288.995,252.71 291.455,253.313 293.343,252.167C296.509,250.247 301.189,247.407 304.355,245.487C306.243,244.341 306.846,241.881 305.7,239.992C305.642,239.897 305.609,239.842 305.609,239.842L287.758,250.671Z" style="fill:rgb(128,128,128);stroke:rgb(47,57,68);stroke-width:1px;"/></g><g><path d="M294.062,196.938L295.724,204.757L295.712,204.759C295.751,204.906 295.787,205.054 295.819,205.204C297.885,214.925 282.031,226.543 260.437,231.133C238.843,235.723 219.633,231.557 217.567,221.837C217.535,221.687 217.508,221.537 217.484,221.387L217.472,221.39L215.81,213.571C217.876,223.292 237.086,227.457 258.68,222.867C280.274,218.277 296.128,206.659 294.062,196.938Z" style="stroke:rgb(47,57,68);stroke-width:1px;"/><path d="M251.192,187.641C272.786,183.051 291.996,187.217 294.062,196.938C296.128,206.659 280.274,218.277 258.68,222.867C237.086,227.457 217.876,223.292 215.81,213.571C213.744,203.85 229.598,192.231 251.192,187.641Z" style="stroke:rgb(47,57,68);stroke-width:1px;"/><path d="M222.323,211.427L218.165,191.864L280.766,178.558L284.924,198.121C286.531,205.679 273.81,214.796 256.534,218.468C239.259,222.14 223.93,218.985 222.323,211.427Z" style="fill:rgb(255,250,255);stroke:rgb(47,57,68);stroke-width:1px;"/><path d="M208,192L208,176L296,176L296,192C296,198.623 276.284,204 252,204C227.716,204 208,198.623 208,192Z" style="fill:white;stroke:rgb(47,57,68);stroke-width:1px;"/><g><path d="M304,176L304,148L292,128L268,136L252,172L252,192L304,176Z" style="fill:rgb(255,250,255);stroke:rgb(47,57,68);stroke-width:1px;"/><path d="M252,172L252,192L196,176L196,156L252,172Z" style="fill:rgb(255,250,255);stroke:rgb(47,57,68);stroke-width:1px;"/><path d="M268,136L252,172L196,156L216,124L268,136Z" style="fill:rgb(255,250,255);stroke:rgb(47,57,68);stroke-width:1px;"/><path d="M292,128L268,136L216,124L240,116L292,128Z" style="fill:rgb(255,250,255);stroke:rgb(47,57,68);stroke-width:1px;"/></g><path d="M187.893,106.127L205.94,129.632C210.555,135.54 218.976,162.248 214.254,170C212.261,173.272 171.119,170.367 164.555,161.965L146.508,138.461C153.072,146.863 167.673,146.44 179.094,137.517C190.515,128.594 194.457,114.529 187.893,106.127Z" style="stroke:rgb(47,57,68);stroke-width:1px;"/><path d="M187.893,106.127C194.457,114.529 190.515,128.594 179.094,137.517C167.673,146.44 153.072,146.863 146.508,138.461C139.944,130.059 143.887,115.994 155.307,107.072C166.728,98.149 181.329,97.726 187.893,106.127Z" style="stroke:rgb(47,57,68);stroke-width:1px;"/><path d="M152.152,134.052C151.126,132.739 147.159,127.877 146.079,126.495C141.566,120.718 144.645,110.761 152.951,104.271C161.257,97.782 171.664,97.203 176.177,102.979C177.202,104.292 181.169,109.154 182.25,110.537C186.763,116.313 183.683,126.271 175.377,132.76C167.071,139.249 156.664,139.828 152.152,134.052Z" style="stroke:rgb(47,57,68);stroke-width:1px;"/><path d="M176.177,102.979C180.69,108.755 177.61,118.713 169.304,125.203C160.999,131.692 150.591,132.271 146.079,126.495C141.566,120.718 144.645,110.761 152.951,104.271C161.257,97.782 171.664,97.203 176.177,102.979Z" style="stroke:rgb(47,57,68);stroke-width:1px;"/><path d="M147.482,122.579C146.656,121.522 143.457,117.608 142.586,116.495C138.951,111.842 141.657,103.645 148.625,98.201C155.593,92.756 164.202,92.114 167.837,96.767C168.663,97.824 171.862,101.737 172.732,102.851C176.367,107.504 173.661,115.701 166.693,121.145C159.725,126.589 151.117,127.232 147.482,122.579Z" style="stroke:rgb(47,57,68);stroke-width:1px;"/><path d="M161.276,77.956L171.606,91.177C177.043,98.136 173.688,109.854 164.12,117.33C154.552,124.805 142.37,125.225 136.933,118.266L126.604,105.045C132.04,112.003 144.222,111.584 153.79,104.108C163.359,96.633 166.713,84.914 161.276,77.956Z" style="stroke:rgb(47,57,68);stroke-width:1px;"/><path d="M161.276,77.956C166.713,84.914 163.359,96.633 153.79,104.108C144.222,111.584 132.04,112.003 126.604,105.045C121.167,98.086 124.521,86.367 134.089,78.892C143.657,71.417 155.839,70.997 161.276,77.956Z" style="stroke:rgb(47,57,68);stroke-width:1px;"/><path d="M156.548,81.65C160.286,86.434 157.671,94.732 150.712,100.168C143.753,105.605 135.069,106.135 131.332,101.351C127.594,96.567 130.209,88.269 137.168,82.832C144.126,77.395 152.81,76.865 156.548,81.65Z" style="stroke:rgb(47,57,68);stroke-width:1px;"/><path d="M155.46,85.51C158.402,89.275 155.914,96.143 149.906,100.837C143.898,105.531 136.633,106.284 133.69,102.518C130.748,98.753 133.237,91.885 139.245,87.191C145.252,82.497 152.518,81.744 155.46,85.51Z" style="fill:rgb(105,186,201);stroke:rgb(47,57,68);stroke-width:1px;"/></g><g><path d="M235.893,117.128L253.94,140.633C260.504,149.034 256.561,163.099 245.14,172.022C233.72,180.945 210.564,179.368 204,170.966L194.508,149.462C201.072,157.864 215.673,157.441 227.094,148.518C238.515,139.595 242.457,125.53 235.893,117.128Z" style="stroke:rgb(47,57,68);stroke-width:1px;"/><path d="M235.893,117.128C242.457,125.53 238.515,139.595 227.094,148.518C215.673,157.441 201.072,157.864 194.508,149.462C187.944,141.06 191.887,126.995 203.307,118.073C214.728,109.15 229.329,108.727 235.893,117.128Z" style="stroke:rgb(47,57,68);stroke-width:1px;"/><path d="M200.152,145.053C199.126,143.74 195.159,138.878 194.079,137.496C189.566,131.719 192.645,121.762 200.951,115.272C209.257,108.783 219.664,108.204 224.177,113.98C225.202,115.293 229.169,120.155 230.25,121.538C234.763,127.314 231.683,137.272 223.377,143.761C215.071,150.25 204.664,150.829 200.152,145.053Z" style="stroke:rgb(47,57,68);stroke-width:1px;"/><path d="M224.177,113.98C228.69,119.756 225.61,129.714 217.304,136.203C208.999,142.693 198.591,143.272 194.079,137.496C189.566,131.719 192.645,121.762 200.951,115.272C209.257,108.783 219.664,108.204 224.177,113.98Z" style="stroke:rgb(47,57,68);stroke-width:1px;"/><path d="M195.482,133.58C194.656,132.523 191.457,128.609 190.586,127.496C186.951,122.843 189.657,114.646 196.625,109.201C203.593,103.757 212.202,103.115 215.837,107.768C216.663,108.825 219.862,112.738 220.732,113.852C224.367,118.505 221.661,126.702 214.693,132.146C207.725,137.59 199.117,138.233 195.482,133.58Z" style="stroke:rgb(47,57,68);stroke-width:1px;"/><path d="M209.276,88.957L219.606,102.178C225.043,109.137 221.688,120.855 212.12,128.331C202.552,135.806 190.37,136.226 184.933,129.267L174.604,116.046C180.04,123.004 192.222,122.585 201.79,115.109C211.359,107.634 214.713,95.915 209.276,88.957Z" style="stroke:rgb(47,57,68);stroke-width:1px;"/><path d="M209.276,88.957C214.713,95.915 211.359,107.634 201.79,115.109C192.222,122.585 180.04,123.004 174.604,116.046C169.167,109.087 172.521,97.368 182.089,89.893C191.657,82.417 203.839,81.998 209.276,88.957Z" style="stroke:rgb(47,57,68);stroke-width:1px;"/><path d="M204.548,92.65C208.286,97.435 205.671,105.733 198.712,111.169C191.753,116.606 183.069,117.136 179.332,112.352C175.594,107.568 178.209,99.27 185.168,93.833C192.126,88.396 200.81,87.866 204.548,92.65Z" style="stroke:rgb(47,57,68);stroke-width:1px;"/><path d="M203.46,96.511C206.402,100.276 203.914,107.144 197.906,111.838C191.898,116.531 184.633,117.285 181.69,113.519C178.748,109.753 181.237,102.886 187.245,98.192C193.252,93.498 200.518,92.745 203.46,96.511Z" style="fill:rgb(105,186,201);stroke:rgb(47,57,68);stroke-width:1px;"/></g></svg>