<?xml version="1.0" encoding="UTF-8" standalone="no"?><!DOCTYPE svg PUBLIC "-//W3C//DTD SVG 1.1//EN" "http://www.w3.org/Graphics/SVG/1.1/DTD/svg11.dtd"><svg width="100%" height="100%" viewBox="0 0 30 30" version="1.1" xmlns="http://www.w3.org/2000/svg" xmlns:xlink="http://www.w3.org/1999/xlink" xml:space="preserve" xmlns:serif="http://www.serif.com/" style="fill-rule:evenodd;clip-rule:evenodd;stroke-linecap:round;stroke-linejoin:round;stroke-miterlimit:1.5;"><rect id="settings" x="0" y="0" width="30" height="30" style="fill:none;"/><clipPath id="_clip1"><rect x="0" y="0" width="30" height="30"/></clipPath><g clip-path="url(#_clip1)"><path d="M29,18L15.5,18" style="fill:none;stroke:rgb(235,235,235);stroke-width:2px;"/><path d="M29,23L15.5,23" style="fill:none;stroke:rgb(235,235,235);stroke-width:2px;"/><path d="M29,28L15.5,28" style="fill:none;stroke:rgb(235,235,235);stroke-width:2px;"/><circle cx="24" cy="18" r="2" style="fill:rgb(203,203,203);"/><path d="M13,22C13.552,22 14,22.448 14,23C14,23.322 14,23.678 14,24C14,24.552 13.552,25 13,25C10.74,25 5.26,25 3,25C2.735,25 2.48,24.895 2.293,24.707C2.105,24.52 2,24.265 2,24C2,20.586 2,9.414 2,6C2,5.735 2.105,5.48 2.293,5.293C2.48,5.105 2.735,5 3,5C7.134,5 22.866,5 27,5C27.552,5 28,5.448 28,6C28,7.916 28,12.084 28,14C28,14.552 27.552,15 27,15C26.719,15 26.426,15 26.193,15C25.904,15 25.63,14.875 25.44,14.657C25.098,14.245 24.577,14 24,14C23.423,14 22.902,14.245 22.537,14.637C22.353,14.848 22.087,14.969 21.807,14.969C20.482,15 16.679,15 15.414,15C15.149,15 14.895,15.105 14.707,15.293C14.577,15.423 14.423,15.577 14.293,15.707C14.105,15.895 13.851,16 13.586,16L13.333,16C13.117,16 12.906,15.93 12.733,15.8C12.098,15.324 10.483,14.113 9.6,13.45C9.244,13.183 8.756,13.183 8.4,13.45C7.573,14.07 6.105,15.171 5.4,15.7C5.148,15.889 5,16.185 5,16.5C5,17.487 5,19.702 5,21C5,21.265 5.105,21.52 5.293,21.707C5.48,21.895 5.735,22 6,22C7.732,22 11.268,22 13,22ZM23,8C21.896,8 21,8.896 21,10C21,11.104 21.896,12 23,12C24.104,12 25,11.104 25,10C25,8.896 24.104,8 23,8Z" style="fill:rgb(203,203,203);"/><circle cx="19" cy="23" r="2" style="fill:rgb(203,203,203);"/><circle cx="26" cy="28" r="2" style="fill:rgb(203,203,203);"/></g></svg>