<?xml version="1.0" encoding="UTF-8" standalone="no"?><!DOCTYPE svg PUBLIC "-//W3C//DTD SVG 1.1//EN" "http://www.w3.org/Graphics/SVG/1.1/DTD/svg11.dtd"><svg width="100%" height="100%" viewBox="0 0 512 512" version="1.1" xmlns="http://www.w3.org/2000/svg" xmlns:xlink="http://www.w3.org/1999/xlink" xml:space="preserve" xmlns:serif="http://www.serif.com/" style="fill-rule:evenodd;clip-rule:evenodd;stroke-linecap:round;stroke-linejoin:round;stroke-miterlimit:1.5;"><rect id="ArtBoard1" x="0" y="0" width="512" height="512" style="fill:none;"/><path d="M384.772,68.46L388.188,65.044C389.105,64.127 389.62,62.883 389.62,61.587C389.62,60.29 389.105,59.047 388.188,58.13L377.817,47.759C376.9,46.842 376.385,45.599 376.385,44.302C376.385,43.005 376.9,41.762 377.817,40.845L381.315,37.347C383.224,35.438 386.32,35.438 388.229,37.347L422.799,71.916L443.443,51.272C443.13,51.082 442.796,50.926 442.446,50.81L436.512,48.832C434.516,48.167 433.17,46.298 433.17,44.194L433.17,43.825C433.17,41.973 434.216,40.281 435.872,39.453L443.846,35.466C445.728,34.525 448.001,34.894 449.489,36.381L479.075,65.968C480.563,67.456 480.932,69.729 479.991,71.611L476.004,79.585C475.176,81.241 473.483,82.287 471.632,82.287L471.263,82.287C469.159,82.287 467.29,80.941 466.625,78.944L464.647,73.011C464.531,72.661 464.375,72.327 464.185,72.014L443.54,92.658L474.653,123.771C476.562,125.68 476.562,128.776 474.653,130.685L471.155,134.183C470.238,135.1 468.995,135.615 467.698,135.615C466.401,135.615 465.158,135.1 464.241,134.183L445.186,115.128C443.364,113.306 440.892,112.282 438.314,112.282C435.736,112.282 433.264,113.306 431.441,115.128L429.76,113.447C430.677,114.364 431.192,115.608 431.192,116.905C431.191,118.202 430.676,119.445 429.759,120.362L270.692,279.336C268.783,281.245 265.688,281.244 263.779,279.335L260.321,275.878L215.381,320.818C214.464,321.735 213.22,322.25 211.924,322.25C210.627,322.25 209.384,321.735 208.467,320.818L205.01,317.361L191.256,331.115C190.339,332.032 189.096,332.547 187.799,332.547C186.502,332.547 185.259,332.032 184.342,331.115L163.6,310.373C162.683,309.456 162.168,308.213 162.168,306.916C162.168,305.619 162.683,304.376 163.6,303.459L177.354,289.705C176.437,288.789 175.922,287.545 175.922,286.248C175.922,284.952 176.437,283.708 177.354,282.791L218.838,241.308L215.333,237.803C213.443,235.913 213.421,232.854 215.285,230.938L334.646,108.215L332.914,106.483C331.999,105.566 331.486,104.324 331.486,103.029C331.486,101.733 332.001,100.489 332.918,99.572L370.944,61.546C371.861,60.629 373.105,60.114 374.401,60.114C375.698,60.114 376.941,60.629 377.858,61.546L384.772,68.46ZM118.586,362.302C117.669,361.385 117.154,360.141 117.154,358.845C117.154,357.548 117.669,356.305 118.586,355.388L163.526,310.447L184.268,331.189L139.327,376.13C138.411,377.046 137.167,377.561 135.87,377.561C134.574,377.561 133.33,377.046 132.413,376.13L128.957,372.673L122.043,379.586L123.807,381.351C124.762,382.306 124.762,383.853 123.807,384.808L99.608,409.007C98.655,409.96 97.109,409.961 96.155,409.01L36.946,447.321C35.897,448 34.504,447.778 33.717,446.806C32.931,445.833 33.006,444.425 33.89,443.54L82.287,395.143C81.333,394.188 81.333,392.64 82.287,391.686L106.486,367.487C107.441,366.533 108.989,366.533 109.943,367.487L111.672,369.216L118.586,362.302Z" style="fill:rgb(191,191,191);fill-opacity:0.29;stroke:rgb(47,57,68);stroke-width:4px;"/><path d="M249.024,264.58L260.321,275.878L215.381,320.818C214.464,321.735 213.22,322.25 211.924,322.25C210.627,322.25 209.384,321.735 208.467,320.818L177.354,289.705C176.437,288.789 175.922,287.545 175.922,286.248C175.922,284.952 176.437,283.708 177.354,282.791L218.838,241.308L239.579,262.05C241.413,263.883 243.9,264.913 246.493,264.913C247.355,264.913 248.206,264.8 249.024,264.58Z" style="fill:rgb(191,191,191);fill-opacity:0.29;stroke:rgb(47,57,68);stroke-width:2px;"/><path d="M249.024,264.58L256.864,272.421L211.924,317.361L180.811,286.248L222.295,244.765L239.579,262.05C241.413,263.883 243.9,264.913 246.493,264.913C247.355,264.913 248.206,264.8 249.024,264.58Z" style="fill:rgb(191,191,191);fill-opacity:0.29;stroke:rgb(47,57,68);stroke-width:1px;"/><path d="M334.646,108.215L332.918,106.486C332.001,105.569 331.486,104.326 331.486,103.029C331.486,101.733 332.001,100.489 332.918,99.572L370.944,61.546C371.861,60.629 373.105,60.114 374.401,60.114C375.698,60.114 376.941,60.629 377.858,61.546L429.76,113.447C430.677,114.364 431.192,115.608 431.192,116.905C431.191,118.202 430.676,119.445 429.759,120.362L270.692,279.336C268.783,281.245 265.688,281.244 263.779,279.335L249.024,264.58C250.668,264.14 252.183,263.274 253.407,262.05L360.573,154.884C366.301,149.156 366.301,139.87 360.573,134.142L334.646,108.215Z" style="fill:rgb(191,191,191);fill-opacity:0.29;stroke:rgb(47,57,68);stroke-width:2px;"/><path d="M332.914,106.483C331.999,105.566 331.486,104.324 331.486,103.029C331.486,101.733 332.001,100.489 332.918,99.572L370.944,61.546C371.861,60.629 373.105,60.114 374.401,60.114C375.696,60.114 376.938,60.627 377.855,61.542L332.914,106.483Z" style="fill:rgb(191,191,191);fill-opacity:0.29;stroke:rgb(47,57,68);stroke-width:1px;"/><path d="M416.089,120.109L426.256,109.943L429.76,113.447C430.677,114.364 431.192,115.608 431.192,116.905C431.191,118.202 430.676,119.445 429.759,120.362L270.692,279.336C268.783,281.245 265.688,281.244 263.779,279.335L260.321,275.878L263.729,272.47L265.457,274.198L417.818,121.838L416.089,120.109Z" style="fill:rgb(191,191,191);fill-opacity:0.29;stroke:rgb(47,57,68);stroke-width:2px;"/><path d="M388.816,64.415C390.379,62.853 390.378,60.32 388.816,58.758C385.606,55.548 380.399,50.341 377.188,47.13C375.626,45.568 375.626,43.036 377.188,41.473C378.665,39.997 380.467,38.195 381.944,36.718C382.694,35.968 383.711,35.547 384.772,35.547C385.833,35.547 386.85,35.968 387.6,36.718C401.393,50.511 461.489,110.607 475.282,124.4C476.032,125.15 476.453,126.167 476.453,127.228C476.453,128.289 476.032,129.306 475.282,130.056C473.805,131.533 472.003,133.335 470.527,134.812C469.776,135.562 468.759,135.983 467.698,135.983C466.637,135.983 465.62,135.562 464.87,134.812C460.067,130.009 450.23,120.172 443.971,113.913C442.47,112.412 440.436,111.569 438.314,111.569C436.192,111.569 434.157,112.412 432.657,113.913C431.935,114.635 431.441,115.129 431.441,115.129L384.772,68.46C384.772,68.46 386.922,66.31 388.816,64.415Z" style="fill:rgb(191,191,191);fill-opacity:0.29;stroke:rgb(47,57,68);stroke-width:2px;"/><path d="M448.643,111.671C436.627,99.572 426.256,109.943 426.256,109.943L402.057,85.744L405.514,82.287C407.322,80.458 408.337,77.988 408.337,75.415L408.147,73.498C408.022,72.872 407.836,72.26 407.592,71.673C407.106,70.498 406.39,69.418 405.473,68.501C405.473,68.501 387.888,50.856 382.724,45.675C381.946,44.894 381.947,43.629 382.727,42.849C382.935,42.641 383.15,42.426 383.358,42.218C384.139,41.437 385.405,41.437 386.186,42.218C396.459,52.491 459.509,115.541 469.782,125.814C470.563,126.595 470.563,127.861 469.782,128.642C469.561,128.863 469.333,129.091 469.112,129.312C468.331,130.093 467.065,130.093 466.284,129.312C461.87,124.898 448.643,111.671 448.643,111.671Z" style="fill:rgb(191,191,191);fill-opacity:0.29;stroke:rgb(47,57,68);stroke-width:1px;"/><path d="M464.282,71.916L443.54,92.658L422.799,71.916L443.54,51.175L464.282,71.916Z" style="fill:rgb(191,191,191);fill-opacity:0.29;stroke:rgb(47,57,68);stroke-width:2px;"/><path d="M460.825,68.46L440.084,89.201L426.256,75.373L446.997,54.632L460.825,68.46Z" style="fill:rgb(191,191,191);fill-opacity:0.29;stroke:rgb(47,57,68);stroke-width:1px;"/><path d="M479.529,66.421C480.746,67.638 481.048,69.498 480.278,71.038C478.977,73.64 476.99,77.614 475.759,80.076C475.081,81.431 473.696,82.287 472.181,82.287C471.676,82.287 471.14,82.287 470.622,82.287C468.901,82.287 467.372,81.186 466.828,79.552C466.083,77.318 465.075,74.295 464.581,72.812C464.385,72.223 464.054,71.688 463.615,71.249C460.49,68.124 447.333,54.967 444.208,51.842C443.769,51.403 443.234,51.072 442.645,50.876C441.162,50.382 438.139,49.374 435.905,48.629C434.271,48.085 433.17,46.556 433.17,44.835C433.17,44.317 433.17,43.781 433.17,43.276C433.17,41.761 434.026,40.376 435.381,39.698C437.843,38.467 441.817,36.48 444.419,35.179C445.959,34.409 447.819,34.711 449.036,35.928C453.608,40.5 474.957,61.849 479.529,66.421Z" style="fill:rgb(173,179,77);fill-opacity:0.29;stroke:rgb(47,57,68);stroke-width:2px;"/><path d="M474.219,68.025C474.485,68.292 474.579,68.685 474.462,69.043C474.033,70.354 472.969,73.606 472.181,76.013C472.047,76.423 471.665,76.7 471.234,76.702C470.803,76.704 470.42,76.429 470.282,76.021C469.383,73.346 468.13,69.622 467.814,68.682C467.765,68.536 467.682,68.403 467.573,68.294C465.725,66.445 449.018,49.738 447.164,47.885C447.055,47.775 446.921,47.692 446.773,47.643C445.834,47.33 442.133,46.096 439.473,45.209C439.064,45.073 438.789,44.691 438.789,44.261C438.789,43.83 439.064,43.448 439.473,43.312C441.866,42.514 445.102,41.436 446.411,40.999C446.77,40.879 447.167,40.973 447.434,41.241C450.679,44.485 470.983,64.79 474.219,68.025Z" style="fill:rgb(173,179,77);fill-opacity:0.29;stroke:rgb(47,57,68);stroke-width:1px;"/><path d="M362.459,136.027C364.709,138.278 365.974,141.33 365.974,144.513C365.974,147.695 364.709,150.748 362.459,152.998C338.712,176.745 272.022,243.435 252.15,263.307C249.026,266.431 243.961,266.431 240.837,263.307C233.333,255.804 220.379,242.85 214.713,237.183C213.166,235.637 213.149,233.134 214.674,231.566C232.823,212.906 334.646,108.215 334.646,108.215C334.646,108.215 351.732,125.3 362.459,136.027Z" style="fill:rgb(191,191,191);fill-opacity:0.29;stroke:rgb(47,57,68);stroke-width:2px;"/><path d="M358.373,138.856C359.874,140.356 360.717,142.391 360.717,144.513C360.717,146.635 359.874,148.669 358.373,150.17C337.414,171.129 264.606,243.937 249.322,259.221C247.76,260.783 245.227,260.783 243.665,259.221C236.617,252.174 218.838,234.394 218.838,234.394L334.646,115.129C334.646,115.129 349.836,130.319 358.373,138.856Z" style="fill:rgb(191,191,191);fill-opacity:0.29;stroke:rgb(47,57,68);stroke-width:1px;"/><path d="M205.084,317.287C205.084,317.287 195.529,326.842 190.627,331.743C189.065,333.306 186.533,333.306 184.971,331.743C179.665,326.438 168.277,315.05 162.972,309.745C161.41,308.182 161.41,305.65 162.972,304.088C167.873,299.186 177.428,289.631 177.428,289.631L205.084,317.287Z" style="fill:rgb(191,191,191);fill-opacity:0.29;stroke:rgb(47,57,68);stroke-width:2px;"/><path d="M201.627,313.83L187.527,327.93L166.785,307.188L180.885,293.088L201.627,313.83Z" style="fill:rgb(191,191,191);fill-opacity:0.29;stroke:rgb(47,57,68);stroke-width:1px;"/><path d="M184.268,331.189C184.268,331.189 149.05,366.407 138.699,376.758C137.949,377.508 136.931,377.93 135.87,377.93C134.81,377.93 133.792,377.508 133.042,376.758C129.08,372.796 121.919,365.635 117.957,361.673C117.207,360.923 116.786,359.906 116.786,358.845C116.786,357.784 117.207,356.766 117.957,356.016C128.308,345.665 163.526,310.447 163.526,310.447L184.268,331.189Z" style="fill:rgb(191,191,191);fill-opacity:0.29;stroke:rgb(47,57,68);stroke-width:2px;"/><path d="M180.811,327.732L135.87,372.673L122.043,358.845L166.983,313.904L180.811,327.732Z" style="fill:rgb(191,191,191);fill-opacity:0.29;stroke:rgb(47,57,68);stroke-width:1px;"/><path d="M128.957,372.673L122.043,379.586L111.672,369.216L118.586,362.302L128.957,372.673Z" style="fill:rgb(191,191,191);fill-opacity:0.29;stroke:rgb(47,57,68);stroke-width:2px;"/><path d="M124.121,381.665C124.902,382.446 124.902,383.713 124.121,384.494C119.374,389.241 104.041,404.574 99.294,409.321C98.513,410.102 97.247,410.102 96.466,409.321C93.212,406.067 85.227,398.082 81.973,394.829C81.192,394.048 81.192,392.781 81.973,392C86.72,387.253 102.053,371.92 106.801,367.173C107.582,366.392 108.848,366.392 109.629,367.173C112.882,370.426 120.868,378.412 124.121,381.665Z" style="fill:rgb(105,186,201);fill-opacity:0.29;stroke:rgb(47,57,68);stroke-width:2px;"/><path d="M96.155,409.01L36.946,447.321C35.897,448 34.504,447.778 33.717,446.806C32.931,445.833 33.006,444.425 33.89,443.54L82.287,395.143L96.155,409.01Z" style="fill:rgb(105,186,201);fill-opacity:0.29;stroke:rgb(47,57,68);stroke-width:2px;"/><path d="M94.387,407.242L35.618,445.269L84.016,396.871L94.387,407.242Z" style="fill:rgb(105,186,201);fill-opacity:0.29;stroke:rgb(47,57,68);stroke-width:1px;"/><path d="M118.586,383.043L97.844,403.785L87.473,393.414L108.215,372.673L118.586,383.043Z" style="fill:rgb(105,186,201);fill-opacity:0.29;stroke:rgb(47,57,68);stroke-width:1px;"/><path d="M127.228,370.944L120.314,377.858L113.4,370.944L120.314,364.03L127.228,370.944Z" style="fill:rgb(191,191,191);fill-opacity:0.29;stroke:rgb(47,57,68);stroke-width:2px;"/><path d="M350.166,123.735L384.941,88.961L417.818,121.838L265.457,274.198L253.358,262.099C253.374,262.082 253.391,262.066 253.407,262.05L360.573,154.884C366.301,149.156 366.301,139.87 360.573,134.142L350.166,123.735Z" style="fill:rgb(173,179,77);fill-opacity:0.29;stroke:rgb(47,57,68);stroke-width:2px;"/><path d="M274.149,241.308L286.249,253.407L275.878,263.778L263.778,251.679L274.149,241.308Z" style="fill:rgb(173,179,77);fill-opacity:0.29;stroke:rgb(47,57,68);stroke-width:1px;"/><path d="M295.734,219.723L307.833,231.822L296.619,243.036L284.52,230.937L295.734,219.723Z" style="fill:rgb(173,179,77);fill-opacity:0.29;stroke:rgb(47,57,68);stroke-width:1px;"/><path d="M314.79,200.667L326.889,212.767L317.361,222.295L305.262,210.195L314.79,200.667Z" style="fill:rgb(173,179,77);fill-opacity:0.29;stroke:rgb(47,57,68);stroke-width:1px;"/><path d="M333.845,181.612L345.945,193.711L336.417,203.239L324.317,191.14L333.845,181.612Z" style="fill:rgb(173,179,77);fill-opacity:0.29;stroke:rgb(47,57,68);stroke-width:1px;"/><path d="M352.901,162.556L365,174.656L355.472,184.183L343.373,172.084L352.901,162.556Z" style="fill:rgb(173,179,77);fill-opacity:0.29;stroke:rgb(47,57,68);stroke-width:1px;"/><path d="M352.406,125.974L351.214,122.759L384.056,155.6L374.528,165.128L362.428,153.028L362.459,152.998C364.709,150.748 365.974,147.695 365.974,144.513C365.974,141.33 364.709,138.278 362.459,136.027L352.406,125.974Z" style="fill:rgb(173,179,77);fill-opacity:0.29;stroke:rgb(47,57,68);stroke-width:1px;"/><path d="M370.27,103.703L403.111,136.545L393.583,146.072L360.742,113.231L370.27,103.703Z" style="fill:rgb(173,179,77);fill-opacity:0.29;stroke:rgb(47,57,68);stroke-width:1px;"/><path d="M384.941,88.961L417.818,121.838L412.639,127.017L379.798,94.176L384.941,88.961Z" style="fill:rgb(173,179,77);fill-opacity:0.29;stroke:rgb(47,57,68);stroke-width:1px;"/><path d="M385.993,76.595C389.117,79.719 389.117,84.784 385.993,87.908C374.642,99.259 350.166,123.735 350.166,123.735L332.914,106.483L374.398,64.999C374.398,64.999 380.963,71.564 385.993,76.595Z" style="fill:rgb(191,191,191);fill-opacity:0.29;stroke:rgb(47,57,68);stroke-width:2px;"/><path d="M381.944,79.459C382.694,80.209 383.115,81.227 383.115,82.287C383.115,83.348 382.694,84.366 381.944,85.116C375.194,91.865 358.337,108.722 353.345,113.714C352.564,114.495 351.298,114.495 350.517,113.714C346.992,110.19 338.1,101.297 338.1,101.297L370.941,68.456C370.941,68.456 377.898,75.413 381.944,79.459Z" style="fill:rgb(191,191,191);fill-opacity:0.29;stroke:rgb(47,57,68);stroke-width:1px;"/></svg>