<?xml version="1.0" encoding="UTF-8" standalone="no"?><!DOCTYPE svg PUBLIC "-//W3C//DTD SVG 1.1//EN" "http://www.w3.org/Graphics/SVG/1.1/DTD/svg11.dtd"><svg width="100%" height="100%" viewBox="0 0 30 30" version="1.1" xmlns="http://www.w3.org/2000/svg" xmlns:xlink="http://www.w3.org/1999/xlink" xml:space="preserve" xmlns:serif="http://www.serif.com/" style="fill-rule:evenodd;clip-rule:evenodd;stroke-linecap:round;stroke-linejoin:round;stroke-miterlimit:1.5;"><rect id="png" x="0" y="0" width="30" height="30" style="fill:none;"/><path d="M7,21L7,4L18,4L23,9L23,21L7,21Z" style="fill:rgb(235,235,235);stroke:rgb(235,235,235);stroke-width:2px;"/><circle cx="11" cy="9" r="1" style="fill:rgb(235,235,235);stroke:rgb(203,203,203);stroke-width:2px;"/><path d="M23,21L7,21L7,20L13,14.5L15.5,17.5L20,12.5L23,15L23,21Z" style="fill:rgb(203,203,203);stroke:rgb(203,203,203);stroke-width:2px;"/><rect x="7" y="21" width="16" height="5" style="fill:rgb(235,235,235);stroke:rgb(235,235,235);stroke-width:2px;"/><path d="M9,24.346L9.837,24.253C9.888,24.574 9.99,24.81 10.144,24.96C10.298,25.11 10.506,25.186 10.768,25.186C11.045,25.186 11.254,25.119 11.394,24.985C11.535,24.851 11.605,24.695 11.605,24.515C11.605,24.4 11.576,24.302 11.517,24.222C11.457,24.141 11.354,24.071 11.207,24.011C11.106,23.971 10.876,23.9 10.518,23.799C10.056,23.668 9.733,23.508 9.547,23.318C9.285,23.05 9.154,22.724 9.154,22.339C9.154,22.091 9.216,21.859 9.339,21.644C9.462,21.428 9.639,21.264 9.871,21.151C10.102,21.038 10.382,20.982 10.71,20.982C11.245,20.982 11.647,21.115 11.918,21.383C12.188,21.651 12.33,22.008 12.344,22.455L11.483,22.498C11.446,22.248 11.367,22.068 11.246,21.959C11.125,21.849 10.943,21.794 10.701,21.794C10.451,21.794 10.255,21.853 10.114,21.97C10.023,22.046 9.977,22.146 9.977,22.272C9.977,22.387 10.02,22.486 10.105,22.568C10.213,22.672 10.477,22.78 10.896,22.893C11.315,23.006 11.624,23.122 11.825,23.243C12.025,23.363 12.182,23.528 12.296,23.737C12.409,23.946 12.466,24.205 12.466,24.512C12.466,24.791 12.398,25.052 12.262,25.295C12.127,25.538 11.935,25.719 11.687,25.838C11.439,25.956 11.129,26.015 10.759,26.015C10.22,26.015 9.806,25.873 9.518,25.589C9.229,25.305 9.056,24.89 9,24.346Z" style="fill:rgb(203,203,203);fill-rule:nonzero;"/><path d="M14.277,25.929L12.754,21.065L13.687,21.065L14.766,24.665L15.81,21.065L16.723,21.065L15.196,25.929L14.277,25.929Z" style="fill:rgb(203,203,203);fill-rule:nonzero;"/><path d="M19.145,24.14L19.145,23.321L21,23.321L21,25.259C20.82,25.458 20.559,25.633 20.216,25.785C19.874,25.936 19.528,26.012 19.177,26.012C18.731,26.012 18.342,25.905 18.011,25.692C17.679,25.478 17.43,25.173 17.264,24.776C17.097,24.379 17.014,23.947 17.014,23.48C17.014,22.974 17.107,22.523 17.293,22.13C17.479,21.736 17.751,21.434 18.11,21.224C18.383,21.062 18.723,20.982 19.13,20.982C19.66,20.982 20.073,21.108 20.37,21.361C20.668,21.615 20.859,21.965 20.945,22.412L20.09,22.594C20.03,22.355 19.917,22.167 19.751,22.028C19.585,21.89 19.378,21.821 19.13,21.821C18.754,21.821 18.455,21.957 18.233,22.229C18.011,22.501 17.9,22.905 17.9,23.44C17.9,24.018 18.013,24.451 18.238,24.739C18.463,25.028 18.757,25.172 19.122,25.172C19.302,25.172 19.483,25.132 19.664,25.051C19.845,24.97 20.001,24.873 20.131,24.758L20.131,24.14L19.145,24.14Z" style="fill:rgb(203,203,203);fill-rule:nonzero;"/></svg>