<?xml version="1.0" encoding="UTF-8" standalone="no"?><!DOCTYPE svg PUBLIC "-//W3C//DTD SVG 1.1//EN" "http://www.w3.org/Graphics/SVG/1.1/DTD/svg11.dtd"><svg width="100%" height="100%" viewBox="0 0 30 30" version="1.1" xmlns="http://www.w3.org/2000/svg" xmlns:xlink="http://www.w3.org/1999/xlink" xml:space="preserve" xmlns:serif="http://www.serif.com/" style="fill-rule:evenodd;clip-rule:evenodd;stroke-linecap:round;stroke-linejoin:round;stroke-miterlimit:1.5;"><rect id="png" x="0" y="0" width="30" height="30" style="fill:none;"/><path d="M7,21L7,4L18,4L23,9L23,21L7,21Z" style="fill:rgb(235,235,235);stroke:rgb(235,235,235);stroke-width:2px;"/><circle cx="11" cy="9" r="1" style="fill:rgb(235,235,235);stroke:rgb(203,203,203);stroke-width:2px;"/><path d="M23,21L7,21L7,20L13,14.5L15.5,17.5L20,12.5L23,15L23,21Z" style="fill:rgb(203,203,203);stroke:rgb(203,203,203);stroke-width:2px;"/><rect x="7" y="21" width="16" height="5" style="fill:rgb(235,235,235);stroke:rgb(235,235,235);stroke-width:2px;"/><path d="M8.974,25.918L8.974,21.082L10.347,21.082C10.867,21.082 11.206,21.107 11.364,21.155C11.607,21.228 11.81,21.385 11.974,21.628C12.138,21.871 12.22,22.185 12.22,22.57C12.22,22.867 12.172,23.116 12.078,23.319C11.984,23.521 11.864,23.68 11.718,23.795C11.573,23.911 11.425,23.987 11.275,24.024C11.07,24.071 10.775,24.094 10.387,24.094L9.829,24.094L9.829,25.918L8.974,25.918ZM9.829,21.9L9.829,23.272L10.298,23.272C10.635,23.272 10.86,23.247 10.974,23.197C11.088,23.146 11.177,23.067 11.241,22.959C11.306,22.851 11.338,22.726 11.338,22.583C11.338,22.407 11.293,22.262 11.202,22.148C11.112,22.033 10.997,21.962 10.858,21.933C10.756,21.911 10.551,21.9 10.243,21.9L9.829,21.9Z" style="fill:rgb(203,203,203);fill-rule:nonzero;"/><path d="M12.931,25.918L12.931,21.082L13.763,21.082L15.497,24.311L15.497,21.082L16.292,21.082L16.292,25.918L15.434,25.918L13.725,22.765L13.725,25.918L12.931,25.918Z" style="fill:rgb(203,203,203);fill-rule:nonzero;"/><path d="M19.168,24.14L19.168,23.325L21.012,23.325L21.012,25.251C20.832,25.449 20.573,25.623 20.233,25.774C19.893,25.925 19.548,26 19.199,26C18.756,26 18.37,25.894 18.04,25.682C17.711,25.47 17.463,25.166 17.298,24.771C17.132,24.377 17.049,23.947 17.049,23.484C17.049,22.98 17.142,22.533 17.327,22.141C17.512,21.75 17.782,21.45 18.139,21.241C18.41,21.08 18.749,21 19.153,21C19.679,21 20.09,21.126 20.386,21.378C20.682,21.629 20.872,21.977 20.957,22.422L20.107,22.603C20.047,22.365 19.935,22.178 19.77,22.041C19.605,21.903 19.4,21.834 19.153,21.834C18.779,21.834 18.482,21.97 18.262,22.24C18.041,22.511 17.931,22.912 17.931,23.444C17.931,24.018 18.042,24.448 18.266,24.735C18.489,25.022 18.782,25.166 19.145,25.166C19.324,25.166 19.503,25.125 19.684,25.045C19.864,24.965 20.018,24.868 20.147,24.753L20.147,24.14L19.168,24.14Z" style="fill:rgb(203,203,203);fill-rule:nonzero;"/></svg>