<?xml version="1.0" encoding="UTF-8" standalone="no"?><!DOCTYPE svg PUBLIC "-//W3C//DTD SVG 1.1//EN" "http://www.w3.org/Graphics/SVG/1.1/DTD/svg11.dtd"><svg width="100%" height="100%" viewBox="0 0 512 512" version="1.1" xmlns="http://www.w3.org/2000/svg" xmlns:xlink="http://www.w3.org/1999/xlink" xml:space="preserve" xmlns:serif="http://www.serif.com/" style="fill-rule:evenodd;clip-rule:evenodd;stroke-linecap:round;stroke-linejoin:round;stroke-miterlimit:1.5;"><rect id="ArtBoard1" x="0" y="0" width="512" height="512" style="fill:none;"/><path d="M400,172L376,136L360,124L356,124L344,136L328,136L332,164L344,176L368,176L400,200L400,172Z" style="fill:rgb(234,244,255);fill-opacity:0.3;stroke:rgb(47,57,68);stroke-width:2px;"/><path d="M328,120L344,120L356,108L360,108L376,120L400,156L400,200L368,176L344,176L332,164L328,136L328,120Z" style="fill:rgb(234,244,255);fill-opacity:0.3;stroke:rgb(47,57,68);stroke-width:4px;"/><path d="M356,108L360,108L360,123.869L356,124L356,108Z" style="fill:rgb(234,244,255);fill-opacity:0.3;stroke:rgb(47,57,68);stroke-width:1px;"/><path d="M376,120L360,108L360,123.869L376,136L376,120Z" style="fill:rgb(234,244,255);fill-opacity:0.3;stroke:rgb(47,57,68);stroke-width:1px;"/><path d="M400,156L376,120L376,136L400,172L400,156Z" style="fill:rgb(234,244,255);fill-opacity:0.3;stroke:rgb(47,57,68);stroke-width:1px;"/><path d="M356,108L356,123.869L344,136L344,120L356,108Z" style="fill:rgb(234,244,255);fill-opacity:0.3;stroke:rgb(47,57,68);stroke-width:1px;"/><rect x="328" y="120" width="16" height="16" style="fill:rgb(234,244,255);fill-opacity:0.3;stroke:rgb(47,57,68);stroke-width:1px;"/><path d="M332,148L332.023,164L328,136L328,120L332,148Z" style="fill:rgb(234,244,255);fill-opacity:0.3;stroke:rgb(47,57,68);stroke-width:1px;"/><path d="M344,160L344,176L332.023,164.023L332.023,148.023L344,160Z" style="fill:rgb(234,244,255);fill-opacity:0.3;stroke:rgb(47,57,68);stroke-width:1px;"/><rect x="344" y="160" width="24" height="16" style="fill:rgb(234,244,255);fill-opacity:0.3;stroke:rgb(47,57,68);stroke-width:1px;"/><path d="M400,200L400,184L368,160L368,176L400,200Z" style="fill:rgb(234,244,255);fill-opacity:0.3;stroke:rgb(47,57,68);stroke-width:1px;"/><path d="M400,156L376,120L360,108L356,108L344,120L328,120L332,148L344,160L368,160L400,184L400,156Z" style="fill:rgb(234,244,255);fill-opacity:0.3;stroke:rgb(47,57,68);stroke-width:2px;"/><path d="M304,112L272,112L224,172L228,176L276,152L276,140L288,140L304,112Z" style="fill:rgb(234,244,255);fill-opacity:0.3;stroke:rgb(47,57,68);stroke-width:2px;"/><path d="M224,156L272,96L272,95.789L304,96L304,112L288,140L276,140L276,152L228,176L224,172L224,156Z" style="fill:rgb(234,244,255);fill-opacity:0.3;stroke:rgb(47,57,68);stroke-width:4px;"/><path d="M304,96L304,112L272,112L272,95.789L304,96Z" style="fill:rgb(234,244,255);fill-opacity:0.3;stroke:rgb(47,57,68);stroke-width:1px;"/><path d="M224,172L224,156L272,96L272,112L224,172Z" style="fill:rgb(234,244,255);fill-opacity:0.3;stroke:rgb(47,57,68);stroke-width:1px;"/><path d="M228,160L224,156L224,172L228,176L228,160Z" style="fill:rgb(234,244,255);fill-opacity:0.3;stroke:rgb(47,57,68);stroke-width:1px;"/><path d="M228,176L276,152L276,136L228,160L228,176Z" style="fill:rgb(234,244,255);fill-opacity:0.3;stroke:rgb(47,57,68);stroke-width:1px;"/><rect x="276" y="124" width="12" height="16" style="fill:rgb(234,244,255);fill-opacity:0.3;stroke:rgb(47,57,68);stroke-width:1px;"/><path d="M304,112L304,96L288,124L288,140L304,112Z" style="fill:rgb(234,244,255);fill-opacity:0.3;stroke:rgb(47,57,68);stroke-width:1px;"/><path d="M304,96L272,96L224,156L228,160L276,136L276,124L288,124L304,96Z" style="fill:rgb(234,244,255);fill-opacity:0.3;stroke:rgb(47,57,68);stroke-width:2px;"/><path d="M264,285.997L268,289.997L328,278L340,253.997L356,213.997L352,213.997L300,225.997L276,250L276,265.997L264,285.997Z" style="fill:rgb(234,244,255);fill-opacity:0.3;stroke:rgb(47,57,68);stroke-width:2px;"/><path d="M300,208L352,196L356,196L356,213.997L340,253.997L328,278L268,289.997L264,285.997L264,268L276,248L276,232.003L300,208Z" style="fill:rgb(234,244,255);fill-opacity:0.3;stroke:rgb(47,57,68);stroke-width:4px;"/><path d="M276.058,247.996L276,265.997L264,285.997L264,268L276.058,247.996Z" style="fill:rgb(234,244,255);fill-opacity:0.3;stroke:rgb(47,57,68);stroke-width:1px;"/><path d="M300,225.997L300,208L276.058,232.003L276.058,249.942L300,225.997Z" style="fill:rgb(234,244,255);fill-opacity:0.3;stroke:rgb(47,57,68);stroke-width:1px;"/><path d="M352,196L352,213.997L300,225.997L300,208L352,196Z" style="fill:rgb(234,244,255);fill-opacity:0.3;stroke:rgb(47,57,68);stroke-width:1px;"/><path d="M328,278L340,253.997L340,236L328,260L328,278Z" style="fill:rgb(234,244,255);fill-opacity:0.3;stroke:rgb(47,57,68);stroke-width:1px;"/><path d="M328,260L328,278L268,289.997L268,272L328,260Z" style="fill:rgb(234,244,255);fill-opacity:0.3;stroke:rgb(47,57,68);stroke-width:1px;"/><path d="M264,268L268,272L268,289.997L264,285.997L264,268Z" style="fill:rgb(234,244,255);fill-opacity:0.3;stroke:rgb(47,57,68);stroke-width:1px;"/><rect x="352" y="196" width="4" height="17.997" style="fill:rgb(234,244,255);fill-opacity:0.3;stroke:rgb(47,57,68);stroke-width:1px;"/><path d="M340,253.997L340,236L356,196L356,213.997L340,253.997Z" style="fill:rgb(234,244,255);fill-opacity:0.3;stroke:rgb(47,57,68);stroke-width:1px;"/><path d="M264,268L268,272L328,260.003L340,236L356,196L352,196L300,208L276,232.003L276,248L264,268Z" style="fill:rgb(234,244,255);fill-opacity:0.3;stroke:rgb(47,57,68);stroke-width:2px;"/><path d="M252,248L240,236L240,224L231.958,212L192,192L134,184L164,212L212,240L252,248Z" style="fill:rgb(234,244,255);fill-opacity:0.3;stroke:rgb(47,57,68);stroke-width:2px;"/><path d="M134,168L192,176L231.958,196L240,208L240,220L252,232L251.996,231.999L252,232.003L252,248L212,240L164,212L134,184L134,168Z" style="fill:rgb(234,244,255);fill-opacity:0.3;stroke:rgb(47,57,68);stroke-width:4px;"/><path d="M252,248L252,232.003L240,220L240,236L252,248Z" style="fill:rgb(234,244,255);fill-opacity:0.3;stroke:rgb(47,57,68);stroke-width:1px;"/><path d="M240,208L240,224L231.958,212L232,196.062L240,208Z" style="fill:rgb(234,244,255);fill-opacity:0.3;stroke:rgb(47,57,68);stroke-width:1px;"/><path d="M192,176L192,192L134,184L134,168L192,176Z" style="fill:rgb(234,244,255);fill-opacity:0.3;stroke:rgb(47,57,68);stroke-width:1px;"/><path d="M134,168L164,196L164,212L134,184L134,168Z" style="fill:rgb(234,244,255);fill-opacity:0.3;stroke:rgb(47,57,68);stroke-width:1px;"/><path d="M212,240L212,224L164.106,196.062L164,212L212,240Z" style="fill:rgb(234,244,255);fill-opacity:0.3;stroke:rgb(47,57,68);stroke-width:1px;"/><path d="M251.996,231.999L252,247.996L212,240L212,224L251.996,231.999Z" style="fill:rgb(234,244,255);fill-opacity:0.3;stroke:rgb(47,57,68);stroke-width:1px;"/><path d="M252,232L240,220L240,208L231.958,196L192,176L134,168L164,196L212,224L252,232Z" style="fill:rgb(234,244,255);fill-opacity:0.3;stroke:rgb(47,57,68);stroke-width:2px;"/><path d="M156,228L128,256L108,264L84,264L76,276L64,276L36,288L48,264L44,240L80,228L88,228L96,236L156,228Z" style="fill:rgb(234,244,255);fill-opacity:0.3;stroke:rgb(47,57,68);stroke-width:2px;"/><path d="M36.002,271.999L36,272L46,252L44,240L44,224L80,212L88,212L96,220L156,212L156,228L128,256L108,264L84,264L76,276L64,276L36,288L36.008,287.984L36,272.003L36.002,271.999Z" style="fill:rgb(234,244,255);fill-opacity:0.3;stroke:rgb(47,57,68);stroke-width:4px;"/><path d="M156,228L156,212L96,220L95.994,235.994L156,228Z" style="fill:rgb(234,244,255);fill-opacity:0.3;stroke:rgb(47,57,68);stroke-width:1px;"/><path d="M88,212L96,220L96.044,235.994L88,228L88,212Z" style="fill:rgb(234,244,255);fill-opacity:0.3;stroke:rgb(47,57,68);stroke-width:1px;"/><rect x="80" y="212" width="8" height="16" style="fill:rgb(234,244,255);fill-opacity:0.3;stroke:rgb(47,57,68);stroke-width:1px;"/><path d="M44,224L44,240L80,228L80,212.333L44,224Z" style="fill:rgb(234,244,255);fill-opacity:0.3;stroke:rgb(47,57,68);stroke-width:1px;"/><path d="M156,212L128,240L108,248L84,248L76,260L64,260L36,272L48,248L44,224L80,212L88,212L96,220L156,212Z" style="fill:rgb(234,244,255);fill-opacity:0.3;stroke:rgb(47,57,68);stroke-width:2px;"/><path d="M48,264L48,248L44,224L44,240L48,264Z" style="fill:rgb(234,244,255);fill-opacity:0.3;stroke:rgb(47,57,68);stroke-width:1px;"/><path d="M48,248L48,264L36.008,287.997L36,272.003L48,248Z" style="fill:rgb(234,244,255);fill-opacity:0.3;stroke:rgb(47,57,68);stroke-width:1px;"/><path d="M36.008,287.997L64,276L63.992,260.003L36,272.003L36.008,287.997Z" style="fill:rgb(234,244,255);fill-opacity:0.3;stroke:rgb(47,57,68);stroke-width:1px;"/><path d="M76,276L76,260L63.992,260.003L64,276L76,276Z" style="fill:rgb(234,244,255);fill-opacity:0.3;stroke:rgb(47,57,68);stroke-width:1px;"/><path d="M84,248L84,264L76,276L76,260.003L84,248Z" style="fill:rgb(234,244,255);fill-opacity:0.3;stroke:rgb(47,57,68);stroke-width:1px;"/><rect x="84" y="248" width="24" height="16" style="fill:rgb(234,244,255);fill-opacity:0.3;stroke:rgb(47,57,68);stroke-width:1px;"/><path d="M128.004,239.996L128,255.968L108,264L108,248L128.004,239.996Z" style="fill:rgb(234,244,255);fill-opacity:0.3;stroke:rgb(47,57,68);stroke-width:1px;"/><path d="M156,212L156,227.997L127.92,256L127.993,240.001L156,212Z" style="fill:rgb(234,244,255);fill-opacity:0.3;stroke:rgb(47,57,68);stroke-width:1px;"/><path d="M152,152L164,112.003L180,104.007L160,84.003L104,64L68,64.003L96,80L100,104.003L152,152Z" style="fill:rgb(234,244,255);fill-opacity:0.3;stroke:rgb(47,57,68);stroke-width:2px;"/><path d="M68,48L104,48L160,68L179.998,88.001L180,88L179.993,104L180,104.007L164,112.003L152,152L100,104.003C99.939,104.033 96,80 96,80L68,64.003L68,48Z" style="fill:rgb(234,244,255);fill-opacity:0.3;stroke:rgb(47,57,68);stroke-width:4px;"/><path d="M179.959,88.003L160,68L159.991,84L179.987,104.003L179.959,88.003Z" style="fill:rgb(234,244,255);fill-opacity:0.3;stroke:rgb(47,57,68);stroke-width:1px;"/><path d="M152,136L152,152L164,112.003L164,96L152,136Z" style="fill:rgb(234,244,255);fill-opacity:0.3;stroke:rgb(47,57,68);stroke-width:1px;"/><path d="M179.993,104L180,88L164,96L164,112L179.993,104Z" style="fill:rgb(234,244,255);fill-opacity:0.3;stroke:rgb(47,57,68);stroke-width:1px;"/><path d="M96,80L95.994,64L68,48L68,64L96,80Z" style="fill:rgb(234,244,255);fill-opacity:0.3;stroke:rgb(47,57,68);stroke-width:1px;"/><path d="M100,104.003L100,88.003L95.994,64.003L96,80C96,80 99.939,104.033 100,104.003Z" style="fill:rgb(234,244,255);fill-opacity:0.3;stroke:rgb(47,57,68);stroke-width:1px;"/><path d="M152,152L152,136L100.004,88.003L100,104.003L152,152Z" style="fill:rgb(234,244,255);fill-opacity:0.3;stroke:rgb(47,57,68);stroke-width:1px;"/><path d="M160,84.003L160,68L104,48.468L104,64.003L160,84.003Z" style="fill:rgb(234,244,255);fill-opacity:0.3;stroke:rgb(47,57,68);stroke-width:1px;"/><rect x="68" y="48" width="36" height="16.003" style="fill:rgb(234,244,255);fill-opacity:0.3;stroke:rgb(47,57,68);stroke-width:1px;"/><path d="M152,136L164,96L180,88.003L160,68L104,48L68,48L96,64.003L100,88L152,136Z" style="fill:rgb(234,244,255);fill-opacity:0.3;stroke:rgb(47,57,68);stroke-width:2px;"/><path d="M186,303.997L200,303.997L188,287.997L156,276L148,276L140,287.997L116,300.154L120,304L128,303.997L140,316L186,303.997Z" style="fill:rgb(234,244,255);fill-opacity:0.3;stroke:rgb(47,57,68);stroke-width:2px;"/><path d="M116,299.99L116,284L139.993,272.003L140,272L148,260L156,260.003L188,272L200,288L200,304L185.987,304L140,316L128,304L120,304L116,300.154L116.109,300.099L116,299.99Z" style="fill:rgb(234,244,255);fill-opacity:0.3;stroke:rgb(47,57,68);stroke-width:4px;"/><path d="M140,300.048L140,316L128,304L128,288L140,300.048Z" style="fill:rgb(234,244,255);fill-opacity:0.3;stroke:rgb(47,57,68);stroke-width:1px;"/><path d="M185.987,304L186,288L139.942,299.99L139.993,315.993L185.987,304Z" style="fill:rgb(234,244,255);fill-opacity:0.3;stroke:rgb(47,57,68);stroke-width:1px;"/><path d="M200,304L200,288L186,288L185.987,304L200,304Z" style="fill:rgb(234,244,255);fill-opacity:0.3;stroke:rgb(47,57,68);stroke-width:1px;"/><path d="M188,287.997L188,272L156,260.003L156,276L188,287.997Z" style="fill:rgb(234,244,255);fill-opacity:0.3;stroke:rgb(47,57,68);stroke-width:1px;"/><path d="M156,260.003L148,260L148,276L156,276L156,260.003Z" style="fill:rgb(234,244,255);fill-opacity:0.3;stroke:rgb(47,57,68);stroke-width:1px;"/><path d="M148,260L140,272L139.993,288L148,276L148,260Z" style="fill:rgb(234,244,255);fill-opacity:0.3;stroke:rgb(47,57,68);stroke-width:1px;"/><path d="M116,299.99L116,284L139.993,272.003L139.993,288L116,299.99Z" style="fill:rgb(234,244,255);fill-opacity:0.3;stroke:rgb(47,57,68);stroke-width:1px;"/><path d="M120,288L120,304L116,299.99L116,284.157L120,288Z" style="fill:rgb(234,244,255);fill-opacity:0.3;stroke:rgb(47,57,68);stroke-width:1px;"/><path d="M128,288L128.004,304L120,304L119.997,287.997L128,288Z" style="fill:rgb(234,244,255);fill-opacity:0.3;stroke:rgb(47,57,68);stroke-width:1px;"/><path d="M186,288L200,288L188,272L156,260.003L148,260.003L140,272L116,284.157L120,288L128,288L140,300.048L186,288Z" style="fill:rgb(234,244,255);fill-opacity:0.3;stroke:rgb(47,57,68);stroke-width:2px;"/><path d="M316,364L304,376L300,376L288,364L240,352L228,340L224,324L216,304L252,312L288,336L316,364Z" style="fill:rgb(234,244,255);fill-opacity:0.3;stroke:rgb(47,57,68);stroke-width:2px;"/><path d="M252,296L288,320L316,348L316,364L304,376L300,376L288,364L240,352L228,340L224,324L216,304L216,288L252,296Z" style="fill:rgb(234,244,255);fill-opacity:0.3;stroke:rgb(47,57,68);stroke-width:4px;"/><path d="M316,364L316,348L288,320L288,336L316,364Z" style="fill:rgb(234,244,255);fill-opacity:0.3;stroke:rgb(47,57,68);stroke-width:1px;"/><path d="M288,336L252.058,312.039L252,296L288,320L288,336Z" style="fill:rgb(234,244,255);fill-opacity:0.3;stroke:rgb(47,57,68);stroke-width:1px;"/><path d="M252,296L216,288L216,304L252,312.039L252,296Z" style="fill:rgb(234,244,255);fill-opacity:0.3;stroke:rgb(47,57,68);stroke-width:1px;"/><path d="M216,288L224,308L224,324L216,304L216,288Z" style="fill:rgb(234,244,255);fill-opacity:0.3;stroke:rgb(47,57,68);stroke-width:1px;"/><path d="M228,324L228,340L224,324L224,308L228,324Z" style="fill:rgb(234,244,255);fill-opacity:0.3;stroke:rgb(47,57,68);stroke-width:1px;"/><path d="M240,352L240,336L228,324L228,340L240,352Z" style="fill:rgb(234,244,255);fill-opacity:0.3;stroke:rgb(47,57,68);stroke-width:1px;"/><path d="M288,348L288,364L240,352L240,336L288,348Z" style="fill:rgb(234,244,255);fill-opacity:0.3;stroke:rgb(47,57,68);stroke-width:1px;"/><path d="M300,360L288,348L288,364L300,376L300,360Z" style="fill:rgb(234,244,255);fill-opacity:0.3;stroke:rgb(47,57,68);stroke-width:1px;"/><rect x="300" y="360" width="4" height="16" style="fill:rgb(234,244,255);fill-opacity:0.3;stroke:rgb(47,57,68);stroke-width:1px;"/><path d="M304,376L316,364L316,348L304,360L304,376Z" style="fill:rgb(234,244,255);fill-opacity:0.3;stroke:rgb(47,57,68);stroke-width:1px;"/><path d="M316,348L304,360L300,360L288,348L240,336L228,324L224,308L216,288L252,296L288,320L316,348Z" style="fill:rgb(234,244,255);fill-opacity:0.3;stroke:rgb(47,57,68);stroke-width:2px;"/><path d="M212,412L212,396L200,368L160,344L104,356L104,372.01L172,408L212,412Z" style="fill:rgb(234,244,255);fill-opacity:0.3;stroke:rgb(47,57,68);stroke-width:2px;"/><path d="M104,340L160,328L200,352L212,380L212,412L172,408L104,372.01L104,340Z" style="fill:rgb(234,244,255);fill-opacity:0.3;stroke:rgb(47,57,68);stroke-width:4px;"/><path d="M160,328L160,344L104.111,355.976L104,340L160,328Z" style="fill:rgb(234,244,255);fill-opacity:0.3;stroke:rgb(47,57,68);stroke-width:1px;"/><path d="M200,352L200,368.479L160,344L160,328L200,352Z" style="fill:rgb(234,244,255);fill-opacity:0.3;stroke:rgb(47,57,68);stroke-width:1px;"/><path d="M212,380L212,396L200,368L200,352L212,380Z" style="fill:rgb(234,244,255);fill-opacity:0.3;stroke:rgb(47,57,68);stroke-width:1px;"/><path d="M212,412L212,396L172.063,392L172.063,408.006L212,412Z" style="fill:rgb(234,244,255);fill-opacity:0.3;stroke:rgb(47,57,68);stroke-width:1px;"/><path d="M104.111,355.976L172.063,392L172,408L104,372.01L104.111,355.976Z" style="fill:rgb(234,244,255);fill-opacity:0.3;stroke:rgb(47,57,68);stroke-width:1px;"/><path d="M212,396L212,380L200,352L160,328L104,340L104,356.01L172,392L212,396Z" style="fill:rgb(234,244,255);fill-opacity:0.3;stroke:rgb(47,57,68);stroke-width:2px;"/><path d="M480,220L480,240L456,268L408,292L344,280L344,264L384,224L412,224L440,212L480,220Z" style="fill:rgb(234,244,255);fill-opacity:0.3;stroke:rgb(47,57,68);stroke-width:2px;"/><path d="M344,264L384,224L412,224L440,212L440.008,212.002L440.011,212L480,220L480,240L456,268L408,292L344,280L344,264Z" style="fill:rgb(234,244,255);fill-opacity:0.3;stroke:rgb(47,57,68);stroke-width:4px;"/><path d="M440,212L440.011,228L412,240L412,224L440,212Z" style="fill:rgb(234,244,255);fill-opacity:0.3;stroke:rgb(47,57,68);stroke-width:1px;"/><rect x="384" y="224" width="28" height="16" style="fill:rgb(234,244,255);fill-opacity:0.3;stroke:rgb(47,57,68);stroke-width:1px;"/><path d="M384,240L344,280L344,264L384,224L384,240Z" style="fill:rgb(234,244,255);fill-opacity:0.3;stroke:rgb(47,57,68);stroke-width:1px;"/><path d="M480,240L480,220L440,212L440,227.997L480,240Z" style="fill:rgb(234,244,255);fill-opacity:0.3;stroke:rgb(47,57,68);stroke-width:1px;"/><path d="M456,268L456,248L480,220L480,240L456,268Z" style="fill:rgb(234,244,255);fill-opacity:0.3;stroke:rgb(47,57,68);stroke-width:1px;"/><path d="M456,248L408,276L408,292L456,268L456,248Z" style="fill:rgb(234,244,255);fill-opacity:0.3;stroke:rgb(47,57,68);stroke-width:1px;"/><path d="M408,276L344,264L344,280L408,292L408,276Z" style="fill:rgb(234,244,255);fill-opacity:0.3;stroke:rgb(47,57,68);stroke-width:1px;"/><path d="M480,220L440.011,212L412,224L384,224L344,264L408,276L456,248L480,220Z" style="fill:rgb(234,244,255);fill-opacity:0.3;stroke:rgb(47,57,68);stroke-width:2px;"/><path d="M432,316L396,360L380,360C380,360 359.988,371.586 360,372C360.012,372.414 332,360 332,360L356,332L432,316Z" style="fill:rgb(234,244,255);fill-opacity:0.3;stroke:rgb(47,57,68);stroke-width:2px;"/><path d="M332.023,344C332.008,343.993 332,343.99 332,343.99L356,315.99L432,299.99L431.952,300.048L432,316L396,360L380,360C380,360 379.994,360.003 379.983,360.01L360,372.01L360,372C359.988,372.402 332,360 332,360L332.023,344Z" style="fill:rgb(234,244,255);fill-opacity:0.3;stroke:rgb(47,57,68);stroke-width:4px;"/><path d="M432,316L431.952,300L396,344L396,360L432,316Z" style="fill:rgb(234,244,255);fill-opacity:0.3;stroke:rgb(47,57,68);stroke-width:1px;"/><path d="M380,360L379.983,344L396,344L396,360L380,360Z" style="fill:rgb(234,244,255);fill-opacity:0.3;stroke:rgb(47,57,68);stroke-width:1px;"/><path d="M360,356L379.983,344L379.983,360.01L360,372.01L360,356Z" style="fill:rgb(234,244,255);fill-opacity:0.3;stroke:rgb(47,57,68);stroke-width:1px;"/><path d="M332.023,344L360,356L360,371.999L332,360L332.023,344Z" style="fill:rgb(234,244,255);fill-opacity:0.3;stroke:rgb(47,57,68);stroke-width:1px;"/><path d="M356,316L356,332L332,360L332.023,344L356,316Z" style="fill:rgb(234,244,255);fill-opacity:0.3;stroke:rgb(47,57,68);stroke-width:1px;"/><path d="M431.952,300.048L432,316L356,332L356,316L431.952,300.048Z" style="fill:rgb(234,244,255);fill-opacity:0.3;stroke:rgb(47,57,68);stroke-width:1px;"/><path d="M432,299.99L396,344L380,343.99C380,343.99 359.988,355.576 360,355.99C360.012,356.404 332,343.99 332,343.99L356,315.99L432,299.99Z" style="fill:rgb(234,244,255);fill-opacity:0.3;stroke:rgb(47,57,68);stroke-width:2px;"/><path d="M356,432L340,448L304,460L276,460L248,420L288,408L292,408L320,420L356,432Z" style="fill:rgb(234,244,255);fill-opacity:0.3;stroke:rgb(47,57,68);stroke-width:2px;"/><path d="M288,392L292,392L320,404L356,416L356,432L340,448L304,460L276,460L248.002,420.003L248,420.003L248,404L288,392Z" style="fill:rgb(234,244,255);fill-opacity:0.3;stroke:rgb(47,57,68);stroke-width:4px;"/><path d="M288,408L288,392L248,404L248,420.003L288,408Z" style="fill:rgb(234,244,255);fill-opacity:0.3;stroke:rgb(47,57,68);stroke-width:1px;"/><rect x="288" y="392" width="4" height="16" style="fill:rgb(234,244,255);fill-opacity:0.3;stroke:rgb(47,57,68);stroke-width:1px;"/><path d="M320.01,420.003L320,404L292,392L292,408L320.01,420.003Z" style="fill:rgb(234,244,255);fill-opacity:0.3;stroke:rgb(47,57,68);stroke-width:1px;"/><path d="M356,432L356,416L320.01,404.003L320.01,420.003L356,432Z" style="fill:rgb(234,244,255);fill-opacity:0.3;stroke:rgb(47,57,68);stroke-width:1px;"/><path d="M356,416L356,432L340,448L340,432L356,416Z" style="fill:rgb(234,244,255);fill-opacity:0.3;stroke:rgb(47,57,68);stroke-width:1px;"/><path d="M340,432L340,448L304,460L304,444L340,432Z" style="fill:rgb(234,244,255);fill-opacity:0.3;stroke:rgb(47,57,68);stroke-width:1px;"/><path d="M276,444L304,444L304,460L276.058,460L276,444Z" style="fill:rgb(234,244,255);fill-opacity:0.3;stroke:rgb(47,57,68);stroke-width:1px;"/><path d="M248,404L248.002,420.003L276,460L276,444" style="fill:rgb(234,244,255);fill-opacity:0.3;stroke:rgb(47,57,68);stroke-width:1px;"/><path d="M356,416L340,432L304,444L276,444L248,404L288,392L292,392L320,404L356,416Z" style="fill:rgb(234,244,255);fill-opacity:0.3;stroke:rgb(47,57,68);stroke-width:2px;"/><path d="M332,148L392,144L400,156L340,156L332,148Z" style="fill:rgb(234,244,255);fill-opacity:0.6;stroke:rgb(47,57,68);stroke-width:1px;"/><path d="M276,128C275.87,128.239 246.4,128 246.4,128L240,136L276,136C276,136 276.13,127.761 276,128Z" style="fill:white;fill-opacity:0.6;stroke:rgb(47,57,68);stroke-width:1px;"/><path d="M276,248L336,244.001L332,252.002L271.2,256L276,248Z" style="fill:white;fill-opacity:0.6;stroke:rgb(47,57,68);stroke-width:1px;"/><path d="M234.639,200L180,205.333L192,212.333L240,208L234.639,200Z" style="fill:white;fill-opacity:0.6;stroke:rgb(47,57,68);stroke-width:1px;"/><path d="M213.986,187.004L156.804,189.283L134,168L192,176L213.986,187.004Z" style="fill:white;fill-opacity:0.6;stroke:rgb(47,57,68);stroke-width:1px;"/><path d="M160,68L97.329,72L98.727,80L167.999,76L160,68Z" style="fill:white;fill-opacity:0.6;stroke:rgb(47,57,68);stroke-width:1px;"/><path d="M106.944,94.478L179.997,88L164,96L112.863,100L106.944,94.478Z" style="fill:white;fill-opacity:0.6;stroke:rgb(47,57,68);stroke-width:1px;"/><path d="M156,212L45.946,236L47.316,244.001L143.368,224.632L156,212Z" style="fill:white;fill-opacity:0.6;stroke:rgb(47,57,68);stroke-width:1px;"/><path d="M48,248L128,240L108,248L84,248L46,252L48,248Z" style="fill:white;fill-opacity:0.6;stroke:rgb(47,57,68);stroke-width:1px;"/><path d="M194,280L128,288L134,293.561L186,288L200,288L194,280Z" style="fill:white;fill-opacity:0.6;stroke:rgb(47,57,68);stroke-width:1px;"/><path d="M276.058,312.039L226,316L228,324L236,332L295.76,328L288,320L276.058,312.039Z" style="fill:white;fill-opacity:0.6;stroke:rgb(47,57,68);stroke-width:1px;"/><path d="M303.592,336L252,339L288,348L311.571,344L303.592,336Z" style="fill:white;fill-opacity:0.6;stroke:rgb(47,57,68);stroke-width:1px;"/><path d="M156.885,384L212,384L212,380L206.857,368L136,372.947L156.885,384Z" style="fill:white;fill-opacity:0.6;stroke:rgb(47,57,68);stroke-width:1px;"/><path d="M186.667,344L116,362.361L104,356.01L172.063,335.238L186.667,344Z" style="fill:white;fill-opacity:0.6;stroke:rgb(47,57,68);stroke-width:1px;"/><path d="M470.645,230.914L368,240L380.339,227.661L480,220L470.645,230.914Z" style="fill:white;fill-opacity:0.6;stroke:rgb(47,57,68);stroke-width:1px;"/><path d="M448,252L344,264L364,268L436,260.003L448,252Z" style="fill:white;fill-opacity:0.6;stroke:rgb(47,57,68);stroke-width:1px;"/><path d="M396,344L380,343.99L332.023,344L336,339.356L402.544,336L396,344Z" style="fill:white;fill-opacity:0.6;stroke:rgb(47,57,68);stroke-width:1px;"/><path d="M348,424L264.8,428L270.4,436L340,432L348,424Z" style="fill:white;fill-opacity:0.6;stroke:rgb(47,57,68);stroke-width:1px;"/><path d="M253.6,412L332,408L320,404L304,397.143L248,404L253.6,412Z" style="fill:white;fill-opacity:0.6;stroke:rgb(47,57,68);stroke-width:1px;"/></svg>