<?xml version="1.0" encoding="UTF-8" standalone="no"?><!DOCTYPE svg PUBLIC "-//W3C//DTD SVG 1.1//EN" "http://www.w3.org/Graphics/SVG/1.1/DTD/svg11.dtd"><svg width="100%" height="100%" viewBox="0 0 30 30" version="1.1" xmlns="http://www.w3.org/2000/svg" xmlns:xlink="http://www.w3.org/1999/xlink" xml:space="preserve" xmlns:serif="http://www.serif.com/" style="fill-rule:evenodd;clip-rule:evenodd;stroke-linecap:round;stroke-linejoin:round;stroke-miterlimit:1.5;"><rect id="hide" x="0" y="0" width="30" height="30" style="fill:none;"/><path d="M16.859,15.738C16.566,16.477 15.843,17 15,17C13.896,17 13,16.104 13,15C13,14.157 13.523,13.434 14.262,13.141C14.491,13.05 14.74,13 15,13C16.104,13 17,13.896 17,15C17,15.26 16.95,15.509 16.859,15.738ZM8.548,7.427C10.131,6.523 12.108,6 15,6C23,6 24,10 29,15C26.35,17.65 24.823,20.019 22.783,21.661L19.766,18.644C20.54,17.633 21,16.37 21,15C21,11.689 18.311,9 15,9C13.63,9 12.367,9.46 11.356,10.234L8.548,7.427ZM20.092,23.212C18.75,23.719 17.121,24 15,24C7,24 6,19.825 1,15C3.177,12.823 4.596,10.835 6.164,9.285L9.494,12.614C9.176,13.346 9,14.152 9,15C9,18.311 11.689,21 15,21C15.848,21 16.654,20.824 17.386,20.506L20.092,23.212Z" style="fill:rgb(235,235,235);stroke:rgb(235,235,235);stroke-width:1px;"/><path d="M4,4L26,26" style="fill:none;stroke:rgb(203,203,203);stroke-width:2px;"/></svg>