<?xml version="1.0" encoding="UTF-8" standalone="no"?><!DOCTYPE svg PUBLIC "-//W3C//DTD SVG 1.1//EN" "http://www.w3.org/Graphics/SVG/1.1/DTD/svg11.dtd"><svg width="100%" height="100%" viewBox="0 0 512 512" version="1.1" xmlns="http://www.w3.org/2000/svg" xmlns:xlink="http://www.w3.org/1999/xlink" xml:space="preserve" xmlns:serif="http://www.serif.com/" style="fill-rule:evenodd;clip-rule:evenodd;stroke-linecap:round;stroke-linejoin:round;stroke-miterlimit:1.5;"><rect id="SLIDE" x="0" y="0" width="512" height="512" style="fill:none;"/><path d="M460.177,36.974C461.715,35.436 466.29,37.515 470.387,41.613C474.485,45.71 476.564,50.285 475.026,51.823L86.16,440.689L41.613,470.387L71.311,425.84L460.177,36.974Z" style="fill:rgb(201,205,138);fill-opacity:0.6;stroke:rgb(47,57,68);stroke-width:4px;"/><path d="M460.177,36.974C461.715,35.436 466.29,37.515 470.387,41.613C474.485,45.71 476.564,50.285 475.026,51.823L86.16,440.689L41.613,470.387L71.311,425.84L460.177,36.974Z" style="fill:rgb(201,205,138);fill-opacity:0.6;stroke:rgb(47,57,68);stroke-width:2px;"/><path d="M462.234,44.197L75.951,430.48L52.539,459.034L74.095,428.624L460.787,41.932C461.178,42.658 461.664,43.421 462.234,44.197Z" style="fill:white;fill-opacity:0.6;stroke:rgb(47,57,68);stroke-width:1px;"/><path d="M470.189,51.277L83.461,437.99L57.358,456.435L80.218,434.743L466.352,48.609C467.664,49.735 468.979,50.641 470.189,51.277Z" style="fill-opacity:0.3;stroke:rgb(47,57,68);stroke-width:1px;"/><path d="M470.387,41.613C474.485,45.71 476.564,50.285 475.026,51.823C473.489,53.36 468.914,51.282 464.816,47.184C460.718,43.086 458.64,38.511 460.177,36.974C461.715,35.436 466.29,37.515 470.387,41.613Z" style="fill:rgb(201,205,138);fill-opacity:0.6;stroke:rgb(47,57,68);stroke-width:2px;"/></svg>