<?xml version="1.0" encoding="UTF-8" standalone="no"?><!DOCTYPE svg PUBLIC "-//W3C//DTD SVG 1.1//EN" "http://www.w3.org/Graphics/SVG/1.1/DTD/svg11.dtd"><svg width="100%" height="100%" viewBox="0 0 512 512" version="1.1" xmlns="http://www.w3.org/2000/svg" xmlns:xlink="http://www.w3.org/1999/xlink" xml:space="preserve" xmlns:serif="http://www.serif.com/" style="fill-rule:evenodd;clip-rule:evenodd;stroke-linecap:round;stroke-linejoin:round;stroke-miterlimit:1.5;"><rect id="ArtBoard1" x="0" y="0" width="512" height="512" style="fill:none;"/><path d="M99.107,255.815C94.033,249.383 97.224,238.393 106.228,231.289C115.233,224.185 126.663,223.64 131.738,230.071L139.42,239.81C148.219,233.564 158.885,233.333 163.738,239.485L174.77,253.469C176.503,255.665 177.272,258.392 177.175,261.314L182.487,268.047L208,276L209.674,277.953L292,256L327.284,265.148L328,143.303L328,139.179L290.933,145.798C289.651,146.86 287.258,147.841 284,148.695L284,163.684C284,163.79 283.991,163.895 283.974,164L284,164L280.784,196.16L313.226,202.766L313.226,206.844L292,214.639L279.268,212.276L276.627,242C276.627,245.311 264.685,248 249.975,248C235.393,248 223.531,245.358 223.326,242.086L223.324,242.086C223.324,242.086 220.328,207.502 220.024,204.244C220.014,204.191 220.007,204.139 220.003,204.086L220,204.086L219.79,201.971L184,196L184,192L208,184L208.202,184.036L208.202,184.03L218.188,185.811L216.026,164C216.009,163.895 216,163.79 216,163.684L216,148.695C210.969,147.376 208,145.754 208,144L208,133.437C205.64,132.602 204.108,131.463 204,129.958L204,124C204.467,122.723 206.241,121.985 208,121.56L208,112.051C208,110.832 209.435,109.676 212,108.641L212,104C212,103.901 212.009,103.802 212.026,103.703L214,46C214,45.126 215.123,44.296 217.142,43.547C216.397,43.053 216,42.535 216,42C216,41.299 216.683,40.626 217.938,40C216.683,39.374 216,38.701 216,38C216,34.689 231.235,32 250,32C268.765,32 284,34.689 284,38C284,38.701 283.317,39.374 282.062,40C283.317,40.626 284,41.299 284,42C284,42.535 283.603,43.053 282.858,43.547C284.877,44.296 286,45.126 286,46L287.976,103.714C287.992,103.809 288,103.904 288,104L288,106.272L328,99.317L328,99.303L328.035,99.311L352,95.144L392,103.703L368,108L368,108.009L390.809,103.927L392,103.703L392,281.926L400,284L400,294.236L424,384.03L424,424L400,436L344,440L228,480L164,456L175.07,365.553L128,304L132.894,293.848L117.206,273.963C114.343,273.376 111.871,271.994 110.14,269.799L99.107,255.815ZM328,115.167L328,115.161L292,121.606L292,121.609L328,115.167ZM368,374.879L344,396L368,375L368,374.879ZM400,392L392,384.01L392,384.077L399.893,392.008L400,392Z" style="fill:rgb(255,250,255);stroke:rgb(47,57,68);stroke-width:4px;"/><path d="M392,428.54L368,432L368,108.215L392,103.703L392,428.54Z" style="fill:rgb(255,250,255);stroke:rgb(47,57,68);stroke-width:2px;"/><path d="M328,99.303L328,291.13L368,300L368,108L328,99.303Z" style="fill:rgb(255,250,255);stroke:rgb(47,57,68);stroke-width:2px;"/><path d="M328,143.303L326.939,324L368,336.533L368,152L328,143.303Z" style="fill:rgb(255,250,255);stroke:rgb(47,57,68);stroke-width:2px;"/><path d="M216,118.758L216,143.147L256,152.036L256,128L216,118.758Z" style="fill:rgb(255,250,255);stroke:rgb(47,57,68);stroke-width:2px;"/><path d="M400,284L400,296L280,327.93L172,300L172,288L292,256L400,284Z" style="fill:rgb(128,128,128);stroke:rgb(47,57,68);stroke-width:2px;"/><path d="M400,296L292,268L172,300L280,327.93L400,296Z" style="fill:rgb(128,128,128);stroke:rgb(47,57,68);stroke-width:2px;"/><path d="M400,284L292,256L172,288L280,316L400,284Z" style="fill:rgb(128,128,128);stroke:rgb(47,57,68);stroke-width:2px;"/><ellipse cx="280" cy="288" rx="40" ry="12" style="fill:rgb(255,250,255);stroke:rgb(47,57,68);stroke-width:2px;"/><ellipse cx="280" cy="288" rx="13.333" ry="4" style="fill:rgb(255,250,255);stroke:rgb(47,57,68);stroke-width:2px;"/><path d="M260,277.156L252,275.081L224,282.548L232,284.622L260,277.156Z" style="fill:rgb(128,128,128);stroke:rgb(47,57,68);stroke-width:2px;"/><path d="M260,274.074L260,277.156L232,284.622L224,282.548L224,279.467L252,272L260,274.074Z" style="fill:rgb(128,128,128);stroke:rgb(47,57,68);stroke-width:2px;"/><path d="M260,274.074L252,272L224,279.467L232,281.541L260,274.074Z" style="fill:rgb(128,128,128);stroke:rgb(47,57,68);stroke-width:2px;"/><path d="M332,295.822L324,293.748L296,301.215L304,303.289L332,295.822Z" style="fill:rgb(128,128,128);stroke:rgb(47,57,68);stroke-width:2px;"/><path d="M332,292.616L332,295.822L304,303.289L296,301.215L296,298.008L324,290.542L332,292.616Z" style="fill:rgb(128,128,128);stroke:rgb(47,57,68);stroke-width:2px;"/><path d="M332,292.616L324,290.542L296,298.008L304,300.082L332,292.616Z" style="fill:rgb(128,128,128);stroke:rgb(47,57,68);stroke-width:2px;"/><path d="M280,316.109L280,327.93L400,296L400,284L280,316.109Z" style="fill:rgb(128,128,128);stroke:rgb(47,57,68);stroke-width:2px;"/><path d="M280,327.93L280,316L172,288L172,300L280,327.93Z" style="fill:rgb(128,128,128);stroke:rgb(47,57,68);stroke-width:2px;"/><path d="M256,128.051L256,152.036L392,127.75L392,103.714L256,128.051Z" style="fill:rgb(255,250,255);stroke:rgb(47,57,68);stroke-width:2px;"/><path d="M236,376L260,331.914L280,327.93L288,344.543L348,328L360,306.643L376.852,302.159L376,367.838L344,396L344,440L228,480L236,376Z" style="fill:rgb(255,250,255);stroke:rgb(47,57,68);stroke-width:2px;"/><path d="M313.226,202.766L313.226,206.844L208,188.029L208.202,184.03L313.226,202.766Z" style="fill:rgb(128,128,128);stroke:rgb(47,57,68);stroke-width:2px;"/><path d="M273.351,396.993C280.805,398.259 285.196,409.062 283.152,421.102C281.107,433.143 273.395,441.89 265.941,440.624C258.487,439.358 254.096,428.556 256.14,416.515C258.185,404.475 265.897,395.727 273.351,396.993Z" style="fill:rgb(128,128,128);stroke:rgb(47,57,68);stroke-width:2px;"/><path d="M269.259,365.093C272.714,365.68 274.862,370.018 274.054,374.776C273.246,379.534 269.786,382.92 266.331,382.333C262.877,381.747 260.728,377.408 261.536,372.65C262.344,367.893 265.805,364.506 269.259,365.093Z" style="fill:rgb(128,128,128);stroke:rgb(47,57,68);stroke-width:2px;"/><path d="M286.588,444.177C282.364,443.46 270.001,441.314 265.941,440.624C258.487,439.358 254.096,428.556 256.14,416.515C258.185,404.475 265.897,395.727 273.351,396.993C277.859,397.759 294.533,403.571 295.018,403.74C301.564,406.027 305.341,415.57 303.56,426.059C301.647,437.325 294.042,445.443 286.588,444.177Z" style="stroke:rgb(47,57,68);stroke-width:2px;"/><path d="M275.9,383.977C273.943,383.644 268.213,382.653 266.331,382.333C262.877,381.747 260.728,377.408 261.536,372.65C262.344,367.893 265.805,364.506 269.259,365.093C271.348,365.448 279.11,367.944 279.335,368.016C282.382,368.998 284.233,372.83 283.529,376.974C282.773,381.426 279.355,384.563 275.9,383.977Z" style="stroke:rgb(47,57,68);stroke-width:2px;"/><path d="M293.52,403.354C300.974,404.62 305.473,414.794 303.56,426.059C301.647,437.325 294.042,445.443 286.588,444.177C279.134,442.911 274.635,432.738 276.548,421.472C278.461,410.207 286.066,402.089 293.52,403.354Z" style="stroke:rgb(47,57,68);stroke-width:2px;"/><path d="M278.639,367.846C282.094,368.433 284.285,372.523 283.529,376.974C282.773,381.426 279.355,384.563 275.9,383.977C272.446,383.39 270.255,379.3 271.011,374.848C271.767,370.397 275.185,367.26 278.639,367.846Z" style="stroke:rgb(47,57,68);stroke-width:2px;"/><path d="M292.298,410.553C297.123,411.372 300.035,417.958 298.797,425.25C297.558,432.543 292.635,437.798 287.81,436.979C282.985,436.159 280.073,429.574 281.311,422.281C282.55,414.989 287.472,409.733 292.298,410.553Z" style="stroke:rgb(47,57,68);stroke-width:2px;"/><path d="M278.156,370.69C280.393,371.07 281.811,373.718 281.322,376.599C280.832,379.481 278.619,381.512 276.383,381.132C274.147,380.753 272.729,378.105 273.218,375.223C273.707,372.342 275.92,370.311 278.156,370.69Z" style="stroke:rgb(47,57,68);stroke-width:2px;"/><path d="M344,440L400,436L400,392L344,396L344,440Z" style="fill:rgb(255,250,255);stroke:rgb(47,57,68);stroke-width:2px;"/><path d="M236,376L228,480L164,456L176.424,354.485L236,376Z" style="fill:rgb(255,250,255);stroke:rgb(47,57,68);stroke-width:2px;"/><path d="M352,95.144L216,118.79L256,128.051L392,103.703L352,95.144Z" style="fill:rgb(255,250,255);stroke:rgb(47,57,68);stroke-width:2px;"/><path d="M376,302.386L400,388L400,392L376,368.03L376,302.386Z" style="fill:rgb(255,250,255);stroke:rgb(47,57,68);stroke-width:2px;"/><path d="M376,368L344,396L400,392.115L376,368Z" style="fill:rgb(255,250,255);stroke:rgb(47,57,68);stroke-width:2px;"/><path d="M424,424L400,436L400,388L376,302.386L400,294.236L424,384.03L424,424Z" style="fill:rgb(255,250,255);stroke:rgb(47,57,68);stroke-width:2px;"/><path d="M160,260L220,324L188,372L136,308L160,260Z" style="fill:rgb(255,250,255);stroke:rgb(47,57,68);stroke-width:2px;"/><path d="M208,276L256,332L228,384.03L188,327.597L208,276Z" style="fill:rgb(255,250,255);stroke:rgb(47,57,68);stroke-width:2px;"/><path d="M208,276L150.188,257.979L128,304L189.394,324L208,276Z" style="fill:rgb(255,250,255);stroke:rgb(47,57,68);stroke-width:2px;"/><path d="M228,384.03L180,372L128,304L189.394,324L228,384.03Z" style="fill:rgb(255,250,255);stroke:rgb(47,57,68);stroke-width:2px;"/><g><path d="M151.472,259.879L166.183,278.525C170.242,283.671 167.272,292.792 159.553,298.881C151.835,304.97 142.273,305.736 138.214,300.591L123.503,281.945C127.563,287.09 137.125,286.324 144.843,280.235C152.561,274.146 155.532,265.025 151.472,259.879Z" style="stroke:rgb(47,57,68);stroke-width:2px;"/><path d="M145.175,251.901L151.346,259.723C151.388,259.774 151.431,259.826 151.472,259.879C155.532,265.025 152.561,274.146 144.843,280.235C137.125,286.324 127.563,287.09 123.503,281.945L117.206,273.963C122.733,275.095 129.717,273.261 135.649,268.581C141.58,263.903 144.988,257.539 145.175,251.901Z" style="stroke:rgb(47,57,68);stroke-width:2px;"/><path d="M110.14,269.799C108.071,267.176 101.176,258.437 99.107,255.815C94.033,249.383 97.224,238.393 106.228,231.289C115.233,224.185 126.663,223.64 131.738,230.071C133.807,232.694 140.701,241.433 142.77,244.056C147.845,250.488 144.654,261.477 135.649,268.581C126.644,275.685 115.214,276.231 110.14,269.799Z" style="stroke:rgb(47,57,68);stroke-width:2px;"/><path d="M106.228,231.289C115.233,224.185 126.663,223.64 131.738,230.071C136.812,236.503 133.621,247.493 124.616,254.597C115.612,261.701 104.181,262.246 99.107,255.815C94.033,249.383 97.224,238.393 106.228,231.289Z" style="stroke:rgb(47,57,68);stroke-width:2px;"/><path d="M109.906,235.951C116.338,230.876 124.032,229.89 127.076,233.749C130.121,237.608 127.371,244.861 120.939,249.935C114.507,255.01 106.813,255.996 103.769,252.137C100.724,248.278 103.474,241.025 109.906,235.951Z" style="stroke:rgb(47,57,68);stroke-width:2px;"/><path d="M111.628,238.374C117.995,233.35 125.225,231.883 127.762,235.099C130.299,238.315 127.189,245.004 120.822,250.027C114.454,255.051 107.225,256.518 104.688,253.302C102.151,250.086 105.261,243.397 111.628,238.374Z" style="stroke:rgb(47,57,68);stroke-width:2px;"/><path d="M109.906,235.951C116.338,230.876 124.032,229.89 127.076,233.749C130.121,237.608 127.371,244.861 120.939,249.935C114.507,255.01 106.813,255.996 103.769,252.137C100.724,248.278 103.474,241.025 109.906,235.951Z" style="fill:rgb(234,244,255);fill-opacity:0.5;stroke:rgb(47,57,68);stroke-width:2px;"/><path d="M111.628,238.374C117.995,233.35 125.225,231.883 127.762,235.099C130.299,238.315 127.189,245.004 120.822,250.027C114.454,255.051 107.225,256.518 104.688,253.302C102.151,250.086 105.261,243.397 111.628,238.374Z" style="fill:rgb(234,244,255);fill-opacity:0.5;stroke:rgb(47,57,68);stroke-width:2px;"/></g><g><path d="M183.472,269.292L198.183,287.939C202.242,293.084 199.272,302.205 191.553,308.294C183.835,314.383 174.273,315.15 170.214,310.004L155.503,291.358C159.563,296.504 169.125,295.737 176.843,289.648C184.561,283.559 187.532,274.438 183.472,269.292Z" style="stroke:rgb(47,57,68);stroke-width:2px;"/><path d="M177.175,261.314L183.346,269.136C183.388,269.187 183.431,269.24 183.472,269.292C187.532,274.438 184.561,283.559 176.843,289.648C169.125,295.737 159.563,296.504 155.503,291.358L149.206,283.376C154.733,284.508 161.717,282.674 167.649,277.995C173.58,273.316 176.988,266.952 177.175,261.314Z" style="stroke:rgb(47,57,68);stroke-width:2px;"/><path d="M142.14,279.212C140.071,276.59 133.176,267.85 131.107,265.228C126.033,258.796 129.224,247.806 138.228,240.702C147.233,233.598 158.663,233.053 163.738,239.485C165.807,242.107 172.701,250.847 174.77,253.469C179.845,259.901 176.654,270.89 167.649,277.995C158.644,285.099 147.214,285.644 142.14,279.212Z" style="stroke:rgb(47,57,68);stroke-width:2px;"/><path d="M138.228,240.702C147.233,233.598 158.663,233.053 163.738,239.485C168.812,245.917 165.621,256.906 156.616,264.01C147.612,271.114 136.181,271.66 131.107,265.228C126.033,258.796 129.224,247.806 138.228,240.702Z" style="stroke:rgb(47,57,68);stroke-width:2px;"/><path d="M141.906,245.364C148.338,240.29 156.032,239.303 159.076,243.162C162.121,247.021 159.371,254.274 152.939,259.348C146.507,264.423 138.813,265.409 135.769,261.55C132.724,257.691 135.474,250.438 141.906,245.364Z" style="stroke:rgb(47,57,68);stroke-width:2px;"/><path d="M143.628,247.787C149.995,242.763 157.225,241.296 159.762,244.512C162.299,247.728 159.189,254.417 152.822,259.441C146.454,264.464 139.225,265.932 136.688,262.716C134.151,259.5 137.261,252.81 143.628,247.787Z" style="stroke:rgb(47,57,68);stroke-width:2px;"/><path d="M141.906,245.364C148.338,240.29 156.032,239.303 159.076,243.162C162.121,247.021 159.371,254.274 152.939,259.348C146.507,264.423 138.813,265.409 135.769,261.55C132.724,257.691 135.474,250.438 141.906,245.364Z" style="fill:rgb(234,244,255);fill-opacity:0.5;stroke:rgb(47,57,68);stroke-width:2px;"/><path d="M143.628,247.787C149.995,242.763 157.225,241.296 159.762,244.512C162.299,247.728 159.189,254.417 152.822,259.441C146.454,264.464 139.225,265.932 136.688,262.716C134.151,259.5 137.261,252.81 143.628,247.787Z" style="fill:rgb(234,244,255);fill-opacity:0.5;stroke:rgb(47,57,68);stroke-width:2px;"/></g><path d="M284,148.695L284,163.684C284,168.099 268.765,171.684 250,171.684C231.235,171.684 216,168.099 216,163.684L216,148.695C223.637,150.697 236.026,152 250,152C263.974,152 276.363,150.697 284,148.695Z" style="stroke:rgb(47,57,68);stroke-width:2px;"/><path d="M208,144L208,112.051C208,107.636 226.82,104.051 250,104.051C273.18,104.051 292,107.636 292,112.051L292,144C292,148.415 273.18,152 250,152C226.82,152 208,148.415 208,144Z" style="fill:rgb(255,250,255);stroke:rgb(47,57,68);stroke-width:2px;"/><path d="M256,139.945L256,152L250,152C226.82,152 208,148.415 208,144L208,132C208,136.415 227.181,140.017 250.361,140.017C252.273,140.017 256,139.945 256,139.945Z" style="fill:rgb(255,250,255);stroke:rgb(47,57,68);stroke-width:2px;"/><path d="M238,126.615L238,133.382L233.5,133.382C216.115,133.382 212,130.053 212,127.349L212,121C212,123.704 216.386,126.659 233.771,126.659C235.205,126.659 238,126.615 238,126.615Z" style="fill:rgb(255,250,255);stroke:rgb(47,57,68);stroke-width:2px;"/><path d="M238,133.382C237.74,135.964 204.515,137.169 204,129.958L204,124C205,121.265 212,121 212,121C212,123.704 216.386,126.659 233.771,126.659C235.205,126.659 238,126.615 238,126.615L238,133.382Z" style="fill:rgb(255,250,255);stroke:rgb(47,57,68);stroke-width:2px;"/><path d="M238,126.615L238,133.382C237.74,135.964 204.515,137.169 204,129.958L204,124C204,125.808 210.132,127.919 219,128C223.394,128.04 238,126.615 238,126.615Z" style="fill:rgb(255,250,255);stroke:rgb(47,57,68);stroke-width:2px;"/><path d="M212,112L212,104C212,99.585 229.027,96 250,96C270.973,96 288,99.585 288,104L288,112C288,116.415 270.973,120 250,120C229.027,120 212,116.415 212,112Z" style="fill:rgb(255,250,255);stroke:rgb(47,57,68);stroke-width:2px;"/><path d="M184,192L184,196L208,188L207.91,184.03L184,192Z" style="fill:rgb(128,128,128);stroke:rgb(47,57,68);stroke-width:2px;"/><path d="M286,208.969L284.931,212.84L184,196L184,192L286,208.969Z" style="fill:rgb(128,128,128);stroke:rgb(47,57,68);stroke-width:2px;"/><path d="M313.226,202.766L292,210.536L184,192L208,184L313.226,202.766Z" style="fill:rgb(128,128,128);stroke:rgb(47,57,68);stroke-width:2px;"/><path d="M287.976,103.714C287.992,103.809 288,103.904 288,104C288,108.415 270.973,112 250,112C229.027,112 212,108.415 212,104C212,103.901 212.009,103.802 212.026,103.703L214,46C214,49.311 230.131,52 250,52C269.869,52 286,49.311 286,46L287.976,103.714Z" style="stroke:rgb(47,57,68);stroke-width:2px;"/><path d="M264,50L270,90L278,88.961L280,48L264,50Z" style="fill:rgb(255,250,255);stroke:rgb(47,57,68);stroke-width:2px;"/><ellipse cx="250" cy="46" rx="36" ry="6" style="fill:rgb(255,250,255);stroke:rgb(47,57,68);stroke-width:2px;"/><ellipse cx="250" cy="42" rx="34" ry="6" style="fill:rgb(255,250,255);stroke:rgb(47,57,68);stroke-width:2px;"/><ellipse cx="250" cy="38" rx="34" ry="6" style="fill:rgb(255,250,255);stroke:rgb(47,57,68);stroke-width:2px;"/><path d="M220.003,204.086L220,204.086L216.026,164C216.732,168.269 231.685,171.684 250,171.684C268.315,171.684 283.268,168.269 283.974,164L284,164L280,204C280,207.311 266.557,210 250,210C233.586,210 220.233,207.358 220.003,204.086Z" style="stroke:rgb(47,57,68);stroke-width:2px;"/><path d="M279.988,204.175L276.627,242C276.627,245.311 264.685,248 249.975,248C235.393,248 223.531,245.358 223.326,242.086L223.324,242.086C223.324,242.086 220,203.717 220,204C220,207.311 233.443,210 250,210C266.265,210 279.525,207.406 279.988,204.175ZM279.687,203.131C279.942,202.762 280.101,202.385 280.158,202L280.181,202L279.999,204.042C280,204.028 280,204.014 280,204C280,203.705 279.893,203.415 279.687,203.131Z" style="stroke:rgb(47,57,68);stroke-width:2px;"/><path d="M292,214.639L291.902,210.536L313.226,202.766L313.226,206.844L292,214.639Z" style="fill:rgb(128,128,128);stroke:rgb(47,57,68);stroke-width:2px;"/><path d="M250,206.844L250,202L291.902,210.536L292,214.639L250,206.844Z" style="fill:rgb(128,128,128);stroke:rgb(47,57,68);stroke-width:2px;"/><path d="M280,196L313.226,202.766L291.902,210.536L250,202C260.568,201.843 274.817,199.354 280,196Z" style="fill:rgb(128,128,128);stroke:rgb(47,57,68);stroke-width:2px;"/></svg>