<?xml version="1.0" encoding="UTF-8" standalone="no"?><!DOCTYPE svg PUBLIC "-//W3C//DTD SVG 1.1//EN" "http://www.w3.org/Graphics/SVG/1.1/DTD/svg11.dtd"><svg width="100%" height="100%" viewBox="0 0 512 512" version="1.1" xmlns="http://www.w3.org/2000/svg" xmlns:xlink="http://www.w3.org/1999/xlink" xml:space="preserve" xmlns:serif="http://www.serif.com/" style="fill-rule:evenodd;clip-rule:evenodd;stroke-linecap:round;stroke-linejoin:round;stroke-miterlimit:1.5;"><rect id="SLIDE" x="0" y="0" width="512" height="512" style="fill:none;"/><path d="M396,132L479.997,195.998L480,195.997L480,208.039L479.966,208.013L116,352.039L32,288L32,275.997L396,132Z" style="fill:rgb(234,244,255);fill-opacity:0.3;stroke:rgb(47,57,68);stroke-width:4px;"/><path d="M480,208L480,195.997L116,340L116,352.039L480,208Z" style="fill:rgb(234,244,255);fill-opacity:0.09;stroke:rgb(47,57,68);stroke-width:2px;"/><path d="M480,196L396,132L32,276L116,340L480,196Z" style="fill:rgb(234,244,255);fill-opacity:0.3;stroke:rgb(47,57,68);stroke-width:2px;"/><path d="M472,194.535L396,136.63L40,277.465L116,335.37L472,194.535Z" style="fill:none;stroke:rgb(47,57,68);stroke-width:1px;"/><path d="M296,264.161L236,288L224,204.674L280,182.52L296,264.161Z" style="fill:white;fill-opacity:0.3;stroke:rgb(47,57,68);stroke-width:1px;"/><path d="M328,251.502L308,259.414L292,177.773L312,169.861L328,251.502Z" style="fill:white;fill-opacity:0.3;stroke:rgb(47,57,68);stroke-width:1px;"/></svg>