<?xml version="1.0" encoding="UTF-8" standalone="no"?><!DOCTYPE svg PUBLIC "-//W3C//DTD SVG 1.1//EN" "http://www.w3.org/Graphics/SVG/1.1/DTD/svg11.dtd"><svg width="100%" height="100%" viewBox="0 0 512 512" version="1.1" xmlns="http://www.w3.org/2000/svg" xmlns:xlink="http://www.w3.org/1999/xlink" xml:space="preserve" xmlns:serif="http://www.serif.com/" style="fill-rule:evenodd;clip-rule:evenodd;stroke-linecap:round;stroke-linejoin:round;stroke-miterlimit:1.5;"><rect id="SLIDE--SLIP" serif:id="SLIDE &amp;SLIP" x="0" y="0" width="512" height="512" style="fill:none;"/><path d="M32,264L180.489,204.604L180,204L180,196L284,154.4L289.381,161.047L412,112L480,195.997L480,208L100,360L32,276L32,264Z" style="fill:none;stroke:rgb(47,57,68);stroke-width:4px;"/><path d="M480,196L480,208L100,360L100,348L480,196Z" style="fill:rgb(234,244,255);fill-opacity:0.3;stroke:rgb(47,57,68);stroke-width:2px;"/><path d="M480,196L412,112L32,264L100,348L480,196Z" style="fill:rgb(234,244,255);fill-opacity:0.3;stroke:rgb(47,57,68);stroke-width:2px;"/><path d="M468,194.285L408,120.121L44,265.051L104,341.081L468,194.285Z" style="fill:none;stroke:rgb(47,57,68);stroke-width:1px;"/><g><path d="M352,246.4L352,238.4L248,280L248,288L352,246.4Z" style="fill:rgb(234,244,255);fill-opacity:0.3;stroke:rgb(47,57,68);stroke-width:2px;"/><path d="M248,280L248,288L180,204L180,196L248,280Z" style="fill:rgb(234,244,255);stroke:rgb(47,57,68);stroke-width:2px;"/><path d="M352,238.4L284,154.4L180,196L248,280L352,238.4Z" style="fill:rgb(234,244,255);fill-opacity:0.3;stroke:rgb(47,57,68);stroke-width:2px;"/><path d="M344,235.231L284,160.941L188,199.341L248,273.466L344,235.231Z" style="fill:none;stroke:rgb(47,57,68);stroke-width:1px;"/><path d="M310.69,248.498L326.696,242.123L318.03,203.076L294.009,173.334L310.69,248.498Z" style="fill:white;fill-opacity:0.3;stroke:rgb(47,57,68);stroke-width:1px;"/><path d="M250.591,272.434L290.606,256.497L269.412,166.776L229.412,182.776L250.591,272.434Z" style="fill:white;fill-opacity:0.3;stroke:rgb(47,57,68);stroke-width:1px;"/></g><path d="M100,324L168,216" style="fill:none;stroke:rgb(47,57,68);stroke-width:1px;"/><path d="M92,308L148,224" style="fill:none;stroke:rgb(47,57,68);stroke-width:1px;"/></svg>