<?xml version="1.0" encoding="UTF-8" standalone="no"?><!DOCTYPE svg PUBLIC "-//W3C//DTD SVG 1.1//EN" "http://www.w3.org/Graphics/SVG/1.1/DTD/svg11.dtd"><svg width="100%" height="100%" viewBox="0 0 512 512" version="1.1" xmlns="http://www.w3.org/2000/svg" xmlns:xlink="http://www.w3.org/1999/xlink" xml:space="preserve" xmlns:serif="http://www.serif.com/" style="fill-rule:evenodd;clip-rule:evenodd;stroke-linecap:round;stroke-linejoin:round;stroke-miterlimit:1.5;"><rect id="ArtBoard1" x="0" y="0" width="512" height="512" style="fill:none;"/><path d="M32,212C32,156.808 132.371,112 256,112C379.629,112 480,156.808 480,212C480,213.34 479.941,214.673 479.824,216L479.824,276C479.941,277.327 480,278.66 480,280C480,335.192 379.629,380 256,380C132.371,380 32,335.192 32,280L32,212Z" style="fill:none;stroke:rgb(47,57,68);stroke-width:4px;"/><ellipse cx="256" cy="280" rx="224" ry="100" style="fill:rgb(234,244,255);stroke:rgb(47,57,68);stroke-width:2px;"/><path d="M37,243L37,240L37.107,240C37.036,240.996 37,241.996 37,243ZM474.893,246L474.893,277C474.964,277.996 475,278.996 475,280C475,332.432 376.869,375 256,375C135.131,375 37,332.432 37,280L37,243C37,295.432 135.131,338 256,338C374.556,338 471.235,297.046 474.893,246Z" style="fill:rgb(167,215,255);fill-opacity:0.6;stroke:rgb(47,57,68);stroke-width:2px;"/><path d="M203.769,309.262L120,354.444L112,351.553L192.833,307.962C196.442,308.435 200.088,308.869 203.769,309.262ZM182.083,306.419L104,348.366L76,334.098L143.875,298.572C155.944,301.696 168.726,304.332 182.083,306.419ZM200.362,303.902L386.268,203.648C389.048,204.543 391.778,205.465 394.455,206.414L211.593,305.042C207.813,304.704 204.069,304.323 200.362,303.902ZM150.303,295.207L345.162,193.216C356.69,195.45 367.693,198.104 378.066,201.133L189.352,302.513C175.707,300.622 162.642,298.165 150.303,295.207Z" style="fill:white;stroke:rgb(47,57,68);stroke-width:1px;"/><path d="M37,212C37,201.597 40.863,191.583 48,182.212L48,241.788C40.863,232.417 37,222.403 37,212ZM464,241.788L464,182.291L464.059,182.289C471.158,191.638 475,201.626 475,212C475,222.403 471.137,232.417 464,241.788Z" style="fill:white;fill-opacity:0.6;stroke:rgb(47,57,68);stroke-width:1px;"/><path d="M32,280L32,212C32,156.808 132.371,112 256,112C379.629,112 480,156.808 480,212C480,213.34 479.941,214.673 479.824,216L479.824,276C475.114,222.66 376.628,180 256,180C132.371,180 32,224.808 32,280Z" style="fill:rgb(234,244,255);stroke:rgb(47,57,68);stroke-width:2px;"/><path d="M37,212C37,201.597 40.863,191.583 48,182.212L48,241.788C40.863,232.417 37,222.403 37,212ZM464,241.788L464,182.291L464.059,182.289C471.158,191.638 475,201.626 475,212C475,222.403 471.137,232.417 464,241.788Z" style="fill:white;fill-opacity:0.6;stroke:rgb(47,57,68);stroke-width:1px;"/><path d="M352,126.604L384,134.928L384,197.946L352,189.637L352,126.604Z" style="fill:white;fill-opacity:0.99;stroke:rgb(47,57,68);stroke-width:1px;"/><path d="M392,137.556L400,140.447L400,203.423L392,200.557L392,137.556Z" style="fill:white;fill-opacity:0.99;stroke:rgb(47,57,68);stroke-width:1px;"/><ellipse cx="256" cy="243" rx="219" ry="95" style="fill:rgb(167,215,255);fill-opacity:0.6;stroke:rgb(47,57,68);stroke-width:2px;"/><path d="M256,318C152.516,318 68.5,284.394 68.5,243C68.5,201.606 152.516,168 256,168C160.577,168 83.105,201.606 83.105,243C83.105,284.394 160.577,318 256,318ZM256,168C359.484,168 443.5,201.606 443.5,243C443.5,284.394 359.484,318 256,318C351.423,318 428.895,284.394 428.895,243C428.895,201.606 351.423,168 256,168Z" style="fill:rgb(234,244,255);fill-opacity:0.6;"/><path d="M256,293C187.011,293 131,270.596 131,243C131,215.404 187.011,193 256,193C192.385,193 140.737,215.404 140.737,243C140.737,270.596 192.385,293 256,293ZM256,193C324.989,193 381,215.404 381,243C381,270.596 324.989,293 256,293C319.615,293 371.263,270.596 371.263,243C371.263,215.404 319.615,193 256,193Z" style="fill:rgb(234,244,255);fill-opacity:0.6;"/><path d="M256,268C221.505,268 193.5,256.798 193.5,243C193.5,229.202 221.505,218 256,218C224.192,218 198.368,229.202 198.368,243C198.368,256.798 224.192,268 256,268ZM256,218C290.495,218 318.5,229.202 318.5,243C318.5,256.798 290.495,268 256,268C287.808,268 313.632,256.798 313.632,243C313.632,229.202 287.808,218 256,218Z" style="fill:rgb(234,244,255);fill-opacity:0.6;"/><path d="M76,271.501L104,285.428L104,348.366L76,334.098L76,271.501Z" style="fill:white;fill-opacity:0.99;stroke:rgb(47,57,68);stroke-width:1px;"/><path d="M112,288.577L120,291.443L120,354.444L112,351.553L112,288.577Z" style="fill:white;fill-opacity:0.99;stroke:rgb(47,57,68);stroke-width:1px;"/><ellipse cx="256" cy="280" rx="219" ry="95" style="fill:none;stroke:rgb(47,57,68);stroke-width:1px;"/><path d="M479.824,216L479.824,276C479.941,277.327 480,278.66 480,280C480,335.192 379.629,380 256,380C132.371,380 32,335.192 32,280L32,212C32,267.192 132.371,312 256,312C376.628,312 475.114,269.34 479.824,216Z" style="fill:rgb(234,244,255);fill-opacity:0.3;stroke:rgb(47,57,68);stroke-width:2px;"/><path d="M475,233.091L475,280C475,332.432 376.869,375 256,375C135.131,375 37,332.432 37,280L37,233.091C58.713,278.169 148.576,312 256,312C363.424,312 453.287,278.169 475,233.091Z" style="fill:none;stroke:rgb(47,57,68);stroke-width:1px;"/><ellipse cx="256" cy="212" rx="219" ry="95" style="fill:none;stroke:rgb(47,57,68);stroke-width:2px;"/><path d="M256,112C379.629,112 480,156.808 480,212C480,267.192 379.629,312 256,312C132.371,312 32,267.192 32,212C32,156.808 132.371,112 256,112ZM256,117C135.131,117 37,159.568 37,212C37,264.432 135.131,307 256,307C376.869,307 475,264.432 475,212C475,159.568 376.869,117 256,117Z" style="fill:rgb(234,244,255);stroke:rgb(47,57,68);stroke-width:2px;"/></svg>