<?xml version="1.0" encoding="UTF-8" standalone="no"?><!DOCTYPE svg PUBLIC "-//W3C//DTD SVG 1.1//EN" "http://www.w3.org/Graphics/SVG/1.1/DTD/svg11.dtd"><svg width="100%" height="100%" viewBox="0 0 512 512" version="1.1" xmlns="http://www.w3.org/2000/svg" xmlns:xlink="http://www.w3.org/1999/xlink" xml:space="preserve" xmlns:serif="http://www.serif.com/" style="fill-rule:evenodd;clip-rule:evenodd;stroke-linecap:round;stroke-linejoin:round;stroke-miterlimit:1.5;"><rect id="ArtBoard1" x="0" y="0" width="512" height="512" style="fill:none;"/><path d="M299.102,313.413L252.596,380.576C251.66,381.927 250.212,382.835 248.588,383.089C246.964,383.342 245.308,382.918 244.005,381.917L245.83,383.32L195.698,474.496C194.098,477.406 191.363,479.523 188.145,480.343C184.927,481.163 181.512,480.612 178.715,478.822C136.412,451.586 96.179,420.84 58.209,386.259C55.099,383.416 54.727,378.649 57.358,375.358C73.382,355.32 125.191,290.542 125.191,290.542L126.54,291.579C124.006,289.63 123.445,286.036 125.265,283.408L174.39,212.463C174.39,212.463 174.888,211.743 175.619,210.695C178.821,206.069 184.219,203.467 189.832,203.84C215.947,205.632 249.277,191.782 258.532,175.264C269.045,156.499 301.355,84.821 332.517,54.362C355.098,32.291 375.463,25.716 392.728,37.671C435.48,67.273 349.586,169.305 317.182,199.471C294.769,220.336 287.899,254.115 304.503,292.283C306.722,297.365 306.151,303.233 302.994,307.792L299.102,313.413L294.915,305.406L175.401,218.028L294.802,305.57L299.102,313.413ZM371.09,66.475C366.828,63.524 359.286,67.022 354.259,74.282C349.232,81.543 348.611,89.833 352.873,92.784C357.134,95.735 364.676,92.236 369.703,84.976C374.73,77.716 375.351,69.426 371.09,66.475Z" style="fill:rgb(173,179,77);fill-opacity:0.3;"/><path d="M120.654,289.81C119.765,286.964 120.158,283.758 121.977,281.131L171.101,210.186C171.101,210.186 171.602,209.462 172.33,208.418C176.334,202.636 183.081,199.382 190.098,199.849L190.106,199.85C205.083,200.877 222.535,196.489 236.017,189.431C244.635,184.919 251.65,179.364 255.042,173.309C265.639,154.394 298.31,82.204 329.721,51.502C354.112,27.661 376.356,21.469 395.005,34.382C409.216,44.222 411.217,61.154 405.219,81.123C392.408,123.776 342.915,180.981 319.908,202.399C298.597,222.237 292.384,254.397 308.169,290.682C310.942,297.035 310.228,304.37 306.283,310.069L255.884,382.853C254.325,385.105 251.911,386.619 249.205,387.041C248.902,387.088 248.598,387.121 248.295,387.141L199.203,476.423C197.07,480.303 193.424,483.126 189.132,484.219C184.841,485.313 180.289,484.578 176.559,482.192L176.549,482.186C134.061,454.83 93.653,423.949 55.516,389.216L55.511,389.211C50.845,384.948 50.287,377.796 54.234,372.86L120.654,289.81ZM299.102,313.413L294.802,305.57L175.401,218.028L294.915,305.406L299.102,313.413L302.994,307.792C306.151,303.233 306.722,297.365 304.503,292.283C287.899,254.115 294.769,220.336 317.182,199.471C349.586,169.305 435.48,67.273 392.728,37.671C375.463,25.716 355.098,32.291 332.517,54.362C301.355,84.821 269.045,156.499 258.532,175.264C249.277,191.782 215.947,205.632 189.832,203.84C184.219,203.467 178.821,206.069 175.619,210.695C174.888,211.743 174.39,212.463 174.39,212.463L125.265,283.408C123.445,286.036 124.006,289.63 126.54,291.579L125.191,290.542C125.191,290.542 73.382,355.32 57.358,375.358C54.727,378.649 55.099,383.416 58.209,386.259C96.179,420.84 136.412,451.586 178.715,478.822C181.512,480.612 184.927,481.163 188.145,480.343C191.363,479.523 194.098,477.406 195.698,474.496L245.83,383.32L244.005,381.917C245.308,382.918 246.964,383.342 248.588,383.089C250.212,382.835 251.66,381.927 252.596,380.576L299.102,313.413ZM371.09,66.475C375.351,69.426 374.73,77.716 369.703,84.976C364.676,92.236 357.134,95.735 352.873,92.784C348.611,89.833 349.232,81.543 354.259,74.282C359.286,67.022 366.828,63.524 371.09,66.475ZM368.812,69.764C367.714,69.003 366.214,69.45 364.645,70.178C362.147,71.337 359.608,73.584 357.548,76.56C355.487,79.536 354.277,82.702 354.071,85.448C353.942,87.173 354.052,88.735 355.15,89.495C356.248,90.255 357.748,89.809 359.318,89.081C361.815,87.922 364.354,85.675 366.414,82.699C368.475,79.723 369.685,76.556 369.891,73.811C370.02,72.085 369.91,70.524 368.812,69.764Z" style="fill:rgb(47,57,68);"/><path d="M299.102,313.413L253.559,379.185L126.57,281.523L169.836,219.04L178.69,220.306L294.802,305.57L299.102,313.413Z" style="fill:rgb(128,128,128);fill-opacity:0.3;stroke:rgb(47,57,68);stroke-width:2px;"/><path d="M296.824,316.702L262.668,366.03L258.595,357.859L144.305,269.963L135.679,268.369L167.559,222.328L176.413,223.594L292.524,308.859L296.824,316.702Z" style="fill:rgb(128,128,128);fill-opacity:0.3;stroke:rgb(47,57,68);stroke-width:2px;"/><path d="M292.524,308.859L258.595,357.859L144.305,269.963L176.41,223.594L292.524,308.859Z" style="fill:rgb(128,128,128);fill-opacity:0.3;stroke:rgb(47,57,68);stroke-width:2px;"/><path d="M258.113,372.608L253.559,379.185L126.57,281.523L131.125,274.946L139.751,276.54L254.041,364.436L258.113,372.608Z" style="fill:none;stroke:rgb(47,57,68);stroke-width:2px;"/><path d="M258.113,372.608C258.113,372.608 255.144,376.896 252.596,380.576C251.66,381.927 250.212,382.835 248.588,383.089C246.964,383.342 245.308,382.918 244.005,381.917C223.515,366.158 146.123,306.64 126.54,291.579C124.006,289.63 123.445,286.036 125.265,283.408C127.881,279.63 131.125,274.946 131.125,274.946L139.751,276.54L254.041,364.436L258.113,372.608Z" style="fill:rgb(128,128,128);fill-opacity:0.3;stroke:rgb(47,57,68);stroke-width:2px;"/><path d="M245.83,383.32C245.83,383.32 210.299,447.941 195.698,474.496C194.098,477.406 191.363,479.523 188.145,480.343C184.927,481.163 181.512,480.612 178.715,478.822C136.412,451.586 96.179,420.84 58.209,386.259C55.099,383.416 54.727,378.649 57.358,375.358C73.382,355.32 125.191,290.542 125.191,290.542L245.83,383.32Z" style="fill:rgb(173,179,77);fill-opacity:0.3;stroke:rgb(47,57,68);stroke-width:2px;"/><path d="M63.607,380.354L131.533,295.419L240.074,378.893L188.688,470.642C188.154,471.612 187.243,472.317 186.17,472.591C185.102,472.863 183.97,472.682 183.04,472.093C141.109,445.095 101.237,414.624 63.607,380.354Z" style="fill:rgb(173,179,77);fill-opacity:0.3;stroke:rgb(47,57,68);stroke-width:2px;"/><path d="M235.851,376.653L180.946,469.999L177.239,468.326L233.131,373.554L229.957,371.113L170.562,463.915L163.926,459.447L223.607,366.23L217.258,361.346L160.623,457.191L152.396,451.505L214.083,358.905L207.734,354.022L147.509,448.023L142.531,444.674L203.446,350.725L198.209,346.697L134.556,438.624L128.14,433.837L191.86,341.814L185.511,336.931L121.765,428.992L117.346,425.581L182.222,334.654L175.986,329.606L109.135,419.125L105.127,415.917L169.637,324.723L164.875,321.061L101.325,412.839L96.669,409.023L160.113,317.399L156.938,314.957L93.578,406.46L87.427,401.291L153.763,312.515L147.414,307.632L84.367,398.684L81.317,396.062L144.239,305.191L141.065,302.749L75.249,390.773L72.23,388.106L134.715,297.866L131.533,295.419L66.223,382.728" style="fill:none;stroke:rgb(47,57,68);stroke-width:1px;"/><path d="M299.102,313.413L294.915,305.406L178.628,220.394L169.836,219.04L174.39,212.463C174.39,212.463 174.888,211.743 175.619,210.695C178.821,206.069 184.219,203.467 189.832,203.84C215.947,205.632 249.277,191.782 258.532,175.264C269.045,156.499 301.355,84.821 332.517,54.362C355.098,32.291 375.463,25.716 392.728,37.671C435.48,67.273 349.586,169.305 317.182,199.471C294.769,220.336 287.899,254.115 304.503,292.283C306.722,297.365 306.151,303.233 302.994,307.792L299.102,313.413ZM373.5,58.413C366.24,53.386 354.224,58.146 346.683,69.036C339.142,79.927 338.914,92.849 346.175,97.876C353.435,102.903 365.451,98.143 372.992,87.253C380.532,76.363 380.76,63.441 373.5,58.413Z" style="fill:rgb(173,179,77);fill-opacity:0.3;stroke:rgb(47,57,68);stroke-width:2px;"/><path d="M178.69,220.306C180.989,216.878 185.205,212.653 192.59,214.1C209.348,217.382 226.232,208.099 241.583,200.062C252.559,194.316 262.285,181.857 266.606,174.144C276.95,155.68 307.446,90.054 338.109,60.083C357.086,41.535 373.665,34.201 388.174,44.248C398.307,51.264 397.037,63.749 393.58,78.661C381.969,128.743 330.761,175.231 311.099,198.042C266.662,249.596 295.816,279.513 297.761,296.929L297.763,296.932C297.901,302.851 294.841,305.111 294.915,305.406L178.69,220.306ZM373.5,58.413C366.24,53.386 354.224,58.146 346.683,69.036C339.142,79.927 338.914,92.849 346.175,97.876C353.435,102.903 365.451,98.143 372.992,87.253C380.532,76.363 380.76,63.441 373.5,58.413Z" style="fill:rgb(173,179,77);fill-opacity:0.3;stroke:rgb(47,57,68);stroke-width:2px;"/><path d="M373.5,58.413C380.76,63.441 380.532,76.363 372.992,87.253C365.451,98.143 353.435,102.903 346.175,97.876C338.914,92.849 339.142,79.927 346.683,69.036C354.224,58.146 366.24,53.386 373.5,58.413ZM371.09,66.475C366.828,63.524 359.286,67.022 354.259,74.282C349.232,81.543 348.611,89.833 352.873,92.784C357.134,95.735 364.676,92.236 369.703,84.976C374.73,77.716 375.351,69.426 371.09,66.475Z" style="fill:rgb(173,179,77);fill-opacity:0.3;stroke:rgb(47,57,68);stroke-width:2px;"/><path d="M254.041,364.436L247.21,374.302L132.92,286.406L139.751,276.54L254.041,364.436Z" style="fill:rgb(128,128,128);fill-opacity:0.3;stroke:rgb(47,57,68);stroke-width:2px;"/></svg>