<?xml version="1.0" encoding="UTF-8" standalone="no"?><!DOCTYPE svg PUBLIC "-//W3C//DTD SVG 1.1//EN" "http://www.w3.org/Graphics/SVG/1.1/DTD/svg11.dtd"><svg width="100%" height="100%" viewBox="0 0 512 512" version="1.1" xmlns="http://www.w3.org/2000/svg" xmlns:xlink="http://www.w3.org/1999/xlink" xml:space="preserve" xmlns:serif="http://www.serif.com/" style="fill-rule:evenodd;clip-rule:evenodd;stroke-linecap:round;stroke-linejoin:round;stroke-miterlimit:1.5;"><rect id="ArtBoard1" x="0" y="0" width="512" height="512" style="fill:none;"/><path d="M128.528,442.682C127.706,449.987 126.126,474.935 126.054,475.688C125.756,478.798 123.123,481.159 120,481.117C116.876,481.074 114.308,478.643 114.095,475.527L111.45,436.847C111.363,435.575 111.684,434.308 112.366,433.23L201.815,291.882C201.88,291.78 201.948,291.68 202.019,291.581L384.597,38.404C384.726,38.224 384.866,38.051 385.015,37.887C387.959,34.633 392.039,33.084 396.604,32.972C400.974,32.866 405.806,34.093 410.397,36.339C418.406,40.256 424.657,47.156 427.003,53.649C429.04,59.285 428.411,64.714 424.963,68.862C420.317,75.421 309.492,231.776 238.173,322.535C223.698,340.956 200.733,365.611 200.733,365.611L200.721,365.623L128.528,442.682Z" style="fill:rgb(128,128,128);fill-opacity:0.3;stroke:rgb(47,57,68);stroke-width:4px;"/><path d="M120.081,475.117L117.436,436.438L206.885,295.091L389.463,41.913C391.302,39.882 393.901,39.04 396.75,38.97C400.244,38.885 404.09,39.933 407.761,41.728C418.606,47.033 425.783,58.778 420.216,65.182C420.216,65.182 306.243,226.2 233.455,318.828C219.108,337.086 196.343,361.521 196.343,361.521L122.91,439.903C122.305,440.548 120.165,474.237 120.081,475.117Z" style="fill:rgb(128,128,128);fill-opacity:0.3;stroke:rgb(47,57,68);stroke-width:2px;"/><path d="M148.105,376.755L100.528,420.916C99.198,428.146 95.881,452.923 95.757,453.67C95.243,456.751 92.452,458.923 89.339,458.662C86.226,458.402 83.833,455.798 83.838,452.674L83.898,413.905C83.9,412.629 84.309,411.387 85.064,410.36L184.155,275.596C184.227,275.499 184.302,275.403 184.379,275.31L384.173,35.485C384.315,35.315 384.467,35.152 384.626,34.999C387.791,31.959 391.969,30.697 396.53,30.905C400.897,31.103 405.632,32.665 410.055,35.225C412.74,36.779 415.188,38.679 417.318,40.776C415.226,39.075 412.897,37.561 410.397,36.339C405.806,34.093 400.974,32.866 396.604,32.972C392.039,33.084 387.959,34.633 385.015,37.887C384.866,38.051 384.726,38.224 384.597,38.404L202.019,291.581C201.948,291.68 201.88,291.78 201.815,291.882L148.105,376.755Z" style="fill:rgb(128,128,128);fill-opacity:0.3;stroke:rgb(47,57,68);stroke-width:4px;"/><path d="M160.661,356.915L95.116,417.752C94.468,418.354 89.984,451.811 89.838,452.683L89.898,413.914L188.989,279.15L352.677,82.666L202.019,291.581C201.948,291.68 201.88,291.78 201.815,291.882L160.661,356.915Z" style="fill:rgb(64,64,64);fill-opacity:0.3;stroke:rgb(47,57,68);stroke-width:2px;"/><path d="M312.704,201.993C312.053,202.884 310.801,203.08 309.91,202.429L293.753,190.641C292.861,189.99 292.666,188.738 293.316,187.846C293.967,186.955 295.219,186.759 296.111,187.409L312.267,199.198C313.159,199.849 313.355,201.101 312.704,201.993ZM305.61,211.716C304.959,212.607 303.707,212.803 302.815,212.152L286.659,200.364C285.767,199.713 285.571,198.461 286.222,197.569C286.872,196.678 288.125,196.482 289.016,197.133L305.173,208.921C306.064,209.572 306.26,210.824 305.61,211.716ZM298.558,221.38C297.907,222.272 296.655,222.468 295.763,221.817L279.607,210.028C278.715,209.378 278.519,208.126 279.17,207.234C279.821,206.342 281.073,206.146 281.965,206.797L298.121,218.586C299.013,219.236 299.208,220.489 298.558,221.38ZM291.506,231.045C290.855,231.936 289.603,232.132 288.711,231.482L272.555,219.693C271.663,219.042 271.468,217.79 272.118,216.898C272.769,216.007 274.021,215.811 274.913,216.462L291.069,228.25C291.961,228.901 292.157,230.153 291.506,231.045ZM284.454,240.709C283.804,241.601 282.551,241.797 281.66,241.146L265.503,229.358C264.612,228.707 264.416,227.455 265.066,226.563C265.717,225.671 266.969,225.476 267.861,226.126L284.017,237.915C284.909,238.565 285.105,239.818 284.454,240.709ZM277.402,250.374C276.752,251.266 275.5,251.461 274.608,250.811L258.451,239.022C257.56,238.371 257.364,237.119 258.015,236.228C258.665,235.336 259.917,235.14 260.809,235.791L276.966,247.579C277.857,248.23 278.053,249.482 277.402,250.374ZM270.351,260.038C269.7,260.93 268.448,261.126 267.556,260.475L251.4,248.687C250.508,248.036 250.312,246.784 250.963,245.892C251.614,245 252.866,244.805 253.757,245.455L269.914,257.244C270.805,257.895 271.001,259.147 270.351,260.038ZM263.299,269.703C262.648,270.595 261.396,270.79 260.504,270.14L244.348,258.351C243.456,257.701 243.26,256.448 243.911,255.557C244.562,254.665 245.814,254.469 246.706,255.12L262.862,266.909C263.754,267.559 263.949,268.811 263.299,269.703ZM256.247,279.368C255.596,280.259 254.344,280.455 253.453,279.804L237.296,268.016C236.404,267.365 236.209,266.113 236.859,265.221C237.51,264.33 238.762,264.134 239.654,264.784L255.81,276.573C256.702,277.224 256.898,278.476 256.247,279.368ZM249.195,289.032C248.545,289.924 247.292,290.12 246.401,289.469L230.244,277.68C229.353,277.03 229.157,275.778 229.808,274.886C230.458,273.994 231.71,273.798 232.602,274.449L248.758,286.238C249.65,286.888 249.846,288.14 249.195,289.032ZM242.143,298.697C241.493,299.588 240.241,299.784 239.349,299.133L223.193,287.345C222.301,286.694 222.105,285.442 222.756,284.55C223.406,283.659 224.659,283.463 225.55,284.114L241.707,295.902C242.598,296.553 242.794,297.805 242.143,298.697ZM235.092,308.361C234.441,309.253 233.189,309.449 232.297,308.798L216.141,297.009C215.249,296.359 215.053,295.107 215.704,294.215C216.355,293.323 217.607,293.128 218.498,293.778L234.655,305.567C235.547,306.217 235.742,307.47 235.092,308.361Z" style="fill:rgb(128,128,128);fill-opacity:0.3;stroke:rgb(47,57,68);stroke-width:1px;"/></svg>