<?xml version="1.0" encoding="UTF-8" standalone="no"?><!DOCTYPE svg PUBLIC "-//W3C//DTD SVG 1.1//EN" "http://www.w3.org/Graphics/SVG/1.1/DTD/svg11.dtd"><svg width="100%" height="100%" viewBox="0 0 512 512" version="1.1" xmlns="http://www.w3.org/2000/svg" xmlns:xlink="http://www.w3.org/1999/xlink" xml:space="preserve" xmlns:serif="http://www.serif.com/" style="fill-rule:evenodd;clip-rule:evenodd;stroke-linecap:round;stroke-linejoin:round;stroke-miterlimit:1.5;"><rect id="ArtBoard1" x="0" y="0" width="512" height="512" style="fill:none;"/><path d="M39.255,470.572C39.255,470.572 77.581,421.633 98.947,399.038C150.417,344.607 344.255,152.25 348.078,143.986C355.544,127.845 356.436,117.811 377.156,97.091C446.183,28.064 462.763,16.971 480.755,34.932L480.786,34.962C498.746,52.954 487.653,69.535 418.626,138.562C397.906,159.282 387.872,160.173 371.732,167.64C363.468,171.463 171.111,365.301 116.68,416.771C94.085,438.137 45.145,476.463 45.145,476.463C43.681,477.927 41.387,478.064 39.76,476.877L38.841,475.958C37.653,474.33 37.79,472.037 39.255,470.572Z" style="fill:rgb(234,244,255);fill-opacity:0.3;stroke:rgb(47,57,68);stroke-width:4px;"/><path d="M223.551,272.201C226.956,271.262 232.547,273.667 237.283,278.404C242.059,283.18 244.465,288.825 243.462,292.221C243.462,292.221 140.99,393.783 116.68,416.771C94.085,438.137 45.145,476.463 45.145,476.463C43.681,477.927 41.387,478.064 39.76,476.877L38.841,475.958C37.653,474.33 37.79,472.037 39.255,470.572C39.255,470.572 77.581,421.633 98.947,399.038C121.943,374.719 223.551,272.201 223.551,272.201Z" style="fill:rgb(168,215,255);fill-opacity:0.3;stroke:rgb(47,57,68);stroke-width:2px;"/><path d="M45.12,470.567C46.74,472.187 46.74,474.818 45.12,476.438C43.5,478.058 40.87,478.058 39.25,476.438C37.629,474.818 37.629,472.187 39.25,470.567C40.87,468.947 43.5,468.947 45.12,470.567Z" style="fill:rgb(234,244,255);fill-opacity:0.3;stroke:rgb(47,57,68);stroke-width:2px;"/><path d="M43.599,472.088C44.38,472.869 44.38,474.136 43.599,474.916C42.819,475.697 41.551,475.697 40.771,474.916C39.99,474.136 39.99,472.869 40.771,472.088C41.551,471.308 42.819,471.308 43.599,472.088Z" style="fill:rgb(234,244,255);fill-opacity:0.3;stroke:rgb(47,57,68);stroke-width:1px;"/><path d="M215.687,279.28C218.546,276.421 225.509,278.742 231.227,284.46C236.945,290.178 239.266,297.141 236.407,300" style="fill:none;stroke:rgb(47,57,68);stroke-width:1px;"/><path d="M42.079,471.505C87.061,424.181 279.598,229.024 332.037,174.625C341.496,164.812 348.493,157.377 352.108,153.227C354.516,150.462 355.778,148.498 356.14,147.716C363.187,132.484 363.885,122.926 383.438,103.373C417.189,69.622 438.027,49.931 452.717,40.977C458.055,37.723 464.229,33 473.473,42.244C482,50.771 477.994,57.663 474.741,63C465.786,77.691 446.096,98.528 412.345,132.28C392.791,151.833 383.234,152.531 368.002,159.577C367.22,159.939 365.256,161.202 362.491,163.609C358.34,167.225 350.906,174.221 341.093,183.681C286.694,236.12 91.507,428.627 44.182,473.609" style="fill:none;stroke:rgb(47,57,68);stroke-width:1px;"/></svg>