<?xml version="1.0" encoding="UTF-8" standalone="no"?><!DOCTYPE svg PUBLIC "-//W3C//DTD SVG 1.1//EN" "http://www.w3.org/Graphics/SVG/1.1/DTD/svg11.dtd"><svg width="100%" height="100%" viewBox="0 0 512 512" version="1.1" xmlns="http://www.w3.org/2000/svg" xmlns:xlink="http://www.w3.org/1999/xlink" xml:space="preserve" xmlns:serif="http://www.serif.com/" style="fill-rule:evenodd;clip-rule:evenodd;stroke-linecap:round;stroke-linejoin:round;stroke-miterlimit:1.5;"><rect id="SLIDE" x="0" y="0" width="512" height="512" style="fill:none;"/><path d="M396,132L479.997,195.998L480,195.997L480,208.039L479.966,208.013L116,352.039L32,288L32,275.997L396,132Z" style="fill:rgb(234,244,255);fill-opacity:0.3;stroke:rgb(47,57,68);stroke-width:4px;"/><path d="M480,208L480,195.997L116,340L116,352.039L480,208Z" style="fill:rgb(234,244,255);fill-opacity:0.09;stroke:rgb(47,57,68);stroke-width:2px;"/><path d="M52,281.924L60.435,278.729L55.536,275.095L59.003,273.821L63.902,277.415L72.002,274.346L74.109,275.853L66.01,278.962L71.007,282.628L67.54,284L62.543,280.293L54.107,283.53L52,281.924Z" style="fill:white;"/><clipPath id="_clip1"><path d="M52,281.924L60.435,278.729L55.536,275.095L59.003,273.821L63.902,277.415L72.002,274.346L74.109,275.853L66.01,278.962L71.007,282.628L67.54,284L62.543,280.293L54.107,283.53L52,281.924Z"/></clipPath><g clip-path="url(#_clip1)"><path d="M110.29,326.959L118.725,323.763L113.826,320.129L117.293,318.855L122.192,322.45L130.292,319.381L132.4,320.887L124.3,323.996L129.297,327.663L125.83,329.035L120.833,325.327L112.398,328.565L110.29,326.959Z" style="fill:white;stroke:rgb(47,57,68);stroke-width:1px;stroke-linecap:butt;stroke-miterlimit:2;"/></g><path d="M52,281.924L60.435,278.729L55.536,275.095L59.003,273.821L63.902,277.415L72.002,274.346L74.109,275.853L66.01,278.962L71.007,282.628L67.54,284L62.543,280.293L54.107,283.53L52,281.924Z" style="fill:none;stroke:rgb(47,57,68);stroke-width:1px;stroke-linecap:butt;stroke-miterlimit:2;"/><path d="M480,196L396,132L32,276L116,340L480,196Z" style="fill:rgb(234,244,255);fill-opacity:0.3;stroke:rgb(47,57,68);stroke-width:2px;"/><path d="M480,196L396,132L328,158.901L412,222.901L480,196Z" style="fill:rgb(234,244,255);fill-opacity:0.3;stroke:rgb(47,57,68);stroke-width:2px;"/><path d="M472,194.535L396,136.63L40,277.465L116,335.37L472,194.535Z" style="fill:none;stroke:rgb(47,57,68);stroke-width:1px;"/><path d="M296,264.161L236,288L224,204.674L280,182.52L296,264.161Z" style="fill:white;fill-opacity:0.3;stroke:rgb(47,57,68);stroke-width:1px;"/><path d="M328,251.502L308,259.414L292,177.773L312,169.861L328,251.502Z" style="fill:white;fill-opacity:0.3;stroke:rgb(47,57,68);stroke-width:1px;"/><path d="M265.542,225.975C265.968,226.082 265.79,226.154 265.823,227.46C265.851,228.578 267.327,229.008 266.104,228.944C265.95,228.936 265.195,228.896 264.535,227.828C264.188,227.267 265.238,225.742 265.542,225.975ZM293.56,246.792C293.254,247.514 288.149,248.181 285.47,247.96C281.34,247.619 278.481,245.125 279.59,244.345C280.529,244.235 281.571,245.903 285.348,246.852C286.148,247.053 293.77,246.296 293.56,246.792ZM288.517,251.179C288.035,251.154 286.476,249.969 285.329,249.529C283.963,249.005 280.152,248.865 280.089,248.534C281.656,247.575 285.836,248.728 286.317,248.86C288.259,249.396 289.295,251.22 288.517,251.179ZM272.425,262.328C272.498,264.158 265.149,261.185 264.018,259.277C262.962,257.496 266.28,251.225 269.082,250.895C270.132,251.275 266.26,255.759 267.4,258.65C268.174,260.611 271.282,261.454 272.425,262.328ZM237.807,276.422C235.505,279.717 218.021,279.637 213.505,275.148C209.069,270.738 217.174,262.611 221.171,263.07C221.733,263.211 212.812,269.52 216.722,273.764C221.163,278.584 237.749,276.117 237.807,276.422ZM224.37,259.811C226.981,257.217 234.352,256.803 237.299,258.285C239.6,259.443 241.805,265.619 240.144,265.532C239.676,266.109 236.398,260.168 234.91,259.629C230.99,258.207 224.447,260.215 224.37,259.811ZM246.385,255.089C243.8,256.544 215.23,254.566 208.745,245.963C208.382,245.48 205.062,241.076 208.04,238.447C212.494,243.063 209.759,247.325 227.412,251.879C230.508,252.678 245.294,253.2 246.385,255.089ZM196.532,252.478C196.799,255.806 190.186,259.673 186.491,256.849C187.173,256.008 191.104,256.136 191.896,255.908C192.339,255.78 195.131,254.977 196.532,252.478ZM189.654,247.221C189.841,248.203 181.173,244.281 177.244,245.348C164.674,248.76 174.827,255.04 173.537,255.192C155.946,248.679 181.441,237.797 189.654,247.221ZM195.402,221.803C206.157,232.537 229.783,226.538 222.121,223.205C225.181,222.391 227.475,224.841 224.592,226.999C216.732,232.881 191.014,227.897 195.402,221.803ZM246.32,242.355C238.013,241.255 239.271,231.18 247.614,227.483C248.001,228.564 243.863,233.778 243.476,235.104C242.547,238.29 245.896,241.898 246.32,242.355ZM238.073,236.045C236.092,233.457 230.623,231.905 229.911,231.704C226.916,230.854 227.075,230.813 224.076,230.412C228.189,228.009 239.55,232.019 238.073,236.045ZM361.776,185.694C362.249,185.813 362.051,185.892 362.086,187.347C362.116,188.591 363.756,189.072 362.396,189C362.225,188.991 361.386,188.947 360.652,187.756C360.268,187.132 361.438,185.435 361.776,185.694ZM392.905,208.88C392.563,209.684 386.884,210.425 383.906,210.178C379.313,209.797 376.137,207.02 377.372,206.152C378.416,206.029 379.573,207.887 383.772,208.944C384.661,209.168 393.14,208.327 392.905,208.88ZM387.29,213.763C386.754,213.735 385.021,212.415 383.746,211.925C382.228,211.341 377.99,211.184 377.92,210.815C379.664,209.748 384.312,211.033 384.846,211.181C387.005,211.777 388.155,213.809 387.29,213.763ZM369.375,226.173C369.453,228.21 361.285,224.898 360.029,222.773C358.857,220.79 362.558,213.808 365.675,213.442C366.841,213.865 362.528,218.858 363.792,222.076C364.65,224.26 368.105,225.199 369.375,226.173ZM330.852,241.856C328.286,245.525 308.84,245.431 303.824,240.433C298.896,235.521 307.923,226.474 312.368,226.987C312.993,227.144 303.061,234.167 307.404,238.892C312.336,244.259 330.788,241.517 330.852,241.856ZM315.931,223.359C318.839,220.471 327.038,220.012 330.313,221.663C332.871,222.952 335.314,229.83 333.466,229.732C332.945,230.375 329.308,223.759 327.655,223.158C323.297,221.574 316.016,223.809 315.931,223.359ZM340.424,218.107C337.546,219.726 305.772,217.517 298.572,207.936C298.168,207.398 294.482,202.493 297.799,199.567C302.746,204.708 299.695,209.453 319.327,214.528C322.768,215.418 339.213,216.003 340.424,218.107ZM284.978,215.188C285.271,218.894 277.909,223.197 273.803,220.053C274.563,219.116 278.934,219.259 279.816,219.006C280.31,218.864 283.415,217.97 284.978,215.188ZM277.335,209.332C277.541,210.426 267.906,206.057 263.534,207.244C249.546,211.04 260.832,218.035 259.397,218.205C239.838,210.948 268.213,198.837 277.335,209.332ZM283.765,181.031C295.713,192.986 322.002,186.311 313.484,182.599C316.888,181.693 319.437,184.422 316.226,186.824C307.474,193.371 278.876,187.816 283.765,181.031ZM340.37,203.927C331.134,202.701 332.546,191.483 341.833,187.369C342.261,188.572 337.651,194.376 337.219,195.853C336.181,199.4 339.899,203.418 340.37,203.927ZM331.207,196.899C329.008,194.018 322.927,192.289 322.136,192.064C318.806,191.117 318.983,191.071 315.647,190.624C320.226,187.95 332.856,192.417 331.207,196.899ZM169.516,273.217C169.953,273.326 169.77,273.4 169.806,274.738C169.837,275.884 171.353,276.325 170.096,276.259C169.939,276.251 169.164,276.21 168.485,275.115C168.128,274.541 169.203,272.978 169.516,273.217ZM198.295,294.544C197.982,295.283 192.746,295.968 189.996,295.742C185.758,295.393 182.821,292.839 183.958,292.039C184.921,291.926 185.993,293.635 189.869,294.607C190.691,294.813 198.51,294.034 198.295,294.544ZM193.128,299.041C192.633,299.015 191.031,297.801 189.854,297.35C188.452,296.813 184.541,296.671 184.476,296.331C186.082,295.349 190.373,296.529 190.867,296.665C192.86,297.213 193.926,299.082 193.128,299.041ZM176.632,310.471C176.71,312.346 169.166,309.301 168.002,307.345C166.915,305.521 170.311,299.093 173.186,298.754C174.263,299.143 170.297,303.74 171.472,306.703C172.269,308.712 175.459,309.576 176.632,310.471ZM127.321,307.903C129.996,305.244 137.558,304.818 140.584,306.336C142.947,307.522 145.219,313.851 143.514,313.763C143.035,314.354 139.663,308.266 138.136,307.714C134.111,306.257 127.4,308.317 127.321,307.903ZM149.903,303.059C147.252,304.55 117.934,302.53 111.267,293.715C110.894,293.221 107.48,288.707 110.532,286.013C115.11,290.743 112.312,295.112 130.43,299.774C133.608,300.591 148.78,301.123 149.903,303.059ZM98.745,300.396C99.025,303.806 92.245,307.77 88.449,304.878C89.147,304.016 93.181,304.145 93.993,303.912C94.447,303.781 97.311,302.957 98.745,300.396ZM97.538,268.958C108.591,279.956 132.825,273.802 124.957,270.388C128.097,269.553 130.453,272.064 127.498,274.276C119.442,280.306 93.046,275.205 97.538,268.958ZM149.816,290.008C141.291,288.883 142.567,278.557 151.122,274.766C151.52,275.874 147.282,281.218 146.888,282.577C145.939,285.843 149.381,289.54 149.816,290.008ZM141.345,283.543C139.309,280.892 133.694,279.303 132.964,279.096C129.889,278.226 130.052,278.184 126.974,277.774C131.191,275.31 142.854,279.417 141.345,283.543Z" style="fill:rgb(113,103,142);fill-opacity:0.6;stroke:rgb(47,57,68);stroke-opacity:0.6;stroke-width:1px;"/><g><path d="M480,195.997C457.331,204.965 434.662,213.933 411.993,222.901C383.995,201.568 355.998,180.234 328,158.901C350.667,150.154 373.333,141.407 396,132.66C424,153.772 452,174.884 480,195.997Z" style="fill:white;stroke:rgb(47,57,68);stroke-width:1px;"/><path d="M390.524,138.541L395.767,137.31L396.449,137.825L392.084,138.851L393.776,140.128L392.9,140.335L390.524,138.541ZM397.13,139.768L397.781,140.259L395.533,140.79L395.042,140.918L394.874,141.071L394.969,141.259L395.184,141.37L395.493,141.447L395.861,141.486L396.302,141.466L396.861,141.356L398.67,140.93L399.321,141.422L395.524,142.316L394.916,141.857L395.431,141.736C394.507,141.637 394.13,141.352 394.038,141.282L393.803,140.84L394.257,140.47L395.013,140.266L397.13,139.768ZM399.952,141.898L400.565,142.36L400.103,142.468L401.334,142.852L401.599,143.229L401.359,143.537L402.133,143.646L402.786,143.948L403.025,144.369L402.628,144.707L401.975,144.887L399.653,145.434L399.002,144.942L401.324,144.395L401.808,144.272L401.964,144.143L401.863,143.977L401.079,143.785L399.952,143.952L398.228,144.358L397.577,143.866L399.872,143.325L400.371,143.191L400.521,143.059L400.426,142.893L400.119,142.76L399.682,142.703L399.145,142.744L398.551,142.872L396.806,143.284L396.154,142.792L399.952,141.898ZM400.289,145.914L405.53,144.676L406.184,145.169L404.431,145.582L405.031,145.732L405.449,145.957C405.83,146.245 405.73,146.505 405.711,146.553C405.591,146.862 404.998,147.092 404.925,147.12L403.944,147.377L402.967,147.427L402.193,147.293L401.648,147.029C401.13,146.638 401.463,146.264 401.508,146.214L400.881,146.361L400.289,145.914ZM402.51,146.056L402.108,146.369L402.224,146.694L402.697,146.867L403.459,146.854L404.272,146.652L404.689,146.339L404.568,146.019L403.836,145.82L402.51,146.056ZM406.909,147.147L407.517,147.607L406.781,147.781C407.838,147.76 408.142,147.99 408.235,148.06L408.441,148.325L407.463,148.419L407.317,148.26L406.802,148.07L406.067,148.045L404.954,148.256L403.762,148.536L403.111,148.044L406.909,147.147ZM410.199,148.199L410.85,148.69L409.922,148.911L409.27,148.419L410.199,148.199ZM408.755,148.541L409.407,149.033L405.609,149.93L404.957,149.438L408.755,148.541ZM409.126,151.167L409.62,151.7L408.279,151.691L407.267,151.271C406.805,150.923 406.893,150.632 406.91,150.573C406.932,150.5 407.016,150.223 407.673,149.968L408.851,149.698L410.096,149.778L411.093,150.216C411.52,150.539 411.48,150.791 411.471,150.849C411.462,150.905 411.421,151.159 410.957,151.376L410.247,150.942L410.529,150.691L410.395,150.441L409.85,150.25L409.024,150.283L408.218,150.496L407.873,150.75L407.976,151.008L408.433,151.176L409.126,151.167ZM412.631,151.466L413.283,151.958L411.035,152.491L410.543,152.62L410.375,152.773L410.47,152.962L410.686,153.074L410.995,153.151L411.363,153.19L411.805,153.169L412.364,153.058L414.174,152.63L414.827,153.123L411.028,154.022L410.419,153.562L410.934,153.44C410.009,153.342 409.631,153.056 409.539,152.986L409.303,152.543L409.757,152.172L410.513,151.966L412.631,151.466ZM411.676,154.511L416.92,153.27L417.571,153.761L412.328,155.004L411.676,154.511ZM416.768,154.588L417.421,155.08L415.172,155.614L414.68,155.743L414.512,155.897L414.608,156.086L414.823,156.197L415.133,156.275L415.501,156.313L415.943,156.292L416.502,156.182L418.312,155.753L418.965,156.246L415.166,157.146L414.556,156.686L415.071,156.564C414.147,156.466 413.768,156.18 413.676,156.11L413.44,155.666L413.893,155.295L414.65,155.089L416.768,154.588ZM416.656,157.217L417.425,157.641L417.248,157.95L417.476,158.251L417.969,158.468L418.289,158.45L418.403,158.351L418.299,158.082L417.989,157.364L418.401,156.952L419.288,156.851C419.398,156.863 419.98,156.923 420.566,157.366L421.039,157.988L420.712,158.462L419.967,158.062L420.082,157.841L419.852,157.529L419.465,157.343L419.161,157.358L419.047,157.507L419.24,157.851L419.507,158.478L419.114,158.892L418.012,158.99L416.853,158.509L416.307,157.797C416.303,157.743 416.284,157.479 416.656,157.217ZM378.495,144.537L377.935,144.114L380.752,142.474L381.391,142.957L380.122,143.642L379.43,144.005L379.989,143.969L380.582,143.936L382.572,143.85L383.275,144.382L378.495,144.537ZM383.156,145.361L382.596,144.852L383.665,144.872L384.632,145.319L385.062,145.938L384.659,146.348L384.323,146.456L383.305,146.695L382.383,146.943L381.969,147.166L381.336,146.687L381.661,146.507L380.998,146.387L380.507,146.149L380.282,145.671L380.778,145.256L381.748,145.127L382.855,145.573L383.604,145.994L383.943,145.909L384.098,145.753L383.945,145.528L383.571,145.357L383.156,145.361ZM382.949,146.149L382.752,146.046L381.876,145.654L381.468,145.689L381.287,145.853L381.396,146.057L381.771,146.229L382.218,146.28L382.813,146.181L382.949,146.149ZM386.223,146.611L386.831,147.071L386.094,147.245C387.152,147.225 387.456,147.455 387.549,147.525L387.754,147.79L386.774,147.884L386.63,147.725L386.114,147.534L385.379,147.509L384.265,147.719L383.071,148L382.42,147.507L386.223,146.611ZM389.513,147.664L390.164,148.157L389.234,148.377L388.583,147.884L389.513,147.664ZM388.068,148.006L388.719,148.499L384.915,149.395L384.264,148.903L388.068,148.006ZM389.276,151.123L387.641,149.886L387.558,149.916L387.164,150.226L387.297,150.557L388.263,150.762L388.713,151.255L387.535,151.191L386.655,150.801C386.17,150.433 386.268,150.104 386.287,150.04C386.31,149.962 386.404,149.647 387.097,149.378L388.577,149.119C389.666,149.126 390.243,149.563 390.36,149.651C390.803,149.986 390.708,150.271 390.69,150.328C390.665,150.401 390.576,150.671 389.902,150.932L389.276,151.123ZM389.27,150.496L389.362,150.463L389.792,150.159L389.653,149.844L389.083,149.651L388.251,149.726L389.27,150.496ZM387.932,151.877L388.483,152.45L388.301,152.56L388.287,152.691L388.444,152.868L388.887,153.076L389.319,153.082L389.94,152.948L390.118,152.905L389.034,152.525C388.68,152.257 388.777,151.999 388.794,151.953C388.909,151.649 389.496,151.422 389.568,151.394L390.788,151.097L391.955,151.141L392.773,151.476L393.04,151.876L392.863,152.301L393.538,152.143L394.149,152.605L390.981,153.355L389.864,153.591L389.252,153.644L388.741,153.579L388.251,153.395L387.793,153.105L387.26,152.428C387.239,152.138 387.739,151.944 387.795,151.922L387.932,151.877ZM390.294,151.839L389.844,152.155L389.957,152.466L390.464,152.647L391.213,152.638L391.929,152.458L392.356,152.134L392.25,151.808L391.739,151.639L390.913,151.682L390.294,151.839ZM394.265,153.763L393.704,153.253L394.774,153.273L395.741,153.72L396.173,154.34L395.77,154.751L395.434,154.86L394.416,155.1L393.494,155.348L393.079,155.572L392.446,155.092L392.771,154.912L392.107,154.792L391.616,154.554L391.39,154.075L391.886,153.659L392.856,153.528L393.964,153.976L394.714,154.397L395.053,154.312L395.208,154.156L395.054,153.929L394.681,153.759L394.265,153.763ZM394.059,154.552L393.862,154.449L392.985,154.056L392.577,154.093L392.396,154.256L392.505,154.461L392.881,154.634L393.328,154.684L393.923,154.584L394.059,154.552ZM396.369,155.041L397.131,154.86L397.449,155.1L398.057,154.955L399.419,155.282L398.101,155.593L398.499,155.894L397.737,156.075L397.337,155.773L395.743,156.15L395.258,156.274L395.145,156.372L395.26,156.525L395.498,156.68L394.734,156.859L394.342,156.616L394.022,156.166L394.37,155.851L395.156,155.642L396.685,155.28L396.369,155.041ZM398.917,156.21L399.569,156.703L397.317,157.237L396.824,157.366L396.656,157.52L396.751,157.71L396.967,157.821L397.276,157.899L397.645,157.937L398.088,157.916L398.647,157.806L400.46,157.377L401.112,157.87L397.308,158.771L396.699,158.31L397.214,158.188C396.289,158.089 395.911,157.803 395.819,157.734L395.584,157.289L396.038,156.917L396.796,156.711L398.917,156.21ZM398.799,158.842L399.568,159.267L399.39,159.576L399.618,159.878L400.111,160.095L400.431,160.077L400.545,159.978L400.442,159.708L400.133,158.99L400.546,158.577L401.434,158.477C401.545,158.488 402.127,158.548 402.713,158.992L403.185,159.615L402.857,160.089L402.111,159.689L402.227,159.467L401.998,159.155L401.61,158.969L401.306,158.984L401.192,159.133L401.384,159.477L401.65,160.106L401.256,160.519L400.153,160.617L398.994,160.136L398.449,159.422C398.445,159.369 398.426,159.104 398.799,158.842ZM364.229,148.869L368.792,147.107L370.046,148.056L370.508,148.456L370.705,148.85L370.531,149.222L370.009,149.539L368.755,149.715C368.634,149.706 368.082,149.666 367.377,149.132L366.524,148.486L364.669,149.203L364.229,148.869ZM367.063,148.278L367.922,148.929L368.745,149.304L369.537,149.202L369.922,148.933L369.913,148.618L369.544,148.292L368.693,147.648L367.063,148.278ZM368.775,150.423C369.693,150.068 370.368,150.16 370.507,150.179L371.632,150.611C372.128,150.988 372.018,151.333 371.997,151.399C371.97,151.485 371.866,151.811 371.078,152.116L369.935,152.398L368.961,152.31L368.177,151.948C367.671,151.564 367.783,151.222 367.804,151.156C367.938,150.747 368.683,150.459 368.775,150.423ZM369.195,150.741L368.445,151.262C368.429,151.302 368.331,151.537 368.637,151.769L369.461,152.03L370.631,151.808L371.357,151.295C371.373,151.255 371.47,151.019 371.168,150.791L370.346,150.527L369.195,150.741ZM369.848,153.129L374.411,151.364L374.819,151.673L370.257,153.439L369.848,153.129ZM369.598,154.398L370.079,154.16L370.263,154.356L370.543,154.497L370.851,154.531L371.393,154.464L371.566,154.439L373.964,152.464L374.404,152.797L372.991,153.918L372.4,154.347L373.321,154.183L375.763,153.827L376.171,154.137L371.893,154.744L370.913,154.86L370.258,154.828L369.792,154.624L369.598,154.398ZM374.036,155.174L374.528,155.446L374.207,155.788L374.464,156.186L375.039,156.442L375.544,156.402L375.722,156.195L375.494,155.805L375.141,155.228L375.192,154.907L375.546,154.667L376.029,154.565L376.542,154.596L376.966,154.729L377.385,154.971L377.772,155.392L377.785,155.749L377.414,156.054L376.939,155.781L377.18,155.507L376.954,155.172L376.425,154.917L376.006,154.941L375.86,155.055L375.867,155.232L376.085,155.561L376.43,156.12L376.405,156.438L376.023,156.698L375.376,156.812L374.649,156.699L374.005,156.366C373.954,156.328 373.535,156.01 373.557,155.72L374.036,155.174ZM376.931,157.924L376.495,158.161L376.136,157.946L375.888,157.647L375.969,157.418L376.58,157.124L378.482,156.387L378.183,156.16L378.618,155.991L378.918,156.218L379.736,155.9L380.479,156.078L379.324,156.526L379.735,156.837L379.3,157.006L378.889,156.695L376.956,157.444L376.669,157.58L376.63,157.675L376.73,157.797L376.931,157.924ZM375.537,158.902L376.018,158.663L376.202,158.86L376.483,159.001L376.791,159.035L377.333,158.968L377.506,158.942L379.903,156.964L380.344,157.298L378.931,158.421L378.34,158.85L379.262,158.685L381.704,158.329L382.113,158.639L377.833,159.247L376.854,159.364L376.198,159.333L375.732,159.128L375.537,158.902ZM379.15,160.181L382.456,158.898L382.824,159.177L382.323,159.372L383.046,159.389L383.421,159.544L383.661,159.933L383,160.028L382.822,159.753L382.47,159.614L382.011,159.617L381.29,159.819L379.559,160.491L379.15,160.181ZM382.205,160.602C383.123,160.246 383.799,160.337 383.937,160.356L385.063,160.789C385.561,161.166 385.451,161.512 385.43,161.579C385.403,161.665 385.299,161.991 384.512,162.297L383.368,162.581L382.393,162.494L381.608,162.13C381.102,161.746 381.213,161.403 381.234,161.337C381.367,160.927 382.113,160.638 382.205,160.602ZM382.625,160.921L381.876,161.443C381.859,161.483 381.762,161.719 382.069,161.951L382.893,162.212L384.064,161.99L384.789,161.475C384.806,161.435 384.902,161.198 384.6,160.969L383.776,160.705L382.625,160.921ZM383.283,163.314L387.846,161.541L388.255,161.851L383.692,163.624L383.283,163.314ZM350.972,153.991L355.543,152.225L356.796,153.177L357.258,153.577L357.455,153.971L357.28,154.344L356.758,154.662L355.501,154.838C355.381,154.83 354.828,154.789 354.123,154.254L353.27,153.607L351.412,154.325L350.972,153.991ZM353.81,153.398L354.669,154.051L355.492,154.426L356.286,154.325L356.671,154.055L356.663,153.74L356.293,153.413L355.443,152.767L353.81,153.398ZM355.997,157.34L355.186,157.153L354.627,156.853C354.23,156.551 354.273,156.338 354.283,156.286L354.751,155.861L355.276,155.75L355.81,155.786L356.288,155.938L356.735,156.181L357.656,156.659L357.805,156.604L358.172,156.329L357.898,155.902L357.334,155.633L356.64,155.669L356.315,155.337L357.064,155.253L357.758,155.398L358.421,155.767L358.823,156.187L358.855,156.499L358.6,156.743L358.103,156.959L357.355,157.248L356.391,157.651L356.096,157.884L355.67,157.56L355.997,157.34ZM357.216,156.829L356.337,156.404L355.869,156.177L355.526,156.126L355.202,156.186L354.952,156.424L355.164,156.757L355.725,157.021L356.383,157.076L357.01,156.908L357.216,156.829ZM356.595,158.263L359.907,156.981L360.274,157.26L359.772,157.454L360.497,157.472L360.871,157.627L361.11,158.016L360.448,158.111L360.271,157.836L359.919,157.697L359.46,157.7L358.737,157.902L357.004,158.573L356.595,158.263ZM360.128,160.478L359.317,160.291L358.757,159.991C358.36,159.689 358.403,159.475 358.414,159.424L358.882,158.998L359.407,158.887L359.94,158.923L360.418,159.075L360.865,159.318L361.787,159.796L361.936,159.741L362.304,159.466L362.029,159.039L361.464,158.77L360.77,158.806L360.446,158.473L361.194,158.389L361.888,158.534L362.552,158.904L362.954,159.323L362.987,159.636L362.732,159.88L362.235,160.096L361.486,160.386L360.522,160.79L360.228,161.022L359.801,160.698L360.128,160.478ZM361.348,159.966L360.468,159.542L360,159.315L359.656,159.263L359.333,159.323L359.082,159.562L359.295,159.895L359.856,160.159L360.515,160.213L361.142,160.046L361.348,159.966ZM360.829,161.479L363.704,160.365L363.343,160.091L363.78,159.922L364.141,160.196L364.493,160.06L365.032,159.9L365.593,159.921L366.145,160.184L366.471,160.496L365.92,160.639L365.71,160.444L365.338,160.286L364.853,160.386L364.547,160.505L365.017,160.861L364.58,161.03L364.111,160.674L361.235,161.788L360.829,161.479ZM362.132,162.469L365.01,161.353L364.647,161.077L365.08,160.91L365.444,161.185L365.765,161.061L366.673,160.886L367.423,161.155L367.767,161.498L367.23,161.633L367.038,161.455L366.634,161.281L366.067,161.412L365.852,161.496L366.32,161.851L365.887,162.019L365.419,161.664L362.541,162.779L362.132,162.469ZM367.243,161.847L367.888,161.597L368.297,161.907L367.652,162.157L367.243,161.847ZM363.317,163.369L366.629,162.085L367.037,162.395L363.726,163.68L363.317,163.369ZM364.348,164.152L367.66,162.868L368.027,163.147L367.557,163.33C368.368,163.32 368.784,163.636 368.87,163.701L369.163,164.047L369.155,164.364L368.867,164.622L368.344,164.851L366.308,165.641L365.899,165.331L367.914,164.549L368.379,164.314L368.481,164.08L368.297,163.824L367.619,163.57L366.566,163.761L364.757,164.463L364.348,164.152ZM367.76,165.609L368.252,165.883L367.93,166.225L368.187,166.625L368.763,166.881L369.269,166.841L369.447,166.633L369.22,166.242L368.866,165.664L368.917,165.341L369.272,165.101L369.756,164.998L370.27,165.029L370.694,165.163L371.114,165.405L371.501,165.827L371.514,166.186L371.141,166.492L370.667,166.217L370.908,165.943L370.682,165.607L370.152,165.351L369.733,165.376L369.586,165.49L369.593,165.667L369.811,165.997L370.156,166.558L370.131,166.877L369.748,167.137L369.1,167.252L368.372,167.14L367.728,166.806C367.677,166.767 367.258,166.448 367.279,166.157L367.76,165.609ZM372.049,168.61L372.38,168.943L371.149,169.034L370.159,168.653C369.664,168.276 369.784,167.939 369.807,167.875C369.839,167.786 369.95,167.474 370.78,167.151L371.848,166.885L372.845,166.95L373.623,167.31L373.993,167.904L373.539,168.448L373.057,168.179L373.358,167.831L373.177,167.501L372.371,167.238L371.216,167.465L370.432,167.983C370.415,168.021 370.316,168.242 370.616,168.47L371.221,168.697L372.049,168.61ZM371.588,169.653L376.159,167.876L376.569,168.187L374.929,168.824C375.67,168.865 376.03,169.137 376.107,169.196L376.428,169.606L376.31,169.977L375.654,170.33L373.555,171.146L373.146,170.836L375.244,170.019L375.724,169.68L375.54,169.32L375.068,169.11L374.489,169.073L373.81,169.259L371.998,169.963L371.588,169.653ZM374.178,171.62L377.49,170.332L377.858,170.611L377.387,170.794C378.199,170.784 378.616,171.101 378.701,171.166L378.995,171.512L378.987,171.83L378.7,172.088L378.177,172.318L376.14,173.111L375.731,172.8L377.746,172.016L378.211,171.78L378.313,171.546L378.129,171.289L377.45,171.035L376.396,171.227L374.587,171.931L374.178,171.62ZM380.696,172.061L381.342,171.81L381.751,172.121L381.106,172.372L380.696,172.061ZM376.77,173.589L380.082,172.3L380.492,172.611L377.18,173.9L376.77,173.589ZM379.199,174.857L378.763,175.096L378.403,174.88L378.154,174.58L378.236,174.349L378.848,174.053L380.753,173.311L380.453,173.083L380.89,172.913L381.19,173.141L382.01,172.822L382.754,173L381.597,173.45L382.009,173.763L381.572,173.933L381.161,173.62L379.224,174.375L378.937,174.511L378.899,174.607L378.998,174.729L379.199,174.857ZM380.494,175.841L380.057,176.079L379.698,175.863L379.449,175.563L379.53,175.333L380.143,175.036L382.048,174.294L381.748,174.066L382.184,173.896L382.485,174.124L383.304,173.805L384.048,173.983L382.892,174.433L383.304,174.746L382.867,174.916L382.455,174.604L380.519,175.358L380.232,175.495L380.193,175.591L380.293,175.713L380.494,175.841ZM383.114,177.182L383.465,177.532L382.305,177.557L381.333,177.141C380.802,176.738 380.917,176.396 380.939,176.328C380.969,176.24 381.076,175.917 381.884,175.603C382.72,175.277 383.365,175.326 383.495,175.336C384.271,175.394 384.687,175.71 384.771,175.775C385.256,176.143 385.134,176.488 385.111,176.552C385.08,176.641 384.967,176.962 384.146,177.282L383.995,177.338L382.192,175.969L381.581,176.466C381.568,176.507 381.494,176.733 381.797,176.963L382.343,177.192L383.114,177.182ZM382.676,175.807L384.026,176.832L384.498,176.47C384.516,176.43 384.626,176.195 384.314,175.958L383.581,175.698L382.676,175.807ZM389.746,179.476L389.294,179.184L389.619,178.879L389.45,178.474L388.956,178.271L388.087,178.26L386.914,178.584L387.734,178.68L388.332,178.962C388.742,179.273 388.636,179.597 388.617,179.654C388.593,179.728 388.492,180.034 387.837,180.289L386.902,180.499L385.963,180.437L385.23,180.105C384.717,179.716 384.882,179.335 384.91,179.269C385.103,178.822 386.164,178.408 386.288,178.36C387.613,177.843 388.385,177.872 388.572,177.879C389.408,177.912 389.846,178.245 389.936,178.313C390.33,178.612 390.288,178.866 390.279,178.921L389.746,179.476ZM386.101,178.974L385.636,179.259L385.484,179.608L385.684,179.92L386.418,180.147L387.384,179.984L387.946,179.553L387.755,179.093L387.01,178.842L386.101,178.974ZM388.46,182.469L388.946,182.279C388.103,182.284 387.704,181.981 387.617,181.915L387.33,181.568L387.336,181.248L387.626,180.99L388.125,180.766L390.177,179.965L390.587,180.276L388.75,180.993L388.183,181.244L387.999,181.504L388.183,181.789L388.658,182.001L389.24,182.038L389.954,181.836L391.728,181.143L392.138,181.454L388.827,182.748L388.46,182.469ZM389.469,183.236L392.781,181.942L393.148,182.221L392.683,182.402L393.378,182.479L393.956,182.749L394.245,183.143L394.06,183.494C394.927,183.486 395.302,183.77 395.388,183.835C395.748,184.109 395.683,184.317 395.669,184.363L395.022,184.838L392.749,185.728L392.341,185.418L394.427,184.602L394.872,184.382L394.966,184.179L394.81,183.956L394.154,183.725L393.242,183.888L391.317,184.64L390.907,184.329L393.059,183.487L393.52,183.192L393.379,182.869L392.934,182.675L392.356,182.656L391.598,182.876L389.879,183.548L389.469,183.236ZM337.705,159.131L342.284,157.363L342.723,157.697L340.843,158.423L342.571,159.738L344.451,159.011L344.891,159.346L340.312,161.116L339.872,160.781L342.03,159.947L340.303,158.632L338.144,159.466L337.705,159.131ZM343.433,162.871L342.529,162.716L341.859,162.384C341.349,161.995 341.497,161.648 341.525,161.584L342.147,161.065L343.113,160.919L344.307,161.138L344.585,160.687L344.938,160.464L345.89,160.366L346.785,160.697C347.125,160.956 347.066,161.186 347.055,161.232L346.581,161.664C346.452,161.714 345.928,161.916 344.838,161.617L344.388,162.476L345.184,162.35L345.483,162.721L344.201,162.879L344.018,163.546L343.296,163.51L343.433,162.871ZM344.989,161.316L345.711,161.432L346.148,161.352L346.423,161.122L346.303,160.86L345.88,160.708L345.411,160.763L345.227,160.879L345.098,161.066L344.989,161.316ZM343.62,162.505L344.149,161.441L343.198,161.296L342.622,161.386L342.205,161.732C342.185,161.766 342.066,161.971 342.361,162.195L342.898,162.423L343.62,162.505ZM344.151,164.039L348.73,162.267L351.135,164.096L350.595,164.305L348.63,162.81L347.228,163.353L349.068,164.753L348.531,164.962L346.691,163.561L345.132,164.165L347.174,165.719L346.633,165.928L344.151,164.039ZM348.556,167.392L353.135,165.617L355.38,167.325L354.84,167.535L353.035,166.162L351.617,166.711L353.179,167.9L352.639,168.109L351.077,166.921L348.996,167.727L348.556,167.392ZM353.304,170.536L352.492,170.349L351.932,170.048C351.535,169.745 351.578,169.531 351.588,169.479L352.057,169.052L352.583,168.941L353.118,168.976L353.596,169.128L354.044,169.372L354.966,169.852L355.116,169.797L355.484,169.521L355.209,169.092L354.644,168.822L353.949,168.858L353.624,168.525L354.374,168.441L355.069,168.586L355.733,168.957L356.135,169.377L356.168,169.691L355.912,169.936L355.414,170.153L354.665,170.444L353.699,170.849L353.404,171.082L352.977,170.757L353.304,170.536ZM354.526,170.023L353.646,169.597L353.177,169.369L352.833,169.317L352.509,169.378L352.258,169.617L352.47,169.951L353.032,170.216L353.692,170.271L354.32,170.103L354.526,170.023ZM355.624,168.214L356.264,167.965L356.691,168.29L356.051,168.539L355.624,168.214ZM356.471,168.858L357.111,168.61L357.538,168.935L356.898,169.183L356.471,168.858ZM353.903,171.463L357.221,170.175L357.589,170.455L357.086,170.65L357.812,170.667L358.186,170.823L358.426,171.213L357.763,171.309L357.585,171.033L357.233,170.893L356.773,170.897L356.049,171.099L354.312,171.774L353.903,171.463ZM355.835,172.933L355.455,172.644L360.034,170.865L360.443,171.177L358.81,171.811C359.516,171.835 359.845,172.085 359.918,172.141L360.216,172.509L360.197,172.893L359.859,173.255L359.257,173.573C358.404,173.904 357.764,173.861 357.632,173.852C356.859,173.799 356.509,173.532 356.43,173.472C356.003,173.147 356.218,172.82 356.25,172.771L355.835,172.933ZM357.514,172.275L356.77,172.7C356.742,172.737 356.529,173.016 356.858,173.266L357.642,173.495L358.792,173.273L359.563,172.758C359.58,172.722 359.685,172.495 359.419,172.292L358.635,172.064L357.514,172.275ZM359.628,175.82L360.115,175.631C359.271,175.635 358.873,175.332 358.787,175.266L358.5,174.919L358.508,174.599L358.799,174.341L359.299,174.118L361.354,173.32L361.763,173.631L359.924,174.346L359.355,174.596L359.17,174.856L359.353,175.14L359.828,175.353L360.41,175.389L361.125,175.188L362.902,174.497L363.311,174.809L359.994,176.099L359.628,175.82ZM360.635,176.587L363.952,175.296L364.321,175.577L363.849,175.76C364.662,175.75 365.079,176.067 365.164,176.132L365.458,176.48L365.449,176.798L365.161,177.057L364.637,177.287L362.597,178.081L362.188,177.769L364.206,176.984L364.672,176.747L364.775,176.513L364.591,176.256L363.911,176.001L362.856,176.194L361.044,176.898L360.635,176.587ZM362.875,178.608L363.192,178.943L362.962,179.192L363.222,179.57L363.817,179.843L364.464,179.832L365.215,179.574L364.112,179.234C363.614,178.855 363.803,178.513 363.835,178.455C363.877,178.377 364.056,178.055 364.746,177.786L365.747,177.54L366.73,177.575L367.507,177.915C367.935,178.24 367.765,178.582 367.737,178.636L368.137,178.48L368.515,178.768L365.647,179.885L364.434,180.225L363.559,180.147L362.759,179.753L362.328,179.117C362.329,178.811 362.818,178.63 362.875,178.608ZM365.207,178.09L364.443,178.605C364.427,178.643 364.332,178.866 364.616,179.082L365.388,179.326L366.515,179.107L367.236,178.6C367.252,178.562 367.349,178.33 367.071,178.118L366.303,177.884L365.207,178.09Z"/></g></svg>