<?xml version="1.0" encoding="UTF-8" standalone="no"?><!DOCTYPE svg PUBLIC "-//W3C//DTD SVG 1.1//EN" "http://www.w3.org/Graphics/SVG/1.1/DTD/svg11.dtd"><svg width="100%" height="100%" viewBox="0 0 512 512" version="1.1" xmlns="http://www.w3.org/2000/svg" xmlns:xlink="http://www.w3.org/1999/xlink" xml:space="preserve" xmlns:serif="http://www.serif.com/" style="fill-rule:evenodd;clip-rule:evenodd;stroke-linecap:round;stroke-linejoin:round;stroke-miterlimit:1.5;"><rect id="ArtBoard1" x="0" y="0" width="512" height="512" style="fill:none;"/><path d="M196,48C196,39.169 222.885,32 256,32C289.115,32 316,39.169 316,48C316,50.731 313.429,53.303 308.897,55.553C308.893,55.555 308.888,55.558 308.884,55.56C303.446,58.262 300.007,63.81 300.007,69.882C300,132.009 300,436 300,436C300,460.284 280.284,480 256,480C231.716,480 212,460.284 212,436L212,69.882C212,63.927 208.693,58.476 203.439,55.718C198.699,53.429 196,50.798 196,48Z" style="fill:none;stroke:rgb(47,57,68);stroke-width:4px;"/><path d="M212,69.882C212,63.802 208.553,58.248 203.106,55.548C198.571,53.303 196,50.731 196,48C196,39.169 222.885,32 256,32C289.115,32 316,39.169 316,48C316,50.731 313.429,53.303 308.897,55.553C303.452,58.253 300.007,63.805 300.007,69.882C300,132.009 300,436 300,436C300,460.284 280.284,480 256,480C231.716,480 212,460.284 212,436C212,436 212,132.009 212,69.882Z" style="fill:rgb(234,244,255);fill-opacity:0.3;stroke:rgb(47,57,68);stroke-width:2px;"/><path d="M213,69.882C213,63.802 209.553,58.248 204.106,55.548C199.571,53.303 197,50.731 197,48C197,39.169 223.885,32 257,32C290.115,32 317,39.169 317,48C317,50.731 314.429,53.303 309.897,55.553C304.452,58.253 301.007,63.805 301.007,69.882C301,132.009 301,436 301,436C301,460.284 281.284,480 257,480C232.716,480 213,460.284 213,436C213,436 213,132.009 213,69.882Z" style="fill:rgb(234,244,255);fill-opacity:0.3;stroke:rgb(47,57,68);stroke-width:2px;"/><g><path d="M248.711,204C233.447,206 223.213,182 239.587,177C246.751,168 263.125,175 263.125,188C259.426,189.378 257.317,191.354 256.985,194C252.765,195.552 249.889,198.742 248.711,204Z" style="fill:rgb(204,221,228);stroke:rgb(47,57,68);stroke-width:1px;"/><path d="M239.587,178C244.847,171.393 255.07,172.409 260.134,179.091C261.079,188 253.456,196.621 241.634,189C241.954,190.09 243.049,191.081 244.704,192C236.493,190.25 235.337,185.976 239.587,178Z" style="fill:white;fill-opacity:0.6;stroke:rgb(47,57,68);stroke-width:1px;"/><path d="M250.845,161C251.868,156 261.079,155 265.172,159C272.336,158 280.523,169 276.429,176C277.453,181 274.722,183.997 271.312,188C268.742,187.286 266.013,187.287 263.125,188C263.125,175.976 249.118,169.085 241.346,175.239C240.611,168 245.728,160 250.845,161Z" style="fill:rgb(204,221,228);stroke:rgb(47,57,68);stroke-width:2px;"/><path d="M261.292,180.866C260.645,174.767 256.189,171.632 248.518,171C246.713,167.672 247.859,164.338 250.845,161C251.868,156 261.079,155 265.172,159C268.949,158.473 273.01,161.281 275.406,165.08C275.73,172.379 272.303,178.158 261.292,180.866Z" style="fill:white;fill-opacity:0.6;stroke:rgb(47,57,68);stroke-width:1px;"/><path d="M287.687,195C291.48,200.34 292.411,205.674 289.733,211L289.51,209.254C289.466,208.496 289.367,207.71 289.208,206.897L289.51,209.254C290.231,221.686 276.258,226.588 273.359,224C260.055,230 246.751,220 248.711,204L249.441,201.538C250.886,197.723 253.469,195.293 256.985,194C257.317,191.354 259.426,189.378 263.125,188C266.013,187.287 268.742,187.286 271.312,188C272.969,188.261 274.273,189.012 275.406,190C280.229,188.657 284.168,190.96 287.687,195Z" style="fill:rgb(204,221,228);stroke:rgb(47,57,68);stroke-width:2px;"/><path d="M290.38,200C282.559,212.16 275.342,216.486 269.266,206C269.266,223 244.704,204 259.032,195C258.324,192.867 258.811,191.031 260.203,189.422C261.027,188.891 262.003,188.418 263.125,188C266.013,187.287 268.742,187.286 271.312,188C272.969,188.261 274.273,189.012 275.406,190C280.229,188.657 284.168,190.96 287.687,195C288.871,196.667 289.776,198.334 290.38,200Z" style="fill:white;fill-opacity:0.6;stroke:rgb(47,57,68);stroke-width:1px;"/><path d="M271.312,188C274.722,183.997 277.453,181 276.429,176C277.662,173.892 277.781,171.421 277.15,169.025C289.733,170 294.85,187 287.687,195C284.168,190.96 280.229,188.657 275.406,190C274.273,189.012 272.969,188.261 271.312,188Z" style="fill:rgb(204,221,228);stroke:rgb(47,57,68);stroke-width:2px;"/><path d="M279.558,169.424C284.624,170.736 288.197,174.8 289.874,179.517C288.043,183.433 285.995,186.722 283.593,189C281.478,187.821 279.043,187.243 276.429,187C279.462,182.715 280.635,176.959 279.558,169.424Z" style="fill:white;fill-opacity:0.6;stroke:rgb(47,57,68);stroke-width:1px;"/><path d="M252.067,218.84C241.634,227 217.073,220 222.19,204.118C219.252,197.912 222.617,192.588 231.242,188C231.243,188 231.244,188 231.245,188.001C231.429,196.146 239.066,205.264 248.711,204C247.983,209.946 249.362,215.064 252.067,218.84ZM248.711,204C248.908,203.122 249.151,202.302 249.441,201.538L248.711,204Z" style="fill:rgb(204,221,228);stroke:rgb(47,57,68);stroke-width:2px;"/><path d="M229.969,188.704C229.113,199.443 235.448,205.112 245.728,208C246.751,215 219.12,224 228.33,199C222.509,203.446 221.075,202.361 221.278,198.391C221.914,194.846 224.897,191.629 229.969,188.704Z" style="fill:white;fill-opacity:0.6;stroke:rgb(47,57,68);stroke-width:1px;"/><path d="M222.148,195.875C219.347,187.433 220.355,179.833 229.354,174C232.017,166.863 237.418,164.796 243.989,164.897C242.109,167.688 240.973,171.562 241.346,175.239C240.715,175.739 240.125,176.324 239.587,177C233.56,178.841 231.138,183.256 231.245,188.001L231.242,188C226.704,190.414 223.622,193.032 222.148,195.875Z" style="fill:rgb(204,221,228);stroke:rgb(47,57,68);stroke-width:2px;"/><path d="M227.309,190.401C225.338,186.487 224.983,181.8 226.283,176.324C227.182,175.522 228.202,174.746 229.354,174C231.64,167.873 235.945,165.482 241.275,164.993C239.492,167.546 238.306,170.403 238.564,174C232.131,177.177 228.893,182.067 229.465,189C228.695,189.46 227.976,189.927 227.309,190.401Z" style="fill:white;fill-opacity:0.6;stroke:rgb(47,57,68);stroke-width:1px;"/></g><path d="M220.123,76C220.123,69.377 236.255,64 256.123,64C275.992,64 292.123,69.377 292.123,76L292,436C292,455.869 275.869,472 256,472C236.131,472 220,455.869 220,436L220.123,76Z" style="fill:rgb(167,215,255);fill-opacity:0.6;stroke:rgb(47,57,68);stroke-width:2px;"/><ellipse cx="256" cy="77" rx="36" ry="12" style="fill:rgb(167,215,255);fill-opacity:0.6;stroke:rgb(47,57,68);stroke-width:2px;"/><ellipse cx="255.671" cy="127.113" rx="36" ry="8.887" style="fill:white;fill-opacity:0.3;stroke:rgb(47,57,68);stroke-opacity:0.5;stroke-width:0.2px;"/><ellipse cx="256" cy="134" rx="36" ry="10" style="fill:white;fill-opacity:0.3;stroke:rgb(47,57,68);stroke-opacity:0.5;stroke-width:0.2px;"/><path d="M236.576,138.437C238.577,139.001 240.85,139.106 240.85,139.93C240.85,141.424 238.64,141.921 236.576,141.921C234.511,141.921 233.046,140.72 232.835,139.93C232.511,138.709 233.893,137.681 236.576,138.437Z" style="fill:rgb(251,181,126);fill-opacity:0.6;stroke:rgb(47,57,68);stroke-width:0.5px;"/><path d="M275.7,129.515C273.699,130.079 271.426,130.185 271.426,131.009C271.426,132.502 273.636,133 275.7,133C277.764,133 279.23,131.799 279.44,131.009C279.765,129.788 278.383,128.76 275.7,129.515Z" style="fill:rgb(251,181,126);fill-opacity:0.6;stroke:rgb(47,57,68);stroke-width:0.5px;"/><path d="M276.521,139.432C278.523,138.868 280.796,138.763 280.796,137.939C280.796,136.446 278.585,135.948 276.521,135.948C274.457,135.948 272.991,137.149 272.781,137.939C272.456,139.16 273.838,140.188 276.521,139.432Z" style="fill:rgb(251,181,126);fill-opacity:0.6;stroke:rgb(47,57,68);stroke-width:0.5px;"/><path d="M226.466,141.439C228.695,141.629 230.992,142.338 231.353,141.576C232.007,140.195 230.036,138.95 227.992,138.218C225.948,137.485 223.971,138.075 223.417,138.731C222.56,139.744 223.478,141.186 226.466,141.439Z" style="fill:rgb(251,181,126);fill-opacity:0.6;stroke:rgb(47,57,68);stroke-width:0.5px;"/><path d="M285.81,132.518C283.581,132.707 281.284,133.417 280.923,132.655C280.269,131.274 282.24,130.029 284.284,129.296C286.328,128.563 288.305,129.153 288.859,129.809C289.716,130.823 288.798,132.264 285.81,132.518Z" style="fill:rgb(251,181,126);fill-opacity:0.6;stroke:rgb(47,57,68);stroke-width:0.5px;"/><path d="M229.863,122.043C232.092,121.853 234.389,121.144 234.75,121.906C235.404,123.286 233.434,124.531 231.39,125.264C229.346,125.997 227.368,125.407 226.814,124.751C225.958,123.738 226.876,122.296 229.863,122.043Z" style="fill:rgb(251,181,126);fill-opacity:0.6;stroke:rgb(47,57,68);stroke-width:0.5px;"/><path d="M224.566,136.688C225.613,135.58 227.046,134.626 226.672,134.157C225.994,133.307 224.328,133.894 222.983,134.706C221.639,135.519 221.229,136.779 221.451,137.311C221.794,138.133 223.161,138.174 224.566,136.688Z" style="fill:rgb(251,181,126);fill-opacity:0.6;stroke:rgb(47,57,68);stroke-width:0.5px;"/><path d="M287.71,127.767C286.662,126.659 285.23,125.704 285.604,125.235C286.282,124.386 287.948,124.973 289.293,125.785C290.637,126.597 291.047,127.857 290.825,128.389C290.482,129.212 289.115,129.253 287.71,127.767Z" style="fill:rgb(251,181,126);fill-opacity:0.6;stroke:rgb(47,57,68);stroke-width:0.5px;"/><path d="M228.409,126.793C229.457,127.902 230.89,128.856 230.516,129.325C229.837,130.175 228.171,129.588 226.827,128.776C225.482,127.963 225.072,126.703 225.294,126.171C225.637,125.349 227.005,125.308 228.409,126.793Z" style="fill:rgb(251,181,126);fill-opacity:0.6;stroke:rgb(47,57,68);stroke-width:0.5px;"/><path d="M241.746,139.335C240.213,138.095 238.209,137.055 238.614,136.488C239.35,135.461 241.594,136.06 243.462,136.938C245.329,137.817 246.064,139.268 245.865,139.9C245.558,140.878 243.801,140.997 241.746,139.335Z" style="fill:rgb(251,181,126);fill-opacity:0.6;stroke:rgb(47,57,68);stroke-width:0.5px;"/><path d="M270.53,130.414C272.063,129.174 274.067,128.134 273.662,127.567C272.926,126.54 270.682,127.138 268.814,128.017C266.947,128.896 266.212,130.346 266.411,130.979C266.718,131.957 268.474,132.076 270.53,130.414Z" style="fill:rgb(251,181,126);fill-opacity:0.6;stroke:rgb(47,57,68);stroke-width:0.5px;"/><path d="M256,146.361C264.567,148.641 266.805,148.521 263.03,146.132C260.86,144.76 268.309,146.473 270.392,145.363C279.421,140.55 281.475,140.076 275.877,144.366C274.007,145.798 282.285,144.595 282.179,142.595C281.816,135.795 284.352,135.568 288.49,139.533C290.47,141.429 292,136.213 292,134.361C292,132.67 290.947,131.059 289.049,129.599C288.171,128.924 285.037,128.734 285.893,127.676C288.835,124.041 290.063,120.881 273.49,123.872C270.975,124.326 263.713,125.618 260.877,125.361C257.867,125.089 259.267,122.361 256,122.361C254.606,122.361 253.23,122.388 251.877,122.439C249.54,122.528 247.271,122.692 245.092,122.923C242.931,123.152 240.794,124.414 238.896,123.802C231.697,121.478 231.202,122.554 233.455,125.008C234.72,126.386 229.985,126.034 228.49,126.625C226.697,127.332 224.645,130.252 223.877,128.942C218.568,119.893 219.377,130.06 220,134.361C220.239,136.014 221.025,137.916 222.877,139.361C224.432,140.575 219.167,143.98 221.877,143.361C241.356,138.916 246.316,145.28 239.877,145.092C214.877,144.361 230.7,150.307 254.271,146.348C254.836,146.253 255.44,146.212 256,146.361Z" style="fill:white;fill-opacity:0.3;stroke:rgb(47,57,68);stroke-opacity:0.5;stroke-width:0.2px;"/><path d="M255.834,140C264.363,142.28 266.59,142.159 262.833,139.771C260.673,138.398 268.088,140.111 270.161,139.001C279.149,134.189 281.193,133.714 275.621,138.004C273.76,139.437 282,138.233 281.894,136.234C281.533,129.433 284.057,129.207 288.177,133.171C290.148,135.067 291.671,129.851 291.671,128C291.671,126.308 290.623,124.698 288.733,123.237C287.859,122.562 284.74,122.372 285.592,121.315C288.52,117.679 289.743,114.52 273.245,117.511C270.741,117.965 263.512,119.257 260.689,119C257.692,118.728 259.087,116 255.834,116C254.446,116 253.077,116.026 251.73,116.078C249.404,116.167 247.145,116.331 244.976,116.562C242.825,116.791 240.698,118.053 238.809,117.44C231.642,115.117 231.149,116.193 233.392,118.647C234.651,120.025 229.938,119.673 228.449,120.263C226.664,120.97 224.621,123.89 223.857,122.581C218.572,113.532 219.377,123.699 219.998,128C220.236,129.652 221.018,131.555 222.861,133C224.41,134.214 219.169,137.618 221.866,137C241.257,132.555 246.194,138.918 239.784,138.73C214.898,138 230.649,143.946 254.113,139.986C254.675,139.891 255.277,139.851 255.834,140Z" style="fill:white;fill-opacity:0.3;stroke:rgb(47,57,68);stroke-opacity:0.5;stroke-width:0.5px;"/><path d="M256.466,127.17C258.388,127.669 260.258,128.61 260.739,128.034C261.613,126.991 260.145,125.656 258.503,124.735C256.861,123.814 254.993,123.999 254.364,124.458C253.392,125.166 253.89,126.501 256.466,127.17Z" style="fill:rgb(251,181,126);fill-opacity:0.6;stroke:rgb(47,57,68);stroke-width:0.5px;"/><path d="M261.189,119.27C259.267,118.771 257.397,117.83 256.916,118.406C256.042,119.45 257.51,120.784 259.152,121.705C260.794,122.626 262.662,122.441 263.291,121.983C264.263,121.274 263.765,119.939 261.189,119.27Z" style="fill:rgb(251,181,126);fill-opacity:0.6;stroke:rgb(47,57,68);stroke-width:0.5px;"/><path d="M250.423,138.506C252.398,138.4 254.522,137.809 254.704,138.535C255.033,139.85 253.1,140.954 251.191,141.575C249.283,142.197 247.663,141.58 247.295,140.947C246.726,139.97 247.777,138.648 250.423,138.506Z" style="fill:rgb(251,181,126);fill-opacity:0.6;stroke:rgb(47,57,68);stroke-width:0.5px;"/><path d="M261.853,129.585C259.878,129.479 257.754,128.888 257.572,129.614C257.243,130.929 259.176,132.033 261.084,132.654C262.993,133.275 264.613,132.659 264.981,132.026C265.55,131.048 264.499,129.726 261.853,129.585Z" style="fill:rgb(251,181,126);fill-opacity:0.6;stroke:rgb(47,57,68);stroke-width:0.5px;"/><path d="M244.129,128.93C246.103,129.036 248.228,129.627 248.409,128.901C248.739,127.586 246.805,126.482 244.897,125.861C242.989,125.239 241.369,125.856 241,126.489C240.431,127.467 241.482,128.788 244.129,128.93Z" style="fill:rgb(251,181,126);fill-opacity:0.6;stroke:rgb(47,57,68);stroke-width:0.5px;"/><path d="M244.369,136.213C242.403,135.276 239.87,134.652 240.334,133.974C241.174,132.744 243.976,132.857 246.331,133.344C248.686,133.832 249.682,135.167 249.477,135.867C249.16,136.949 247.005,137.469 244.369,136.213Z" style="fill:rgb(251,181,126);fill-opacity:0.6;stroke:rgb(47,57,68);stroke-width:0.5px;"/><path d="M267.907,127.292C269.873,126.355 272.406,125.731 271.942,125.052C271.102,123.823 268.3,123.935 265.945,124.423C263.59,124.91 262.594,126.246 262.799,126.946C263.116,128.027 265.271,128.548 267.907,127.292Z" style="fill:rgb(251,181,126);fill-opacity:0.6;stroke:rgb(47,57,68);stroke-width:0.5px;"/><path d="M249.748,119.148C247.782,120.086 245.249,120.709 245.713,121.388C246.553,122.617 249.355,122.505 251.71,122.017C254.065,121.53 255.061,120.195 254.856,119.494C254.539,118.413 252.384,117.892 249.748,119.148Z" style="fill:rgb(251,181,126);fill-opacity:0.6;stroke:rgb(47,57,68);stroke-width:0.5px;"/><path d="M255.671,116C264.238,113.72 266.476,113.841 262.701,116.229C260.531,117.602 267.98,115.889 270.063,116.999C279.091,121.811 281.145,122.286 275.547,117.996C273.678,116.563 281.956,117.767 281.85,119.766C281.487,126.567 284.023,126.793 288.161,122.829C290.141,120.933 291.671,126.149 291.671,128C291.671,129.692 290.618,131.302 288.719,132.763C287.842,133.438 284.708,133.628 285.564,134.685C288.506,138.321 289.734,141.48 273.16,138.489C270.645,138.035 263.383,136.743 260.547,137C257.537,137.272 258.938,140 255.671,140C254.277,140 252.901,139.974 251.547,139.922C249.211,139.833 246.942,139.669 244.763,139.438C242.602,139.209 240.465,137.947 238.567,138.56C231.368,140.883 230.873,139.807 233.126,137.353C234.391,135.975 229.656,136.327 228.16,135.737C226.368,135.03 224.315,132.11 223.547,133.419C218.238,142.468 219.048,132.301 219.671,128C219.91,126.348 220.695,124.445 222.547,123C224.103,121.786 218.838,118.382 221.547,119C241.027,123.445 245.987,117.082 239.547,117.27C214.547,118 230.371,112.054 253.941,116.014C254.507,116.109 255.111,116.149 255.671,116Z" style="fill:white;fill-opacity:0.3;stroke:rgb(47,57,68);stroke-opacity:0.5;stroke-width:0.2px;"/><path d="M236.7,123.56C235.166,124.8 233.162,125.84 233.568,126.407C234.303,127.434 236.548,126.835 238.415,125.957C240.283,125.078 241.018,123.628 240.819,122.995C240.511,122.017 238.755,121.898 236.7,123.56Z" style="fill:rgb(251,181,126);fill-opacity:0.6;stroke:rgb(47,57,68);stroke-width:0.5px;"/><path d="M257.797,139.421C256.795,138.432 255.395,137.676 255.8,137.109C256.536,136.082 258.193,136.404 259.512,137.025C260.831,137.645 261.177,138.912 260.922,139.519C260.529,140.456 259.139,140.748 257.797,139.421Z" style="fill:rgb(251,181,126);fill-opacity:0.6;stroke:rgb(47,57,68);stroke-width:0.5px;"/><path d="M254.479,130.5C255.481,129.51 256.881,128.754 256.476,128.187C255.74,127.16 254.083,127.482 252.764,128.103C251.444,128.724 251.099,129.991 251.354,130.598C251.747,131.535 253.137,131.827 254.479,130.5Z" style="fill:rgb(251,181,126);fill-opacity:0.6;stroke:rgb(47,57,68);stroke-width:0.5px;"/><path d="M268.447,136.847C267.446,137.837 266.045,138.593 266.451,139.16C267.186,140.187 268.844,139.865 270.163,139.244C271.482,138.623 271.827,137.356 271.573,136.75C271.179,135.812 269.79,135.52 268.447,136.847Z" style="fill:rgb(251,181,126);fill-opacity:0.6;stroke:rgb(47,57,68);stroke-width:0.5px;"/><path d="M231.833,134.62C234.175,134.942 236.832,134.875 236.835,135.543C236.842,136.753 234.261,137.305 231.848,137.443C229.436,137.582 227.717,136.707 227.468,136.081C227.083,135.113 228.694,134.187 231.833,134.62Z" style="fill:rgb(251,181,126);fill-opacity:0.6;stroke:rgb(47,57,68);stroke-width:0.5px;"/><path d="M279.579,124.109C277.237,124.432 274.58,124.365 274.576,125.033C274.57,126.243 277.151,126.794 279.563,126.933C281.976,127.071 283.695,126.196 283.944,125.57C284.329,124.603 282.718,123.677 279.579,124.109Z" style="fill:rgb(251,181,126);fill-opacity:0.6;stroke:rgb(47,57,68);stroke-width:0.5px;"/><path d="M234.997,131.584C237.339,131.262 239.996,131.329 240,130.661C240.007,129.451 237.426,128.899 235.013,128.761C232.6,128.622 230.882,129.497 230.632,130.123C230.248,131.091 231.858,132.017 234.997,131.584Z" style="fill:rgb(251,181,126);fill-opacity:0.6;stroke:rgb(47,57,68);stroke-width:0.5px;"/><path d="M255.81,136.091C253.888,136.59 252.018,137.531 251.536,136.955C250.663,135.912 252.131,134.578 253.773,133.657C255.415,132.736 257.283,132.921 257.912,133.379C258.884,134.087 258.386,135.422 255.81,136.091Z" style="fill:rgb(251,181,126);fill-opacity:0.6;stroke:rgb(47,57,68);stroke-width:0.5px;"/><path d="M220.004,112.886L220,112L220.123,112C220.084,112.274 220.043,112.571 220.004,112.886ZM292.123,112.042L292.005,135.021C292.083,135.344 292.123,135.67 292.123,136C292.123,140.336 284.886,149.568 274.858,146.247C269.361,144.426 267.14,144.841 268,147.331C269.223,150.869 260.284,148 256.123,148C254.729,148 253.353,147.974 252,147.922C249.663,147.833 252,145 245.215,147.438C240.488,149.137 237.503,145.741 234,145C229.91,144.135 227.023,141.924 229,144C242,157.654 221,144 222.132,140C222.666,138.109 219.91,137.335 220.123,136L220.103,136L220.036,120.409C220.554,121.652 221.706,121.33 224,117.419C224.768,116.11 226.82,119.03 228.613,119.737C230.109,120.327 234.843,119.975 233.579,121.353C231.325,123.807 231.821,124.883 239.02,122.56C240.918,121.947 243.055,123.209 245.215,123.438C247.394,123.669 249.663,123.833 252,123.922C253.353,123.974 254.729,124 256.123,124C259.391,124 257.99,121.272 261,121C263.836,120.743 271.098,122.035 273.613,122.489C290.187,125.48 288.959,122.321 286.017,118.685C285.161,117.628 288.294,117.438 289.172,116.763C291.055,115.315 292.106,113.718 292.123,112.042Z" style="fill:white;fill-opacity:0.3;stroke:rgb(47,57,68);stroke-opacity:0.5;stroke-width:0.2px;"/><path d="M220,67.157C220,63.531 217.561,60.359 214.057,59.426C202.916,56.531 196,52.479 196,48C196,39.169 222.885,32 256,32C289.115,32 316,39.169 316,48C316,52.479 309.084,56.531 297.946,59.436C294.446,60.367 292.01,63.536 292.01,67.157C292,116.478 292,436 292,436C292,455.869 275.869,472 256,472C236.131,472 220,455.869 220,436C220,436 220,116.478 220,67.157Z" style="fill:rgb(234,244,255);fill-opacity:0.3;stroke:rgb(47,57,68);stroke-width:2px;"/><path d="M226,260L226,76" style="fill:none;stroke:rgb(47,57,68);stroke-width:1px;"/><path d="M286,302.632L286,436C286,446.677 280.41,456.059 272,461.376" style="fill:none;stroke:rgb(47,57,68);stroke-width:1px;"/><path d="M245.215,464C233.979,459.665 226,448.757 226,436L226,312" style="fill:none;stroke:rgb(47,57,68);stroke-width:1px;"/><ellipse cx="256" cy="48" rx="60" ry="16" style="fill:none;stroke:rgb(47,57,68);stroke-width:2px;"/><ellipse cx="256" cy="46" rx="52" ry="10" style="fill:none;stroke:rgb(47,57,68);stroke-width:2px;"/><path d="M234.878,59.036C219.214,57.706 207.547,55.115 204,52" style="fill:none;stroke:rgb(47,57,68);stroke-width:2px;"/></svg>