<?xml version="1.0" encoding="UTF-8" standalone="no"?><!DOCTYPE svg PUBLIC "-//W3C//DTD SVG 1.1//EN" "http://www.w3.org/Graphics/SVG/1.1/DTD/svg11.dtd"><svg width="100%" height="100%" viewBox="0 0 512 512" version="1.1" xmlns="http://www.w3.org/2000/svg" xmlns:xlink="http://www.w3.org/1999/xlink" xml:space="preserve" xmlns:serif="http://www.serif.com/" style="fill-rule:evenodd;clip-rule:evenodd;stroke-linecap:round;stroke-linejoin:round;stroke-miterlimit:1.5;"><rect id="ArtBoard1" x="0" y="0" width="512" height="512" style="fill:none;"/><path d="M460,396.461C465.374,397.78 469.794,401.831 471.475,407.295L483.292,445.701C483.762,447.225 484,448.811 484,450.406L484,464C484,468.243 482.314,472.313 479.314,475.314C476.313,478.314 472.243,480 468,480L44,480C39.757,480 35.687,478.314 32.686,475.314C29.686,472.313 28,468.243 28,464L28,450.406C28,448.811 28.238,447.225 28.708,445.701L40.525,407.295C42.206,401.831 46.626,397.78 52,396.461L52,292C47.757,292 43.687,290.314 40.686,287.314C37.686,284.313 36,280.243 36,276L36,257.333C36,253.871 37.123,250.503 39.2,247.733L55.2,226.4C58.222,222.371 62.964,220 68,220L444,220C449.036,220 453.778,222.371 456.8,226.4L472.8,247.733C474.877,250.503 476,253.871 476,257.333L476,276C476,280.243 474.314,284.313 471.314,287.314C468.313,290.314 464.243,292 460,292L460,396.461ZM84,292L84,396L428,396L428,292L84,292Z" style="fill:rgb(173,179,77);fill-opacity:0.3;"/><path d="M462,394.965C467.349,396.792 471.657,401.085 473.387,406.706L485.204,445.112C485.732,446.827 486,448.612 486,450.406L486,464C486,468.774 484.104,473.352 480.728,476.728C477.352,480.104 472.774,482 468,482L44,482C39.226,482 34.648,480.104 31.272,476.728C27.896,473.352 26,468.774 26,464L26,450.406C26,448.612 26.268,446.827 26.796,445.112L38.613,406.706C40.343,401.085 44.652,396.792 50,394.965L50,293.889C45.962,293.437 42.173,291.629 39.272,288.728C35.896,285.352 34,280.774 34,276L34,257.333C34,253.439 35.263,249.649 37.6,246.533L53.6,225.2C56.999,220.667 62.334,218 68,218L444,218C449.666,218 455.001,220.667 458.4,225.2L474.4,246.533C476.737,249.649 478,253.439 478,257.333L478,276C478,280.774 476.104,285.352 472.728,288.728C469.827,291.629 466.038,293.437 462,293.889L462,394.965ZM460,396.461L460,292C464.243,292 468.313,290.314 471.314,287.314C474.314,284.313 476,280.243 476,276L476,257.333C476,253.871 474.877,250.503 472.8,247.733L456.8,226.4C453.778,222.371 449.036,220 444,220L68,220C62.964,220 58.222,222.371 55.2,226.4L39.2,247.733C37.123,250.503 36,253.871 36,257.333L36,276C36,280.243 37.686,284.313 40.686,287.314C43.687,290.314 47.757,292 52,292L52,396.461C46.626,397.78 42.206,401.831 40.525,407.295L28.708,445.701C28.238,447.225 28,448.811 28,450.406L28,464C28,468.243 29.686,472.313 32.686,475.314C35.687,478.314 39.757,480 44,480L468,480C472.243,480 476.313,478.314 479.314,475.314C482.314,472.313 484,468.243 484,464L484,450.406C484,448.811 483.762,447.225 483.292,445.701L471.475,407.295C469.794,401.831 465.374,397.78 460,396.461ZM84,292L428,292L428,396L84,396L84,292ZM86,294L86,394L426,394L426,294L86,294Z" style="fill:rgb(47,57,68);"/><path d="M460,396.461C465.374,397.78 469.794,401.831 471.475,407.295L483.292,445.701C483.762,447.225 484,448.811 484,450.406L484,464C484,468.243 482.314,472.313 479.314,475.314C476.313,478.314 472.243,480 468,480L44,480C39.757,480 35.687,478.314 32.686,475.314C29.686,472.313 28,468.243 28,464L28,450.406C28,448.811 28.238,447.225 28.708,445.701L40.525,407.295C42.206,401.831 46.626,397.78 52,396.461L52,424L52,424.03C52,428.445 59.169,432.03 68,432.03C76.831,432.03 84,428.445 84,424.03L84,424L84,396L428,396L428,424L428,424.03C428,428.445 435.169,432.03 444,432.03C452.831,432.03 460,428.445 460,424.03L460,424L460,396.461Z" style="fill:rgb(173,179,77);fill-opacity:0.3;stroke:rgb(47,57,68);stroke-width:2px;"/><path d="M460,404.78C461.973,405.723 463.526,407.459 464.199,409.647L472.815,437.647C473.561,440.074 473.112,442.711 471.603,444.753C470.095,446.795 467.707,448 465.168,448L46.832,448C44.293,448 41.905,446.795 40.397,444.753C38.888,442.711 38.439,440.074 39.185,437.647L47.801,409.647C48.474,407.459 50.027,405.723 52,404.78L52,424L52,424.03C52,428.445 59.169,432.03 68,432.03C76.831,432.03 84,428.445 84,424.03L84,424L84,404L428,404L428,424L428,424.03C428,428.445 435.169,432.03 444,432.03C452.831,432.03 460,428.445 460,424.03L460,424L460,404.78Z" style="fill:rgb(173,179,77);fill-opacity:0.3;stroke:rgb(47,57,68);stroke-width:2px;"/><path d="M84,424C84,424.01 84,424.02 84,424.03C84,428.445 76.831,432.03 68,432.03C59.169,432.03 52,428.445 52,424.03C52,424.02 52,424.01 52,424L52,292L84,292L84,424Z" style="fill:rgb(173,179,77);fill-opacity:0.3;stroke:rgb(47,57,68);stroke-width:2px;"/><path d="M460,424C460,424.01 460,424.02 460,424.03C460,428.445 452.831,432.03 444,432.03C435.169,432.03 428,428.445 428,424.03C428,424.02 428,424.01 428,424L428,292L460,292L460,424Z" style="fill:rgb(173,179,77);fill-opacity:0.3;stroke:rgb(47,57,68);stroke-width:2px;"/><path d="M59,424L59,292L76,292L76,424C76,425.932 72.191,427.5 67.5,427.5C62.809,427.5 59,425.932 59,424Z" style="fill:rgb(173,179,77);fill-opacity:0.3;stroke:rgb(47,57,68);stroke-width:1px;"/><path d="M435,424L435,292L452,292L452,424C452,425.932 448.191,427.5 443.5,427.5C438.809,427.5 435,425.932 435,424Z" style="fill:rgb(173,179,77);fill-opacity:0.3;stroke:rgb(47,57,68);stroke-width:1px;"/><path d="M472.8,247.733C474.877,250.503 476,253.871 476,257.333C476,262.108 476,269.361 476,276C476,280.243 474.314,284.313 471.314,287.314C468.313,290.314 464.243,292 460,292C391.189,292 120.811,292 52,292C47.757,292 43.687,290.314 40.686,287.314C37.686,284.313 36,280.243 36,276C36,269.361 36,262.108 36,257.333C36,253.871 37.123,250.503 39.2,247.733C43.301,242.266 50.446,232.738 55.2,226.4C58.222,222.371 62.964,220 68,220C118.575,220 393.425,220 444,220C449.036,220 453.778,222.371 456.8,226.4C461.554,232.738 468.699,242.266 472.8,247.733Z" style="fill:rgb(173,179,77);fill-opacity:0.3;stroke:rgb(47,57,68);stroke-width:2px;"/><path d="M457.381,260C460.39,260 463.144,258.312 464.51,255.63C465.875,252.949 465.62,249.728 463.851,247.295C458.689,240.197 452.656,231.902 449.391,227.412C447.886,225.343 445.482,224.118 442.923,224.118C404.614,224.106 108.093,224.013 70.169,224.001C67.658,224 65.293,225.178 63.78,227.183C60.415,231.643 54.1,240.012 48.69,247.181C46.863,249.604 46.563,252.851 47.916,255.567C49.269,258.283 52.042,260 55.076,260C123.426,260 389.708,260 457.381,260Z" style="fill:rgb(173,179,77);fill-opacity:0.3;stroke:rgb(47,57,68);stroke-width:2px;"/><ellipse cx="256" cy="242" rx="48" ry="14" style="fill-opacity:0.3;stroke:rgb(47,57,68);stroke-width:2px;"/><ellipse cx="256" cy="426" rx="48" ry="14" style="fill-opacity:0.3;stroke:rgb(47,57,68);stroke-width:1px;"/><ellipse cx="132" cy="242" rx="44" ry="14" style="fill-opacity:0.3;stroke:rgb(47,57,68);stroke-width:2px;"/><ellipse cx="132" cy="426" rx="44" ry="14" style="fill-opacity:0.3;stroke:rgb(47,57,68);stroke-width:1px;"/><ellipse cx="380" cy="242" rx="44" ry="14" style="fill-opacity:0.3;stroke:rgb(47,57,68);stroke-width:2px;"/><ellipse cx="380" cy="426" rx="44" ry="14" style="fill-opacity:0.3;stroke:rgb(47,57,68);stroke-width:1px;"/></svg>