<?xml version="1.0" encoding="UTF-8" standalone="no"?><!DOCTYPE svg PUBLIC "-//W3C//DTD SVG 1.1//EN" "http://www.w3.org/Graphics/SVG/1.1/DTD/svg11.dtd"><svg width="100%" height="100%" viewBox="0 0 512 512" version="1.1" xmlns="http://www.w3.org/2000/svg" xmlns:xlink="http://www.w3.org/1999/xlink" xml:space="preserve" xmlns:serif="http://www.serif.com/" style="fill-rule:evenodd;clip-rule:evenodd;stroke-linecap:round;stroke-linejoin:round;stroke-miterlimit:1.5;"><rect id="ArtBoard1" x="0" y="0" width="512" height="512" style="fill:none;"/><path d="M196,48C196,39.169 222.885,32 256,32C289.115,32 316,39.169 316,48C316,50.731 313.429,53.303 308.897,55.553C308.893,55.555 308.888,55.558 308.884,55.56C303.446,58.262 300.007,63.81 300.007,69.882C300,132.009 300,436 300,436C300,460.284 280.284,480 256,480C231.716,480 212,460.284 212,436L212,69.882C212,63.927 208.693,58.476 203.439,55.718C198.699,53.429 196,50.798 196,48Z" style="fill:none;stroke:rgb(47,57,68);stroke-width:4px;"/><path d="M212,69.882C212,63.802 208.553,58.248 203.106,55.548C198.571,53.303 196,50.731 196,48C196,39.169 222.885,32 256,32C289.115,32 316,39.169 316,48C316,50.731 313.429,53.303 308.897,55.553C303.452,58.253 300.007,63.805 300.007,69.882C300,132.009 300,436 300,436C300,460.284 280.284,480 256,480C231.716,480 212,460.284 212,436C212,436 212,132.009 212,69.882Z" style="fill:rgb(234,244,255);fill-opacity:0.3;stroke:rgb(47,57,68);stroke-width:2px;"/><path d="M220,67.157C220,63.531 217.561,60.359 214.057,59.426C202.916,56.531 196,52.479 196,48C196,39.169 222.885,32 256,32C289.115,32 316,39.169 316,48C316,52.479 309.084,56.531 297.946,59.436C294.446,60.367 292.01,63.536 292.01,67.157C292,116.478 292,436 292,436C292,455.869 275.869,472 256,472C236.131,472 220,455.869 220,436C220,436 220,116.478 220,67.157Z" style="fill:rgb(234,244,255);fill-opacity:0.3;stroke:rgb(47,57,68);stroke-width:2px;"/><path d="M226,260L226,76" style="fill:none;stroke:rgb(47,57,68);stroke-width:1px;"/><path d="M286,302.632L286,436C286,446.677 280.41,456.059 272,461.376" style="fill:none;stroke:rgb(47,57,68);stroke-width:1px;"/><path d="M245.215,464C233.979,459.665 226,448.757 226,436L226,312" style="fill:none;stroke:rgb(47,57,68);stroke-width:1px;"/><ellipse cx="256" cy="48" rx="60" ry="16" style="fill:none;stroke:rgb(47,57,68);stroke-width:2px;"/><ellipse cx="256" cy="46" rx="52" ry="10" style="fill:none;stroke:rgb(47,57,68);stroke-width:2px;"/><path d="M234.878,59.036C219.214,57.706 207.547,55.115 204,52" style="fill:none;stroke:rgb(47,57,68);stroke-width:2px;"/></svg>