<?xml version="1.0" encoding="UTF-8" standalone="no"?><!DOCTYPE svg PUBLIC "-//W3C//DTD SVG 1.1//EN" "http://www.w3.org/Graphics/SVG/1.1/DTD/svg11.dtd"><svg width="100%" height="100%" viewBox="0 0 30 30" version="1.1" xmlns="http://www.w3.org/2000/svg" xmlns:xlink="http://www.w3.org/1999/xlink" xml:space="preserve" xmlns:serif="http://www.serif.com/" style="fill-rule:evenodd;clip-rule:evenodd;stroke-linecap:round;stroke-linejoin:round;stroke-miterlimit:1.5;"><g transform="matrix(1,0,0,1,-30,-60)"><g id="rotate_right" transform="matrix(1,0,0,1,30,60)"><rect x="0" y="0" width="30" height="30" style="fill:none;"/><g transform="matrix(-7.90338e-17,1.09091,1.5,1.00747e-16,-78.5,-0.909091)"><path d="M10,65L10,69L4.5,69L10,65Z" style="fill:rgb(203,203,203);stroke:rgb(203,203,203);stroke-width:0.76px;"/></g><g transform="matrix(-1,0,0,1,30,-60)"><path d="M26,75C26,81.071 21.071,86 15,86C8.929,86 4,81.071 4,75" style="fill:none;stroke:rgb(235,235,235);stroke-width:2px;stroke-dasharray:0,4,0,0,0,0;"/></g><g transform="matrix(-1,0,0,1,30,-60)"><path d="M6.517,68C8.535,65.558 11.587,64 15,64C21.071,64 26,68.929 26,75" style="fill:none;stroke:rgb(203,203,203);stroke-width:2px;"/></g></g></g></svg>