<?xml version="1.0" encoding="UTF-8" standalone="no"?><!DOCTYPE svg PUBLIC "-//W3C//DTD SVG 1.1//EN" "http://www.w3.org/Graphics/SVG/1.1/DTD/svg11.dtd"><svg width="100%" height="100%" viewBox="0 0 30 30" version="1.1" xmlns="http://www.w3.org/2000/svg" xmlns:xlink="http://www.w3.org/1999/xlink" xml:space="preserve" xmlns:serif="http://www.serif.com/" style="fill-rule:evenodd;clip-rule:evenodd;stroke-linecap:round;stroke-linejoin:round;stroke-miterlimit:1.5;"><rect id="save" x="0" y="0" width="30" height="30" style="fill:none;"/><path d="M5,25L5,5L8,5L8,11L21,11L21,5L23,5L25,7L25,25L5,25ZM22,25C22.552,25 23,24.552 23,24C23,22.268 23,18.732 23,17C23,16.448 22.552,16 22,16C19.127,16 10.873,16 8,16C7.448,16 7,16.448 7,17C7,18.732 7,22.268 7,24C7,24.552 7.448,25 8,25C10.873,25 19.127,25 22,25ZM16.5,5L17.5,5L17.5,8L16.5,8L16.5,5Z" style="fill:rgb(203,203,203);stroke:rgb(203,203,203);stroke-width:2px;"/></svg>