<?xml version="1.0" encoding="UTF-8" standalone="no"?><!DOCTYPE svg PUBLIC "-//W3C//DTD SVG 1.1//EN" "http://www.w3.org/Graphics/SVG/1.1/DTD/svg11.dtd"><svg width="100%" height="100%" viewBox="0 0 512 512" version="1.1" xmlns="http://www.w3.org/2000/svg" xmlns:xlink="http://www.w3.org/1999/xlink" xml:space="preserve" xmlns:serif="http://www.serif.com/" style="fill-rule:evenodd;clip-rule:evenodd;stroke-linecap:round;stroke-linejoin:round;stroke-miterlimit:1.5;"><rect id="ArtBoard1" x="0" y="0" width="512" height="512" style="fill:none;"/><path d="M148,62C148,45.443 196.393,32 256,32C315.607,32 364,45.443 364,62C364,62.202 363.993,62.403 363.979,62.604L363.979,95.393C363.993,95.594 364,95.795 364,95.997C364,101.514 358.626,106.686 349.254,111.13C350.638,110.609 352.199,110.729 353.499,111.488C355.022,112.377 355.958,114.007 355.958,115.77C356,168.247 356,447.943 356,447.943L356,448C355.904,465.667 311.133,480 256,480C200.867,480 156.096,465.667 156,448L156,447.943L156,115.77C156,113.992 156.944,112.348 158.48,111.452C159.69,110.746 161.123,110.588 162.434,110.98C153.256,106.571 148.002,101.455 148,96L148,62Z" style="fill:rgb(234,244,255);fill-opacity:0.6;stroke:rgb(47,57,68);stroke-width:4px;"/><path d="M348.561,111.453C350.096,110.586 351.976,110.599 353.499,111.488C355.022,112.377 355.958,114.007 355.958,115.77C356,168.247 356,447.943 356,447.943L356,448C355.904,465.667 311.133,480 256,480C200.867,480 156.096,465.667 156,448L156,447.943C156,447.943 156,168.247 156,115.77C156,113.992 156.944,112.348 158.48,111.452C160.015,110.556 161.911,110.543 163.459,111.417C182.346,120.165 216.741,125.997 256,125.997C295.259,125.997 329.654,120.165 348.561,111.453Z" style="fill:rgb(234,244,255);fill-opacity:0.6;stroke:rgb(47,57,68);stroke-width:2px;"/><ellipse cx="256" cy="448" rx="96" ry="28" style="fill:rgb(167,215,255);fill-opacity:0.6;stroke:rgb(47,57,68);stroke-width:2px;"/><path d="M352,232L352,448C352,463.454 308.984,476 256,476C203.016,476 160,463.454 160,448L160,232C160,247.454 203.016,260 256,260C308.984,260 352,247.454 352,232Z" style="fill:rgb(167,215,255);fill-opacity:0.6;stroke:rgb(47,57,68);stroke-width:2px;"/><path d="M352,115.748L352,448C352,463.454 308.984,476 256,476C203.016,476 160,463.454 160,448L160,115.748C177.961,125.398 214.227,132 256,132C297.773,132 334.039,125.398 352,115.748Z" style="fill:none;stroke:rgb(47,57,68);stroke-width:1px;"/><ellipse cx="256" cy="232" rx="96" ry="28" style="fill:rgb(167,215,255);fill-opacity:0.6;stroke:rgb(47,57,68);stroke-width:2px;"/><path d="M256,254.105C210.637,254.105 173.808,244.2 173.808,232C173.808,219.8 210.637,209.895 256,209.895C214.171,209.895 180.211,219.8 180.211,232C180.211,244.2 214.171,254.105 256,254.105ZM256,209.895C301.363,209.895 338.192,219.8 338.192,232C338.192,244.2 301.363,254.105 256,254.105C297.829,254.105 331.789,244.2 331.789,232C331.789,219.8 297.829,209.895 256,209.895Z" style="fill:rgb(234,244,255);fill-opacity:0.6;"/><path d="M256,246.737C225.758,246.737 201.205,240.133 201.205,232C201.205,223.867 225.758,217.263 256,217.263C228.114,217.263 205.474,223.867 205.474,232C205.474,240.133 228.114,246.737 256,246.737ZM256,217.263C286.242,217.263 310.795,223.867 310.795,232C310.795,240.133 286.242,246.737 256,246.737C283.886,246.737 306.526,240.133 306.526,232C306.526,223.867 283.886,217.263 256,217.263Z" style="fill:rgb(234,244,255);fill-opacity:0.6;"/><path d="M256,239.368C240.879,239.368 228.603,236.067 228.603,232C228.603,227.933 240.879,224.632 256,224.632C242.057,224.632 230.737,227.933 230.737,232C230.737,236.067 242.057,239.368 256,239.368ZM256,224.632C271.121,224.632 283.397,227.933 283.397,232C283.397,236.067 271.121,239.368 256,239.368C269.943,239.368 281.263,236.067 281.263,232C281.263,227.933 269.943,224.632 256,224.632Z" style="fill:rgb(234,244,255);fill-opacity:0.6;"/><path d="M308,122.292L308,471.474C301.761,472.635 295.064,473.62 288,474.404L288,124.656C294.997,124.053 301.691,123.257 308,122.292ZM324,119.297L324,467.839C321.455,468.539 318.785,469.205 316,469.833L316,120.939C318.759,120.425 321.428,119.877 324,119.297Z" style="fill:white;fill-opacity:0.6;stroke:rgb(47,57,68);stroke-width:1px;"/><path d="M363.979,62.604L363.979,95.393C363.993,95.594 364,95.795 364,95.997C364,112.554 315.607,125.997 256,125.997C196.397,125.997 148.007,112.556 148,96L148,62C148,78.557 196.393,92 256,92C314.881,92 362.82,78.883 363.979,62.604Z" style="fill:rgb(128,128,128);fill-opacity:0.6;stroke:rgb(47,57,68);stroke-width:2px;"/><path d="M296,123.869L296,89.872C303.064,89.088 309.761,88.103 316,86.942L316,120.939C309.761,122.1 303.064,123.085 296,123.869ZM324,119.297L324,85.301C326.785,84.673 329.455,84.007 332,83.307L332,117.303C329.455,118.004 326.785,118.67 324,119.297Z" style="fill:white;fill-opacity:0.6;stroke:rgb(47,57,68);stroke-width:1px;"/><ellipse cx="256" cy="62" rx="108" ry="30" style="fill:rgb(128,128,128);fill-opacity:0.6;stroke:rgb(47,57,68);stroke-width:2px;"/><ellipse cx="256" cy="62" rx="104" ry="26" style="fill:rgb(128,128,128);fill-opacity:0.6;stroke:rgb(47,57,68);stroke-width:2px;"/></svg>