<?xml version="1.0" encoding="UTF-8" standalone="no"?><!DOCTYPE svg PUBLIC "-//W3C//DTD SVG 1.1//EN" "http://www.w3.org/Graphics/SVG/1.1/DTD/svg11.dtd"><svg width="100%" height="100%" viewBox="0 0 512 512" version="1.1" xmlns="http://www.w3.org/2000/svg" xmlns:xlink="http://www.w3.org/1999/xlink" xml:space="preserve" xmlns:serif="http://www.serif.com/" style="fill-rule:evenodd;clip-rule:evenodd;stroke-linecap:round;stroke-linejoin:round;stroke-miterlimit:1.5;"><rect id="ArtBoard1" x="0" y="0" width="512" height="512" style="fill:none;"/><path d="M256,259.802C235.085,260.074 239.616,292.384 224,320C210.498,340.018 196.918,336 110.851,336C62.941,336 36,303.91 36,256C33.791,256 32,254.209 32,252L32,212C32,209.791 33.791,208 36,208L36.137,208C37.972,181.47 58.45,156 112,156L400,156C453.55,156 474.028,181.47 475.863,208L476,208C478.209,208 480,209.791 480,212L480,252C480,254.209 478.209,256 476,256C476,303.91 449.059,336 401.149,336C315.082,336 301.502,340.018 288,320C272.384,292.384 276.915,260.074 256,259.802Z" style="fill:rgb(251,181,126);fill-opacity:0.3;stroke:rgb(47,57,68);stroke-width:4px;"/><path d="M256,258.945C235.085,259.217 239.616,292.384 224,320C215.491,332.616 206.95,335.685 180.252,336.23C170.693,336.133 158.499,336 142.851,336C94.941,336 68,303.91 68,256L68,255.143C68,254.857 68,254.572 68,254.287C68,184.067 79.479,155.143 144,155.143L256,155.572L368,155.143C432.521,155.143 444,184.067 444,254.287C444,254.572 444,254.857 444,255.143L444,256C444,303.91 417.059,336 369.149,336C353.501,336 341.307,336.133 331.748,336.23C305.05,335.685 296.509,332.616 288,320C272.384,292.384 276.915,259.217 256,258.945Z" style="fill:rgb(251,181,126);fill-opacity:0.3;stroke:rgb(47,57,68);stroke-width:2px;"/><path d="M256.104,250.946L255.896,250.946C243.949,251.101 237.216,258.057 232.73,269.731C228.156,281.636 226.209,299.669 217.196,315.779C210.072,326.183 202.464,327.77 180.21,328.229C170.648,328.132 158.465,328 142.851,328C121.497,328 104.725,321.078 93.382,308.588C81.856,295.896 76,277.699 76,256.001L76,255.143L76,254.298L76,254.287C76,233.939 76.941,217.176 80.021,203.685C82.777,191.613 87.188,182.355 94.64,175.842C104.996,166.79 120.738,163.145 143.987,163.143L255.969,163.572L256.031,163.572L368.013,163.143C391.262,163.145 407.004,166.79 417.36,175.842C424.812,182.355 429.223,191.613 431.979,203.685C435.059,217.176 436,233.939 436,254.287L436,254.298L436,255.143L436,256.001C436,277.699 430.144,295.896 418.618,308.588C407.275,321.078 390.503,328 369.149,328C353.535,328 341.352,328.132 331.79,328.229C309.535,327.77 301.927,326.183 294.81,315.788C285.791,299.669 283.844,281.636 279.27,269.731C274.784,258.057 268.051,251.101 256.104,250.946Z" style="fill:rgb(251,181,126);fill-opacity:0.3;stroke:rgb(47,57,68);stroke-width:2px;"/><path d="M69.718,276L43.818,276C43.818,276 42,263.05 42,256L48,256C50.209,256 52,254.209 52,252L52,212C52,209.791 50.209,208 48,208L42.153,208C43.87,185.878 60.456,165.511 100.949,162.408C73.89,174.875 68,203.986 68,254.287L68,255.143L68,256C68,263.024 68.579,269.708 69.718,276ZM411.051,162.408C451.544,165.511 468.13,185.878 469.847,208L464,208C461.791,208 460,209.791 460,212L460,252C460,254.209 461.791,256 464,256L470,256C470,263.05 468.182,276 468.182,276L442.282,276C443.421,269.708 444,263.024 444,256L444,255.143L444,254.287C444,203.986 438.11,174.875 411.051,162.408Z" style="fill:rgb(168,77,5);fill-opacity:0.3;stroke:rgb(47,57,68);stroke-width:2px;"/><path d="M480,212C480,209.791 478.209,208 476,208C472.514,208 467.486,208 464,208C461.791,208 460,209.791 460,212C460,221.04 460,242.96 460,252C460,254.209 461.791,256 464,256C467.486,256 472.514,256 476,256C478.209,256 480,254.209 480,252C480,242.96 480,221.04 480,212Z" style="fill:rgb(251,181,126);"/><path d="M480,212L480,252C480,254.209 478.209,256 476,256L464,256C461.791,256 460,254.209 460,252L460,212C460,209.791 461.791,208 464,208L476,208C478.209,208 480,209.791 480,212ZM478,212C478,210.895 477.105,210 476,210L464,210C462.895,210 462,210.895 462,212L462,252C462,253.105 462.895,254 464,254L476,254C477.105,254 478,253.105 478,252L478,212Z" style="fill:rgb(47,57,68);"/><path d="M32,212C32,209.791 33.791,208 36,208C39.486,208 44.514,208 48,208C50.209,208 52,209.791 52,212C52,221.04 52,242.96 52,252C52,254.209 50.209,256 48,256C44.514,256 39.486,256 36,256C33.791,256 32,254.209 32,252C32,242.96 32,221.04 32,212Z" style="fill:rgb(251,181,126);"/><path d="M32,212C32,209.791 33.791,208 36,208L48,208C50.209,208 52,209.791 52,212L52,252C52,254.209 50.209,256 48,256L36,256C33.791,256 32,254.209 32,252L32,212ZM34,212L34,252C34,253.105 34.895,254 36,254L48,254C49.105,254 50,253.105 50,252L50,212C50,210.895 49.105,210 48,210L36,210C34.895,210 34,210.895 34,212Z" style="fill:rgb(47,57,68);"/><path d="M110.621,321.344L264.666,163.539L289.657,163.443L128.925,326.929C122.232,325.851 116.119,323.97 110.621,321.344Z" style="fill:white;fill-opacity:0.6;stroke:rgb(47,57,68);stroke-width:1px;"/><path d="M100.574,315.206C97.977,313.215 95.578,311.006 93.382,308.588C81.856,295.896 76,277.699 76,256.001L76,255.143L76,254.298L76,254.287C76,253.594 76.001,252.905 76.004,252.22L164.789,163.223L248.623,163.544L100.574,315.206Z" style="fill:white;fill-opacity:0.6;stroke:rgb(47,57,68);stroke-width:1px;"/></svg>