<?xml version="1.0" encoding="UTF-8" standalone="no"?><!DOCTYPE svg PUBLIC "-//W3C//DTD SVG 1.1//EN" "http://www.w3.org/Graphics/SVG/1.1/DTD/svg11.dtd"><svg width="100%" height="100%" viewBox="0 0 30 30" version="1.1" xmlns="http://www.w3.org/2000/svg" xmlns:xlink="http://www.w3.org/1999/xlink" xml:space="preserve" xmlns:serif="http://www.serif.com/" style="fill-rule:evenodd;clip-rule:evenodd;stroke-linecap:round;stroke-linejoin:round;stroke-miterlimit:1.5;"><g transform="matrix(1,0,0,1,0,-90)"><g id="settings" transform="matrix(1,0,0,1,0,90)"><rect x="0" y="0" width="30" height="30" style="fill:none;"/><clipPath id="_clip1"><rect x="0" y="0" width="30" height="30"/></clipPath><g clip-path="url(#_clip1)"><g transform="matrix(0.9,0,0,1,2,-90)"><path d="M30,108L15,108" style="fill:none;stroke:rgb(235,235,235);stroke-width:2.1px;"/></g><g transform="matrix(0.9,0,0,1,2,-85)"><path d="M30,108L15,108" style="fill:none;stroke:rgb(235,235,235);stroke-width:2.1px;"/></g><g transform="matrix(0.9,0,0,1,2,-80)"><path d="M30,108L15,108" style="fill:none;stroke:rgb(235,235,235);stroke-width:2.1px;"/></g><g transform="matrix(1,0,0,1,3.55271e-15,-90)"><circle cx="24" cy="108" r="2" style="fill:rgb(203,203,203);"/></g><g transform="matrix(1,0,0,1,3.55271e-15,-90)"><path d="M13,112C13.552,112 14,112.448 14,113C14,113.322 14,113.678 14,114C14,114.552 13.552,115 13,115C10.74,115 5.26,115 3,115C2.735,115 2.48,114.895 2.293,114.707C2.105,114.52 2,114.265 2,114C2,110.586 2,99.414 2,96C2,95.735 2.105,95.48 2.293,95.293C2.48,95.105 2.735,95 3,95C7.134,95 22.866,95 27,95C27.552,95 28,95.448 28,96C28,97.916 28,102.084 28,104C28,104.552 27.552,105 27,105C26.719,105 26.426,105 26.193,105C25.904,105 25.63,104.875 25.44,104.657C25.098,104.245 24.577,104 24,104C23.423,104 22.902,104.245 22.537,104.637C22.353,104.848 22.087,104.969 21.807,104.969C20.482,105 16.679,105 15.414,105C15.149,105 14.895,105.105 14.707,105.293C14.577,105.423 14.423,105.577 14.293,105.707C14.105,105.895 13.851,106 13.586,106L13.333,106C13.117,106 12.906,105.93 12.733,105.8C12.098,105.324 10.483,104.113 9.6,103.45C9.244,103.183 8.756,103.183 8.4,103.45C7.573,104.07 6.105,105.171 5.4,105.7C5.148,105.889 5,106.185 5,106.5C5,107.487 5,109.702 5,111C5,111.265 5.105,111.52 5.293,111.707C5.48,111.895 5.735,112 6,112C7.732,112 11.268,112 13,112ZM23,98C21.896,98 21,98.896 21,100C21,101.104 21.896,102 23,102C24.104,102 25,101.104 25,100C25,98.896 24.104,98 23,98Z" style="fill:rgb(203,203,203);"/></g><g transform="matrix(1,0,0,1,3.55271e-15,-90)"><circle cx="19" cy="113" r="2" style="fill:rgb(203,203,203);"/></g><g transform="matrix(1,0,0,1,3.55271e-15,-90)"><circle cx="26" cy="118" r="2" style="fill:rgb(203,203,203);"/></g></g></g></g></svg>