<?xml version="1.0" encoding="UTF-8" standalone="no"?><!DOCTYPE svg PUBLIC "-//W3C//DTD SVG 1.1//EN" "http://www.w3.org/Graphics/SVG/1.1/DTD/svg11.dtd"><svg width="100%" height="100%" viewBox="0 0 30 30" version="1.1" xmlns="http://www.w3.org/2000/svg" xmlns:xlink="http://www.w3.org/1999/xlink" xml:space="preserve" xmlns:serif="http://www.serif.com/" style="fill-rule:evenodd;clip-rule:evenodd;stroke-linecap:round;stroke-linejoin:round;stroke-miterlimit:1.5;"><rect id="snap" x="0" y="0" width="30" height="30" style="fill:none;"/><path d="M6.434,17.909L3.605,15.081L5.727,12.96L8.555,15.788L6.434,17.909ZM14.919,26.395L12.091,23.566L14.212,21.445L17.04,24.273L14.919,26.395Z" style="fill:rgb(217,217,217);stroke:rgb(217,217,217);stroke-width:1px;"/><path d="M21.637,8.363C20.886,7.613 19.869,7.192 18.808,7.192C17.747,7.192 16.73,7.613 15.98,8.364L9.969,14.374L7.141,11.545L13.153,5.534C14.653,4.034 16.687,3.191 18.808,3.191C20.929,3.191 22.964,4.034 24.464,5.534L24.466,5.536C25.966,7.036 26.809,9.071 26.809,11.192C26.809,13.313 25.966,15.347 24.466,16.847L18.455,22.859L15.626,20.031L21.637,14.02C22.387,13.27 22.808,12.253 22.808,11.192C22.808,10.131 22.387,9.114 21.637,8.363Z" style="fill:rgb(224,43,65);stroke:rgb(224,43,65);stroke-width:1px;"/></svg>