<?xml version="1.0" encoding="UTF-8" standalone="no"?><!DOCTYPE svg PUBLIC "-//W3C//DTD SVG 1.1//EN" "http://www.w3.org/Graphics/SVG/1.1/DTD/svg11.dtd"><svg width="100%" height="100%" viewBox="0 0 512 512" version="1.1" xmlns="http://www.w3.org/2000/svg" xmlns:xlink="http://www.w3.org/1999/xlink" xml:space="preserve" xmlns:serif="http://www.serif.com/" style="fill-rule:evenodd;clip-rule:evenodd;stroke-linecap:round;stroke-linejoin:round;stroke-miterlimit:1.5;"><rect id="ArtBoard1" x="0" y="0" width="512" height="512" style="fill:none;"/><path d="M224,102.938C226.769,99.965 229.701,97.83 232.498,96.681C235.425,95.479 238.277,95.281 240.864,96.055C241.065,96.115 241.265,96.181 241.463,96.253C241.815,96.381 242.158,96.527 242.483,96.685L261.406,104.255C265.323,105.698 268.275,109.404 269.593,114.869C271.164,121.377 270.452,130.651 267.009,140.11C263.553,149.605 257.733,157.138 252.008,161.078C247.289,164.325 242.498,165.205 238.632,163.797C238.235,163.653 237.852,163.487 237.488,163.303L218.958,155.891L218.727,155.809C218.395,155.689 218.072,155.552 217.758,155.401C213.409,153.311 210.583,148.043 210.251,140.705L210.248,140.64C210.174,138.933 210.224,137.108 210.4,135.196C198.56,143.078 181.333,154.551 175.949,158.159C174.922,167.735 166.849,178.56 145.576,187.677C144.494,188.14 143.264,188.104 142.211,187.578L134.211,183.578C132.856,182.9 132,181.515 132,180L132,148.827C120.456,147.59 107.114,150.854 99.388,162.279C98.64,163.385 97.39,164.045 96.055,164.039L87.981,164C85.89,163.99 84.159,162.371 84.01,160.285L80.01,104.285C79.98,103.858 80.018,103.428 80.124,103.013C83.163,91.074 91.065,82.861 101.205,77.753C115.192,70.708 133.538,69.709 148.359,72.826L189.985,48.545C191.079,47.906 192.411,47.824 193.576,48.323L202.99,52.358L210.085,48.488C211.1,47.935 212.305,47.847 213.39,48.249C213.662,48.35 213.932,48.453 214.199,48.557C260.488,10.469 342.702,26.617 373.598,83.551C386.961,108.176 390.826,140.429 377.791,179.198C370.435,201.08 356.833,216.808 344.937,233.399C334.16,248.43 324.844,264.217 323.921,286.758C326.251,287.733 328.104,288.914 329.37,290.169C331.166,291.949 332,293.965 332,296L332,333.107C368.007,336.22 398.752,345.702 417.871,358.595C432.088,368.182 440,379.79 440,392L440,392.119L440,424C440,437.537 430.205,450.364 412.93,460.513C388.804,474.687 349.89,484 306,484C262.11,484 223.196,474.687 199.07,460.513C181.795,450.364 172,437.537 172,424L172,392.119L172,392C172,379.543 180.246,367.707 195.014,358.006C214.9,344.943 246.828,335.489 284,332.79L284,296C284,293.951 284.846,291.921 286.668,290.132C288.005,288.819 289.988,287.588 292.487,286.592C296.169,242.949 318.561,216.11 329.838,201.551C359.53,163.213 361.003,125.932 347.224,98.865C326.996,59.128 274.135,41.85 232.642,76.901C232.472,78.197 232.222,79.539 231.891,80.929C231.616,82.079 230.846,83.049 229.789,83.578L224,86.472L224,102.938ZM212.73,144.17C211.803,143.79 211.048,143.072 210.622,142.166L210.589,142.144C211.435,143.964 212.964,144.359 213.738,144.439C213.567,144.418 213.354,144.377 213.108,144.303C213.369,144.38 213.641,144.431 213.92,144.454C214.018,144.459 214.095,144.459 214.145,144.458L214.122,144.443L212.73,144.17ZM213.738,144.439C213.857,144.454 213.956,144.46 214.032,144.461L213.92,144.454C213.866,144.451 213.804,144.446 213.738,144.439ZM214.172,144.453L214.177,144.457L214.191,144.457L214.172,144.453ZM84,104L88,160L96.074,160.039C105.515,146.079 122.4,142.845 136,145.372L136,180L144,184C164.676,175.139 172.099,165.055 172.063,155.954C173.522,154.944 199.631,137.559 212.689,128.867L215.236,129.958C214.444,133.747 214.108,137.325 214.244,140.467L214.215,140.455L214.247,140.524C214.497,146.052 216.214,150.221 219.491,151.796C219.687,151.89 219.888,151.975 220.095,152.051C220.17,152.078 220.245,152.104 220.321,152.128L239.152,159.661C239.424,159.805 239.706,159.932 240,160.039C247.08,162.615 258.034,153.073 263.25,138.742C268.466,124.411 267.08,110.577 260,108L240.85,100.34C240.606,100.216 240.354,100.107 240.095,100.012C239.97,99.967 239.845,99.925 239.718,99.887C235.306,98.568 229.804,101.81 225.047,107.865C224.503,108.557 223.969,109.286 223.448,110.049L220,108.571L220,84L228,80C228.427,78.213 228.703,76.514 228.834,74.899C302,11 410.277,104.225 333,204C321.777,218.49 299.178,245.408 296.278,289.519C291.264,290.973 288,293.335 288,296L288,336.533C224.757,340.314 176,363.723 176,392L176,392.115L176,424C176,454.907 234.251,480 306,480C377.749,480 436,454.907 436,424L436,392.115L436,392C436,364.323 389.287,341.308 328,336.8L328,296C328,293.358 324.792,291.014 319.851,289.557C320.318,239.487 359.561,220.869 374,177.924C416,53 278,-2 214.914,53.195C213.983,52.773 213.012,52.375 212,52L203.2,56.8L192,52L149.022,77.071C125.291,71.514 90.832,77.159 84,104ZM214.283,144.467L214.247,144.524L214.302,144.467L214.283,144.467Z" style="fill:rgb(47,57,68);"/><path d="M215.236,129.958L192,120C192,108 196,104 200,100L223.448,110.049C221.233,113.289 219.244,117.144 217.689,121.416C216.633,124.317 215.813,127.194 215.236,129.958Z" style="fill:rgb(128,128,128);fill-opacity:0.3;stroke:rgb(47,57,68);stroke-width:2px;"/><path d="M215.236,129.958L196,121.714C196,109.714 200,105.714 204,101.714L223.448,110.049C221.233,113.289 219.244,117.144 217.689,121.416C216.633,124.317 215.813,127.194 215.236,129.958Z" style="fill:rgb(128,128,128);fill-opacity:0.3;stroke:rgb(47,57,68);stroke-width:1px;"/><path d="M215.236,129.958L204,125.143C204,113.143 208,109.143 212,105.143L223.448,110.049C221.233,113.289 219.244,117.144 217.689,121.416C216.633,124.317 215.813,127.194 215.236,129.958Z" style="fill:rgb(128,128,128);fill-opacity:0.3;stroke:rgb(47,57,68);stroke-width:1px;"/><path d="M215.236,129.958L212,128.571C212,116.571 216,112.571 220,108.571L223.448,110.049C221.233,113.289 219.244,117.144 217.689,121.416C216.633,124.317 215.813,127.194 215.236,129.958Z" style="fill:rgb(128,128,128);fill-opacity:0.3;stroke:rgb(47,57,68);stroke-width:1px;"/><path d="M260,108C267.08,110.577 268.466,124.411 263.25,138.742C258.034,153.073 247.08,162.615 240,160.039C232.92,157.462 232.378,143.735 237.594,129.404C242.81,115.073 252.92,105.423 260,108Z" style="fill:rgb(64,64,64);fill-opacity:0.3;stroke:rgb(47,57,68);stroke-width:1px;"/><path d="M239.152,159.661L220.321,152.128C220.245,152.104 220.17,152.078 220.095,152.051C219.888,151.975 219.687,151.89 219.491,151.796C212.988,148.67 212.626,135.328 217.689,121.416C222.813,107.337 232.661,97.777 239.718,99.887C239.845,99.925 239.97,99.967 240.095,100.012C240.354,100.107 240.606,100.216 240.85,100.34L260,108C252.92,105.423 242.81,115.073 237.594,129.404C232.595,143.14 232.885,156.321 239.152,159.661Z" style="fill:rgb(64,64,64);fill-opacity:0.3;stroke:rgb(47,57,68);stroke-width:1px;"/><path d="M214.247,140.524L214.215,140.455L234.148,148.428C234.379,153.859 236.018,157.991 239.152,159.661L219.491,151.796C216.214,150.221 214.497,146.052 214.247,140.524ZM215.865,127.269C216.363,125.348 216.972,123.388 217.689,121.416C218.482,119.237 219.389,117.165 220.381,115.229L240.296,123.195C239.3,125.138 238.39,127.216 237.594,129.404C236.879,131.367 236.273,133.32 235.776,135.234L215.865,127.269ZM225.047,107.865C229.804,101.81 235.306,98.568 239.718,99.887L260,108C255.99,106.54 251.008,109.003 246.494,114.017C245.978,114.59 245.469,115.196 244.967,115.833L225.047,107.865Z" style="fill:rgb(64,64,64);fill-opacity:0.3;stroke:rgb(47,57,68);stroke-width:1px;"/><path d="M436,392.115L436,424C436,454.907 377.749,480 306,480C234.251,480 176,454.907 176,424L176,392.115C176.144,422.969 234.34,448 306,448C377.66,448 435.856,422.969 436,392.115Z" style="fill-opacity:0.6;stroke:rgb(47,57,68);stroke-width:2px;"/><path d="M328,336.8C389.287,341.308 436,364.323 436,392C436,422.907 377.749,448 306,448C234.251,448 176,422.907 176,392C176,363.723 224.757,340.314 288,336.533L288,376C288,380.415 296.962,384 308,384C319.038,384 328,380.415 328,376L328,336.8Z" style="fill-opacity:0.6;stroke:rgb(47,57,68);stroke-width:2px;"/><path d="M328,344.815C360.238,347.235 388.236,354.898 406.851,365.834C419.638,373.346 428,381.98 428,392C428,402.02 419.638,410.654 406.851,418.166C384.111,431.526 347.368,440 306,440C264.632,440 227.889,431.526 205.149,418.166C192.362,410.654 184,402.02 184,392C184,381.98 192.362,373.346 205.149,365.834C224.529,354.448 254.082,346.61 288,344.543L288,376C288,380.415 296.962,384 308,384C319.038,384 328,380.415 328,376L328,344.815Z" style="fill-opacity:0.6;stroke:rgb(47,57,68);stroke-width:2px;"/><path d="M328,296L328,376C328,380.415 319.038,384 308,384C296.962,384 288,380.415 288,376L288,296C288,300.415 296.962,304 308,304C319.038,304 328,300.415 328,296Z" style="fill:rgb(64,64,64);fill-opacity:0.3;stroke:rgb(47,57,68);stroke-width:2px;"/><path d="M319.851,289.557C324.792,291.014 328,293.358 328,296C328,300.415 319.038,304 308,304C296.962,304 288,300.415 288,296C288,293.335 291.264,290.973 296.278,289.519C296.14,291.62 296.047,293.76 296.001,295.939L296,296C296,298.208 301.377,300 308,300C314.623,300 320,298.208 320,296C319.999,295.951 319.996,295.902 319.992,295.854C319.877,293.7 319.832,291.602 319.851,289.557Z" style="fill:rgb(64,64,64);fill-opacity:0.3;stroke:rgb(47,57,68);stroke-width:2px;"/><path d="M214.914,53.195C278,-2 416,53 374,177.924C358.972,222.624 317.07,240.967 319.992,295.854C319.996,295.902 319.999,295.951 320,296C320,298.208 314.623,300 308,300C301.377,300 296,298.208 296,296L296.001,295.939C297,248 321.243,219.18 333,204C410.277,104.225 302,11 228.834,74.899C229.685,64.466 224.501,57.548 214.914,53.195Z" style="fill:rgb(64,64,64);fill-opacity:0.3;"/><clipPath id="_clip1"><path d="M214.914,53.195C278,-2 416,53 374,177.924C358.972,222.624 317.07,240.967 319.992,295.854C319.996,295.902 319.999,295.951 320,296C320,298.208 314.623,300 308,300C301.377,300 296,298.208 296,296L296.001,295.939C297,248 321.243,219.18 333,204C410.277,104.225 302,11 228.834,74.899C229.685,64.466 224.501,57.548 214.914,53.195Z"/></clipPath><g clip-path="url(#_clip1)"><g><path d="M320,280C316,283 303,283 298,276" style="fill:none;stroke:rgb(47,57,68);stroke-width:1px;"/><path d="M320,289.601C316,292.601 303,295 298,288" style="fill:none;stroke:rgb(47,57,68);stroke-width:1px;"/><path d="M322,270.595C316,275 303,271 300,266" style="fill:none;stroke:rgb(47,57,68);stroke-width:1px;"/><path d="M324,262.095C318,265 307,261 303,255" style="fill:none;stroke:rgb(47,57,68);stroke-width:1px;"/><path d="M328,253C318.881,254.443 311,251 308,245" style="fill:none;stroke:rgb(47,57,68);stroke-width:1px;"/><path d="M352,98C361.133,98.282 367.174,94.667 370,87" style="fill:none;stroke:rgb(47,57,68);stroke-width:1px;"/><path d="M346,88.569C354.322,88.467 360.199,84.077 363.48,75.135" style="fill:none;stroke:rgb(47,57,68);stroke-width:1px;"/><path d="M340,79.467C349.352,77.384 353.912,72.368 353,64" style="fill:none;stroke:rgb(47,57,68);stroke-width:1px;"/><path d="M332,72C339.559,69.619 343.526,63.922 344,55" style="fill:none;stroke:rgb(47,57,68);stroke-width:1px;"/><path d="M323,66C329,63 333,54 332,47" style="fill:none;stroke:rgb(47,57,68);stroke-width:1px;"/><path d="M313,60C320,57 321,44 318,40" style="fill:none;stroke:rgb(47,57,68);stroke-width:1px;"/><path d="M303,56.048C307,53 310,39 305,35.928" style="fill:none;stroke:rgb(47,57,68);stroke-width:1px;"/><path d="M292,54C297,50 298,38 292,32.966" style="fill:none;stroke:rgb(47,57,68);stroke-width:1px;"/><path d="M282,54C286.206,45.895 285.369,39.294 279,32" style="fill:none;stroke:rgb(47,57,68);stroke-width:1px;"/><path d="M272,54C274,49 273,36 266.399,32.302" style="fill:none;stroke:rgb(47,57,68);stroke-width:1px;"/><path d="M261.001,56C265.34,48.366 263,38 254,34" style="fill:none;stroke:rgb(47,57,68);stroke-width:1px;"/><path d="M253,59C255.423,50.763 251,43.161 242,38" style="fill:none;stroke:rgb(47,57,68);stroke-width:1px;"/><path d="M244.239,64C246.239,56 240,45 231.958,43" style="fill:none;stroke:rgb(47,57,68);stroke-width:1px;"/><path d="M236,69C238,61 233.226,51.846 222.001,49" style="fill:none;stroke:rgb(47,57,68);stroke-width:1px;"/><path d="M333,244C327,246 315,240 313,233" style="fill:none;stroke:rgb(47,57,68);stroke-width:1px;"/><path d="M340,234C332,237 322,230 320,222.727" style="fill:none;stroke:rgb(47,57,68);stroke-width:1px;"/><path d="M356,107.583C363,109 374,105 376,99" style="fill:none;stroke:rgb(47,57,68);stroke-width:1px;"/><path d="M346,226C335.891,225.317 329,220 327,213" style="fill:none;stroke:rgb(47,57,68);stroke-width:1px;"/><path d="M352,217C343.483,216.052 337.107,211.785 333,204" style="fill:none;stroke:rgb(47,57,68);stroke-width:1px;"/><path d="M358.001,207C349.409,206.292 343.34,202.279 339,196" style="fill:none;stroke:rgb(47,57,68);stroke-width:1px;"/><path d="M365,196C358,199 348,193 345,187.025" style="fill:none;stroke:rgb(47,57,68);stroke-width:1px;"/><path d="M371,186C364,189 352,184 350,177" style="fill:none;stroke:rgb(47,57,68);stroke-width:1px;"/><path d="M374,175C370,179 355,174 354,168" style="fill:none;stroke:rgb(47,57,68);stroke-width:1px;"/><path d="M379,163.443C373,168 361,164 357,159" style="fill:none;stroke:rgb(47,57,68);stroke-width:1px;"/><path d="M381,150C375,156 364,154 359.161,149" style="fill:none;stroke:rgb(47,57,68);stroke-width:1px;"/><path d="M382,138C374.755,143.386 367.422,143.419 360,138" style="fill:none;stroke:rgb(47,57,68);stroke-width:1px;"/><path d="M379,112C376,118 364,121 359.161,117" style="fill:none;stroke:rgb(47,57,68);stroke-width:1px;"/><path d="M382,125C376,131 365,131 360,127" style="fill:none;stroke:rgb(47,57,68);stroke-width:1px;"/></g></g><path d="M214.914,53.195C278,-2 416,53 374,177.924C358.972,222.624 317.07,240.967 319.992,295.854C319.996,295.902 319.999,295.951 320,296C320,298.208 314.623,300 308,300C301.377,300 296,298.208 296,296L296.001,295.939C297,248 321.243,219.18 333,204C410.277,104.225 302,11 228.834,74.899C229.685,64.466 224.501,57.548 214.914,53.195Z" style="fill:none;stroke:rgb(47,57,68);stroke-width:2px;"/><path d="M136,116L144,120L144,184L136,180L136,116Z" style="fill:rgb(128,128,128);fill-opacity:0.3;stroke:rgb(47,57,68);stroke-width:2px;"/><path d="M84,104C94.159,64.09 172.177,72.009 172.005,93.871C171.942,101.871 172,140 172.063,155.954C172.099,165.055 164.676,175.139 144,184L136,180L136,145.372C122.4,142.845 105.515,146.079 96.074,160.039L88,160L84,104Z" style="fill-opacity:0.3;stroke:rgb(47,57,68);stroke-width:2px;"/><path d="M144,120L136,116C203,93 110,56 92,104L84,104C98,49 228,83 144,120Z" style="fill-opacity:0.3;stroke:rgb(47,57,68);stroke-width:2px;"/><path d="M92,104L84,104L88,160L96,160L92,104Z" style="fill:none;stroke:rgb(47,57,68);stroke-width:2px;"/><path d="M201.739,124.174L184,136L184,100L208,84L208,103.429L200,100C196,104 192,108 192,120L201.739,124.174Z" style="fill:rgb(128,128,128);fill-opacity:0.3;stroke:rgb(47,57,68);stroke-width:2px;"/><path d="M172.001,155.999C172.228,155.684 172,92.497 172,92.497L220,64L220,108.571L200,100C196,104 192,108 192,120L212.689,128.867C199.312,137.771 172.239,155.798 172.001,155.999Z" style="fill-opacity:0.3;stroke:rgb(47,57,68);stroke-width:2px;"/><path d="M171.808,91.918C170.346,85.014 160.899,79.731 148.671,77.275L192,52L220,64L172,92L171.808,91.918Z" style="fill-opacity:0.29;stroke:rgb(47,57,68);stroke-width:2px;"/><path d="M171.808,91.918C170.548,85.971 163.366,81.227 153.584,78.457L192,56.048L216,66.333L172,92L171.808,91.918Z" style="fill-opacity:0.3;stroke:rgb(47,57,68);stroke-width:1px;"/><path d="M220,84L228,80C231.451,65.549 225.052,56.837 212,52L203.2,56.8L220,64L220,84Z" style="fill:rgb(128,128,128);fill-opacity:0.3;stroke:rgb(47,57,68);stroke-width:2px;"/></svg>