<?xml version="1.0" encoding="UTF-8" standalone="no"?><!DOCTYPE svg PUBLIC "-//W3C//DTD SVG 1.1//EN" "http://www.w3.org/Graphics/SVG/1.1/DTD/svg11.dtd"><svg width="100%" height="100%" viewBox="0 0 512 512" version="1.1" xmlns="http://www.w3.org/2000/svg" xmlns:xlink="http://www.w3.org/1999/xlink" xml:space="preserve" xmlns:serif="http://www.serif.com/" style="fill-rule:evenodd;clip-rule:evenodd;stroke-linecap:round;stroke-linejoin:round;stroke-miterlimit:1.5;"><rect id="ArtBoard1" x="0" y="0" width="512" height="512" style="fill:none;"/><path d="M178.477,115.963L154.265,85.273C150.599,84.522 147.434,82.752 145.217,79.941L131.089,62.034C124.592,53.798 128.678,39.727 140.208,30.63C151.738,21.534 166.375,20.835 172.872,29.071L183.359,42.363C194.437,34.995 207.523,34.926 213.567,42.586L227.694,60.493C229.912,63.305 230.897,66.797 230.773,70.539L238.674,80.554C238.729,80.62 238.783,80.687 238.837,80.755L247.479,91.709L272,99.88L265.356,112.452L265.403,112.468L272,100L278.023,116.674L312,128L312,91C312,89.094 313.526,87.366 316,86.103C318.542,84.806 322.084,84 326,84C329.916,84 333.458,84.806 336,86.103C338.474,87.366 340,89.094 340,91L340,158.667L356,164L356,186.474C362.464,187.866 381.513,194.796 382.089,195.006C390.189,197.961 394.723,210.686 392.331,224.773C389.762,239.903 380.169,250.912 370.923,249.342C367.954,248.838 361.742,247.763 356,246.771L356,256L340,264L340,318.288C344.885,320.123 348,322.897 348,326C348,326.101 347.997,326.201 347.99,326.302L347.99,348.114L381.909,361.083C385.403,362.419 387.859,365.594 388.275,369.312C388.307,369.597 388.327,369.883 388.334,370.167C388.602,376.166 387.883,401.803 388.275,405.312C388.691,409.029 386.997,412.669 383.884,414.744L288.728,478.181C275.869,486.754 259.454,487.952 245.486,481.335L139.245,431.011C135.031,429.015 132.355,424.758 132.382,420.096C132.409,415.433 132.355,388.758 132.382,384.096C132.409,379.433 135.135,375.208 139.372,373.262L250.249,322.318C259.043,318.277 269.095,317.948 278.135,321.405L304,331.294L304,326C304,322.897 307.115,320.123 312,318.288L312,268L290.276,260.759L287.938,278.056C287.53,281.131 285.126,283.992 281.247,286.426L280.644,291.82C279.656,300.832 264.511,308 246,308C227.489,308 212.344,300.832 211.356,291.82L210.753,286.426C206.874,283.992 204.47,281.131 204.062,278.056L200.869,254.429C195.595,251.429 192.448,247.85 192.246,244C192.239,243.868 192.235,243.736 192.235,243.604C192.235,243.471 192.239,243.339 192.246,243.207L192.246,224.082L180,220L180,172L180.106,171.965L180.138,171.918L180,171.965L183.969,166.236L183.76,166.166L163.76,144L192.701,153.631L192.746,153.566L163.76,143.894L178.477,115.963Z" style="fill:rgb(128,128,128);stroke:rgb(47,57,68);stroke-width:4px;"/><path d="M139.245,431.011C135.031,429.015 132.355,424.758 132.382,420.096C132.409,415.433 135.135,411.208 139.372,409.262C170.592,394.917 224.91,369.96 250.249,358.318C259.043,354.277 269.095,353.948 278.135,357.405C302.994,366.909 354.493,386.6 381.909,397.083C385.403,398.419 387.859,401.594 388.275,405.312C388.691,409.029 386.997,412.669 383.884,414.744C359.965,430.69 315.065,460.623 288.728,478.181C275.869,486.754 259.454,487.952 245.486,481.335C216.975,467.83 168.098,444.678 139.245,431.011Z" style="fill:rgb(128,128,128);stroke:rgb(47,57,68);stroke-width:2px;"/><path d="M132.382,420.096C132.409,415.433 132.355,388.758 132.382,384.096C132.409,379.433 135.135,375.208 139.372,373.262L250.249,322.318C259.043,318.277 269.095,317.948 278.135,321.405L381.909,361.083C385.403,362.419 387.859,365.594 388.275,369.312C388.691,373.029 387.859,401.594 388.275,405.312C388.691,409.029 386.997,412.669 383.884,414.744L288.728,478.181C275.869,486.754 259.454,487.952 245.486,481.335L139.245,431.011C135.031,429.015 132.355,424.758 132.382,420.096Z" style="fill:rgb(255,250,255);stroke:rgb(47,57,68);stroke-width:2px;"/><path d="M139.245,395.011C135.031,393.015 132.355,388.758 132.382,384.096C132.409,379.433 135.135,375.208 139.372,373.262C170.592,358.917 224.91,333.96 250.249,322.318C259.043,318.277 269.095,317.948 278.135,321.405C302.994,330.909 354.493,350.6 381.909,361.083C385.403,362.419 387.859,365.594 388.275,369.312C388.691,373.029 386.997,376.669 383.884,378.744C359.965,394.69 315.065,424.623 288.728,442.181C275.869,450.754 259.454,451.952 245.486,445.335C216.975,431.83 168.098,408.678 139.245,395.011Z" style="fill:rgb(255,250,255);stroke:rgb(47,57,68);stroke-width:2px;"/><ellipse cx="238" cy="392.015" rx="50" ry="23.985" style="fill:rgb(128,128,128);stroke:rgb(47,57,68);stroke-width:2px;"/><ellipse cx="240" cy="394" rx="48" ry="22" style="fill:rgb(128,128,128);stroke:rgb(47,57,68);stroke-width:2px;"/><ellipse cx="238" cy="400" rx="42" ry="16" style="fill:rgb(128,128,128);stroke:rgb(47,57,68);stroke-width:2px;"/><ellipse cx="240" cy="394" rx="48" ry="22" style="fill:rgb(234,244,255);fill-opacity:0.5;stroke:rgb(47,57,68);stroke-width:2px;"/><ellipse cx="238" cy="392.015" rx="50" ry="23.985" style="fill:rgb(234,244,255);fill-opacity:0.5;stroke:rgb(47,57,68);stroke-width:2px;"/><path d="M314.094,383.066L272,404.703C270.536,405.555 269.072,405.425 268,404.821C267.611,404.602 267.273,404.32 267.006,404C266.11,402.927 266.343,399.078 266.343,398.311C266.343,397.474 266.828,396.637 268,396.06L312,372.03L312,368.03C312,365.822 314.689,364.03 318,364.03C321.311,364.03 324,365.822 324,368.03L324,380.03C324,382.238 321.311,384.03 318,384.03C316.509,384.03 315.144,383.667 314.094,383.066Z" style="fill:rgb(128,128,128);stroke:rgb(47,57,68);stroke-width:2px;"/><path d="M324,368.03L324,380.03C324,382.238 321.311,384.03 318,384.03C314.689,384.03 312,382.238 312,380.03L312,368.03C312,370.238 314.689,372.03 318,372.03C321.311,372.03 324,370.238 324,368.03Z" style="fill:rgb(128,128,128);stroke:rgb(47,57,68);stroke-width:1px;"/><ellipse cx="318" cy="368.03" rx="6" ry="4" style="fill:rgb(128,128,128);stroke:rgb(47,57,68);stroke-width:1px;"/><path d="M267.006,404C266.11,402.927 266.343,399.078 266.343,398.311C266.343,397.474 266.828,396.637 268,396.06L312,372.03C312,374.238 314.689,376.03 318,376.03C318.584,376.03 319.148,375.975 319.681,375.871L320,376.03L320,380.03L272,404.703C270.536,405.555 269.072,405.425 268,404.821C267.611,404.602 267.273,404.32 267.006,404Z" style="fill:rgb(128,128,128);stroke:rgb(47,57,68);stroke-width:1px;"/><path d="M319.681,375.871L320,376.03L272,400.703C268,403.03 264,398.03 268,396.06L312,372.03C312,374.238 314.689,376.03 318,376.03C318.584,376.03 319.148,375.975 319.681,375.871Z" style="fill:rgb(128,128,128);stroke:rgb(47,57,68);stroke-width:1px;"/><path d="M242.094,355.036L200,376.673C198.536,377.524 197.072,377.395 196,376.791C195.611,376.572 195.273,376.29 195.006,375.97C194.11,374.896 194.343,371.048 194.343,370.281C194.343,369.444 194.828,368.607 196,368.03L240,344L240,340C240,337.792 242.689,336 246,336C249.311,336 252,337.792 252,340L252,352C252,354.208 249.311,356 246,356C244.509,356 243.144,355.637 242.094,355.036Z" style="fill:rgb(128,128,128);stroke:rgb(47,57,68);stroke-width:2px;"/><path d="M252,340L252,352C252,354.208 249.311,356 246,356C242.689,356 240,354.208 240,352L240,340C240,342.208 242.689,344 246,344C249.311,344 252,342.208 252,340Z" style="fill:rgb(128,128,128);stroke:rgb(47,57,68);stroke-width:1px;"/><ellipse cx="246" cy="340" rx="6" ry="4" style="fill:rgb(128,128,128);stroke:rgb(47,57,68);stroke-width:1px;"/><path d="M195.006,375.97C194.11,374.896 194.343,371.048 194.343,370.281C194.343,369.444 194.828,368.607 196,368.03L240,344C240,346.208 242.689,348 246,348C246.584,348 247.148,347.944 247.681,347.841L248,348L248,352L200,376.673C198.536,377.524 197.072,377.395 196,376.791C195.611,376.572 195.273,376.29 195.006,375.97Z" style="fill:rgb(128,128,128);stroke:rgb(47,57,68);stroke-width:1px;"/><path d="M247.681,347.841L248,348L200,372.673C196,375 192,370 196,368.03L240,344C240,346.208 242.689,348 246,348C246.584,348 247.148,347.944 247.681,347.841Z" style="fill:rgb(128,128,128);stroke:rgb(47,57,68);stroke-width:1px;"/><path d="M347.99,326.302L347.99,352C347.997,352.1 348,352.201 348,352.302C348,357.821 338.142,362.302 326,362.302C313.858,362.302 304,357.821 304,352.302C304,352.201 304.003,352.1 304.01,352L304,352L304,326C304,331.519 313.858,336 326,336C337.92,336 347.639,331.682 347.99,326.302Z" style="fill-opacity:0.99;stroke:rgb(47,57,68);stroke-width:2px;"/><ellipse cx="326" cy="326" rx="22" ry="10" style="fill-opacity:0.99;stroke:rgb(47,57,68);stroke-width:1px;"/><path d="M312,324L312,264L340,264L340,324C340,327.863 333.727,331 326,331C318.273,331 312,327.863 312,324Z" style="fill:rgb(128,128,128);stroke:rgb(47,57,68);stroke-width:2px;"/><path d="M316,264L336,264L336,328.897C333.458,330.194 329.916,331 326,331C322.084,331 318.542,330.194 316,328.897L316,264Z" style="fill:rgb(128,128,128);stroke:rgb(47,57,68);stroke-width:1px;"/><path d="M308,240L308,148L276,164L276,256L308,240Z" style="fill:rgb(128,128,128);stroke:rgb(47,57,68);stroke-width:2px;"/><path d="M308,239.771L308,148L356,164L356,256L308,239.771Z" style="fill:rgb(255,250,255);stroke:rgb(47,57,68);stroke-width:2px;"/><path d="M276,256L276,164L324,180L324,272L276,256Z" style="fill:rgb(255,250,255);stroke:rgb(47,57,68);stroke-width:2px;"/><path d="M356,256L356,164L324,180L324,272L356,256Z" style="fill:rgb(255,250,255);stroke:rgb(47,57,68);stroke-width:2px;"/><path d="M340,161C340,164.863 333.727,168 326,168C318.273,168 312,164.863 312,161L312,91C312,87.137 318.273,84 326,84C333.727,84 340,87.137 340,91L340,161Z" style="fill:rgb(128,128,128);stroke:rgb(47,57,68);stroke-width:2px;"/><path d="M336,165.897C333.458,167.194 329.916,168 326,168C322.084,168 318.542,167.194 316,165.897L316,86.103C318.542,84.806 322.084,84 326,84C329.916,84 333.458,84.806 336,86.103L336,165.897Z" style="fill:rgb(128,128,128);stroke:rgb(47,57,68);stroke-width:1px;"/><ellipse cx="326" cy="91" rx="14" ry="7" style="fill:rgb(128,128,128);fill-opacity:0.96;stroke:rgb(47,57,68);stroke-width:2px;"/><path d="M211.356,291.82L208,261.764L284,261.764L280.644,291.82C279.656,300.832 264.511,308 246,308C227.489,308 212.344,300.832 211.356,291.82Z" style="fill-opacity:0.96;stroke:rgb(47,57,68);stroke-width:2px;"/><path d="M204.062,278.056L200,248L292,248L287.938,278.056C286.741,287.069 268.408,294.236 246,294.236C223.592,294.236 205.259,287.069 204.062,278.056Z" style="fill-opacity:0.96;stroke:rgb(47,57,68);stroke-width:2px;"/><path d="M192.246,244C192.239,243.868 192.235,243.736 192.235,243.604C192.235,243.471 192.239,243.339 192.246,243.207L192.246,220L296,220L296,244L295.99,244C295.43,254.636 272.402,263.206 244.118,263.206C215.834,263.206 192.805,254.636 192.246,244Z" style="fill:rgb(255,250,255);stroke:rgb(47,57,68);stroke-width:2px;"/><path d="M252,196L252,148L324,172L324,220L252,196Z" style="fill:rgb(128,128,128);stroke:rgb(47,57,68);stroke-width:2px;"/><path d="M252,148L252,108L324,132L324,172L252,148Z" style="fill:rgb(128,128,128);stroke:rgb(47,57,68);stroke-width:2px;"/><path d="M252,196L252,148L180,172L180,220L252,196Z" style="fill:rgb(128,128,128);stroke:rgb(47,57,68);stroke-width:2px;"/><path d="M324,220L324,172L252,196L252,244L324,220Z" style="fill:rgb(255,250,255);stroke:rgb(47,57,68);stroke-width:2px;"/><path d="M180,220L180,172L252,196L252,244L180,220Z" style="fill:rgb(255,250,255);stroke:rgb(47,57,68);stroke-width:2px;"/><path d="M252,147.965L252,108L216,120L180,171.965L252,147.965Z" style="fill:rgb(128,128,128);stroke:rgb(47,57,68);stroke-width:2px;"/><path d="M324,172L324,132.035L288,144.035L252,196L324,172Z" style="fill:rgb(255,250,255);stroke:rgb(47,57,68);stroke-width:2px;"/><path d="M216,120L288,144.035L252,196L180.106,171.965L216,120Z" style="fill:rgb(255,250,255);stroke:rgb(47,57,68);stroke-width:2px;"/><path d="M252,108.215L324,132.035L288,144.035L216,120L252,108.215Z" style="fill:rgb(255,250,255);stroke:rgb(47,57,68);stroke-width:2px;"/><g><path d="M244.655,129.612L228.761,85.612L192.761,153.65L212.761,175.817L244.655,129.612Z" style="fill:rgb(255,250,255);stroke:rgb(47,57,68);stroke-width:2px;"/><path d="M287.894,144L272,100L236,168.039L256,190.205L287.894,144Z" style="fill:rgb(255,250,255);stroke:rgb(47,57,68);stroke-width:2px;"/><path d="M199.654,75.774L272,99.88L236,168L163.76,143.894L199.654,75.774Z" style="fill:rgb(255,250,255);stroke:rgb(47,57,68);stroke-width:2px;"/><path d="M163.76,144L236,168.039L256,190.205L183.76,166.166L163.76,144Z" style="fill:rgb(255,250,255);stroke:rgb(47,57,68);stroke-width:2px;"/></g><path d="M355.264,186.331C364.51,187.901 369.788,202.304 367.042,218.476C364.295,234.647 354.559,246.501 345.313,244.931C336.067,243.36 330.789,228.957 333.536,212.786C336.282,196.615 346.018,184.761 355.264,186.331Z" style="fill:rgb(128,128,128);stroke:rgb(47,57,68);stroke-width:2px;"/><path d="M370.923,249.342C365.684,248.453 350.349,245.786 345.313,244.931C336.067,243.36 330.789,228.957 333.536,212.786C336.282,196.615 346.018,184.761 355.264,186.331C360.856,187.28 381.489,194.788 382.089,195.006C390.189,197.961 394.723,210.686 392.331,224.773C389.762,239.903 380.169,250.912 370.923,249.342Z" style="stroke:rgb(47,57,68);stroke-width:2px;"/><path d="M380.233,194.514C389.479,196.084 394.9,209.643 392.331,224.773C389.762,239.903 380.169,250.912 370.923,249.342C361.676,247.772 356.256,234.214 358.825,219.083C361.394,203.953 370.987,192.944 380.233,194.514Z" style="stroke:rgb(47,57,68);stroke-width:2px;"/><path d="M378.591,204.182C384.577,205.199 388.086,213.976 386.423,223.77C384.759,233.564 378.55,240.691 372.564,239.674C366.579,238.658 363.07,229.881 364.733,220.087C366.396,210.292 372.606,203.166 378.591,204.182Z" style="stroke:rgb(47,57,68);stroke-width:2px;"/><path d="M302.275,186.295C308.349,187.326 311.984,195.798 310.387,205.202C308.79,214.606 302.562,221.404 296.488,220.372C290.414,219.341 286.779,210.868 288.376,201.464C289.973,192.06 296.201,185.263 302.275,186.295Z" style="fill:rgb(128,128,128);stroke:rgb(47,57,68);stroke-width:2px;"/><path d="M313.313,223.266C309.871,222.681 299.796,220.934 296.488,220.372C290.414,219.341 286.779,210.868 288.376,201.464C289.973,192.06 296.201,185.263 302.275,186.295C305.949,186.918 319.553,191.557 319.949,191.692C325.289,193.517 328.417,201 327.026,209.193C325.532,217.991 319.387,224.297 313.313,223.266Z" style="stroke:rgb(47,57,68);stroke-width:2px;"/><path d="M318.727,191.382C324.801,192.413 328.52,200.394 327.026,209.193C325.532,217.991 319.387,224.297 313.313,223.266C307.239,222.234 303.52,214.254 305.014,205.455C306.509,196.656 312.653,190.35 318.727,191.382Z" style="stroke:rgb(47,57,68);stroke-width:2px;"/><path d="M317.773,197.004C321.705,197.672 324.112,202.838 323.144,208.534C322.177,214.229 318.2,218.311 314.268,217.644C310.336,216.976 307.929,211.81 308.896,206.114C309.863,200.418 313.841,196.336 317.773,197.004Z" style="stroke:rgb(47,57,68);stroke-width:2px;"/><g><path d="M198.142,67.239L216.979,91.115C222.177,97.704 218.373,109.383 208.49,117.18C198.607,124.977 186.363,125.958 181.165,119.37L162.328,95.494C167.526,102.082 179.77,101.101 189.654,93.304C199.537,85.507 203.34,73.828 198.142,67.239Z" style="stroke:rgb(47,57,68);stroke-width:2px;"/><path d="M190.079,57.023L197.98,67.039C198.035,67.105 198.089,67.172 198.142,67.239C203.34,73.828 199.537,85.507 189.654,93.304C179.77,101.101 167.526,102.082 162.328,95.494L154.265,85.273C161.342,86.722 170.285,84.374 177.881,78.382C185.475,72.391 189.84,64.242 190.079,57.023Z" style="stroke:rgb(47,57,68);stroke-width:2px;"/><path d="M145.217,79.941C142.567,76.583 133.739,65.393 131.089,62.034C124.592,53.798 128.678,39.727 140.208,30.63C151.738,21.534 166.375,20.835 172.872,29.071C175.522,32.429 184.35,43.62 187,46.978C193.497,55.214 189.411,69.285 177.881,78.382C166.351,87.479 151.714,88.177 145.217,79.941Z" style="stroke:rgb(47,57,68);stroke-width:2px;"/><path d="M140.208,30.63C151.738,21.534 166.375,20.835 172.872,29.071C179.37,37.307 175.284,51.378 163.754,60.475C152.223,69.572 137.587,70.27 131.089,62.034C124.592,53.798 128.678,39.727 140.208,30.63Z" style="stroke:rgb(47,57,68);stroke-width:2px;"/><path d="M144.917,36.599C153.153,30.102 163.005,28.838 166.903,33.78C170.802,38.721 167.28,48.008 159.044,54.506C150.809,61.004 140.957,62.267 137.058,57.325C133.16,52.384 136.681,43.097 144.917,36.599Z" style="stroke:rgb(47,57,68);stroke-width:2px;"/><path d="M147.122,39.702C155.276,33.269 164.533,31.39 167.782,35.508C171.03,39.626 167.048,48.192 158.895,54.624C150.742,61.056 141.484,62.935 138.236,58.818C134.987,54.7 138.969,46.134 147.122,39.702Z" style="stroke:rgb(47,57,68);stroke-width:2px;"/><path d="M144.917,36.599C153.153,30.102 163.005,28.838 166.903,33.78C170.802,38.721 167.28,48.008 159.044,54.506C150.809,61.004 140.957,62.267 137.058,57.325C133.16,52.384 136.681,43.097 144.917,36.599Z" style="fill:rgb(234,244,255);fill-opacity:0.5;stroke:rgb(47,57,68);stroke-width:2px;"/><path d="M147.122,39.702C155.276,33.269 164.533,31.39 167.782,35.508C171.03,39.626 167.048,48.192 158.895,54.624C150.742,61.056 141.484,62.935 138.236,58.818C134.987,54.7 138.969,46.134 147.122,39.702Z" style="fill:rgb(234,244,255);fill-opacity:0.5;stroke:rgb(47,57,68);stroke-width:2px;"/></g><g><path d="M238.837,80.755L257.673,104.631C262.871,111.22 259.067,122.899 249.184,130.696C239.301,138.493 227.057,139.474 221.859,132.885L203.023,109.009C208.221,115.598 220.465,114.617 230.348,106.82C240.231,99.023 244.035,87.344 238.837,80.755Z" style="stroke:rgb(47,57,68);stroke-width:2px;"/><path d="M230.773,70.539L238.674,80.554C238.729,80.62 238.783,80.687 238.837,80.755C244.035,87.344 240.231,99.023 230.348,106.82C220.465,114.617 208.221,115.598 203.023,109.009L194.959,98.788C202.036,100.238 210.98,97.89 218.575,91.898C226.169,85.907 230.534,77.758 230.773,70.539Z" style="stroke:rgb(47,57,68);stroke-width:2px;"/><path d="M185.911,93.457C183.262,90.099 174.433,78.908 171.784,75.55C165.286,67.314 169.372,53.242 180.902,44.146C192.433,35.049 207.069,34.351 213.567,42.586C216.216,45.945 225.045,57.135 227.694,60.493C234.191,68.729 230.105,82.801 218.575,91.898C207.045,100.994 192.409,101.693 185.911,93.457Z" style="stroke:rgb(47,57,68);stroke-width:2px;"/><path d="M180.902,44.146C192.433,35.049 207.069,34.351 213.567,42.586C220.064,50.822 215.978,64.894 204.448,73.991C192.918,83.087 178.281,83.786 171.784,75.55C165.286,67.314 169.372,53.242 180.902,44.146Z" style="stroke:rgb(47,57,68);stroke-width:2px;"/><path d="M185.612,50.115C193.847,43.617 203.699,42.354 207.598,47.296C211.496,52.237 207.975,61.524 199.739,68.022C191.503,74.519 181.651,75.783 177.753,70.841C173.854,65.899 177.376,56.612 185.612,50.115Z" style="stroke:rgb(47,57,68);stroke-width:2px;"/><path d="M187.817,53.217C195.97,46.785 205.227,44.906 208.476,49.024C211.725,53.142 207.743,61.707 199.589,68.14C191.436,74.572 182.179,76.451 178.93,72.333C175.681,68.215 179.663,59.65 187.817,53.217Z" style="stroke:rgb(47,57,68);stroke-width:2px;"/><path d="M185.612,50.115C193.847,43.617 203.699,42.354 207.598,47.296C211.496,52.237 207.975,61.524 199.739,68.022C191.503,74.519 181.651,75.783 177.753,70.841C173.854,65.899 177.376,56.612 185.612,50.115Z" style="fill:rgb(234,244,255);fill-opacity:0.5;stroke:rgb(47,57,68);stroke-width:2px;"/><path d="M187.817,53.217C195.97,46.785 205.227,44.906 208.476,49.024C211.725,53.142 207.743,61.707 199.589,68.14C191.436,74.572 182.179,76.451 178.93,72.333C175.681,68.215 179.663,59.65 187.817,53.217Z" style="fill:rgb(234,244,255);fill-opacity:0.5;stroke:rgb(47,57,68);stroke-width:2px;"/></g></svg>