<?xml version="1.0" encoding="UTF-8" standalone="no"?>
<!DOCTYPE svg PUBLIC "-//W3C//DTD SVG 1.1//EN" "http://www.w3.org/Graphics/SVG/1.1/DTD/svg11.dtd">
<svg width="512px" height="512px" version="1.1" xmlns="http://www.w3.org/2000/svg" xmlns:xlink="http://www.w3.org/1999/xlink" xml:space="preserve" xmlns:serif="http://www.serif.com/" style="fill-rule:evenodd;clip-rule:evenodd;stroke-linecap:round;stroke-linejoin:round;stroke-miterlimit:1.5;">
    <rect id="ArtBoard1" x="0" y="0" width="512" height="512" style="fill:none;"/>
    <path d="M250.982,346.965L195.193,480L32,480L32,316.807L165.035,261.018C164.393,251.609 166.684,243.493 172.262,237.915L206.203,203.974C212.932,197.245 223.355,195.3 235.287,197.517C237.457,197.92 239.676,198.46 241.932,199.134L241.477,195.789C241.304,194.509 241.444,193.225 241.865,192.039C242.258,190.931 242.895,189.909 243.748,189.056L333.482,99.322C338.308,94.496 344.28,91.327 350.859,89.749L351.469,83.866C351.576,82.835 351.881,81.843 352.36,80.94C352.73,80.244 353.204,79.6 353.769,79.035L390.051,42.753C395.91,36.894 403.46,33.476 411.732,32.385C415.417,31.899 419.244,31.875 423.13,32.302C430.259,33.084 437.582,35.386 444.573,39.143C450.288,42.214 455.78,46.257 460.761,51.239C467.972,58.449 473.217,66.729 476.392,75.206C479.557,83.654 480.666,92.296 479.615,100.268C478.524,108.54 475.106,116.09 469.247,121.949L432.965,158.231C432.4,158.796 431.756,159.27 431.06,159.64C430.157,160.119 429.165,160.424 428.134,160.531L422.251,161.141C420.673,167.72 417.504,173.692 412.678,178.518L322.944,268.252C322.091,269.105 321.069,269.742 319.961,270.135C318.775,270.556 317.491,270.696 316.211,270.523L312.866,270.068C314.675,276.121 315.521,281.909 315.331,287.178C315.062,294.677 312.697,301.127 308.026,305.797L274.085,339.738C268.507,345.316 260.391,347.607 250.982,346.965Z" style="fill:none;stroke:rgb(47,57,68);stroke-width:4px;"/>
    <path d="M351.469,83.866C351.659,82.039 352.471,80.333 353.769,79.035C361.652,71.152 390.051,42.753 390.051,42.753C407.222,25.582 438.907,29.384 460.761,51.239C482.616,73.093 486.418,104.778 469.247,121.949C469.247,121.949 440.848,150.348 432.965,158.231C431.667,159.529 429.961,160.341 428.134,160.531C425.591,160.795 422.251,161.141 422.251,161.141C426.286,144.313 419.905,123.52 404.193,107.807C388.48,92.095 367.687,85.714 350.859,89.749C350.859,89.749 351.205,86.409 351.469,83.866Z" style="fill:rgb(128,128,128);fill-opacity:0.6;stroke:rgb(47,57,68);stroke-width:2px;"/>
    <path d="M428.134,160.531L422.251,161.141C426.286,144.313 419.905,123.52 404.193,107.807C388.48,92.095 367.687,85.714 350.859,89.749L351.469,83.866C351.576,82.835 351.881,81.843 352.36,80.94C370.985,77.896 393.008,85.294 409.857,102.143C426.706,118.992 434.104,141.015 431.06,159.64C430.157,160.119 429.165,160.424 428.134,160.531Z" style="fill:rgb(128,128,128);fill-opacity:0.6;stroke:rgb(47,57,68);stroke-width:1px;"/>
    <path d="M362.167,76.294L392.879,45.582C408.697,29.764 437.801,33.935 457.933,54.067C478.065,74.199 482.236,103.303 466.418,119.121L435.706,149.833C435.286,132.675 427.468,114.098 412.685,99.315C397.902,84.532 379.324,76.714 362.167,76.294Z" style="fill:rgb(128,128,128);fill-opacity:0.6;stroke:rgb(47,57,68);stroke-width:2px;"/>
    <path d="M241.477,195.789C241.141,193.313 241.981,190.823 243.748,189.056C259.221,173.583 333.482,99.322 333.482,99.322C350.654,82.15 382.338,85.953 404.193,107.807C426.047,129.662 429.85,161.346 412.678,178.518C412.678,178.518 338.417,252.779 322.944,268.252C321.177,270.019 318.687,270.859 316.211,270.523C314.495,270.29 312.866,270.068 312.866,270.068C308.645,255.947 299.183,240.385 285.399,226.601C271.615,212.817 256.053,203.355 241.932,199.134C241.932,199.134 241.71,197.505 241.477,195.789Z" style="fill:rgb(128,128,128);fill-opacity:0.6;stroke:rgb(47,57,68);stroke-width:2px;"/>
    <path d="M248.794,189.667L336.31,102.15C352.129,86.332 381.232,90.504 401.364,110.636C421.496,130.768 425.668,159.871 409.85,175.69L322.333,263.206C317.928,248.55 308.166,232.398 293.884,218.116C279.602,203.834 263.45,194.072 248.794,189.667Z" style="fill:rgb(128,128,128);fill-opacity:0.6;stroke:rgb(47,57,68);stroke-width:2px;"/>
    <path d="M316.211,270.523L312.866,270.068C308.645,255.947 299.183,240.385 285.399,226.601C271.615,212.817 256.053,203.355 241.932,199.134L241.477,195.789C241.304,194.509 241.444,193.225 241.865,192.039C257.405,195.183 275.38,205.269 291.056,220.944C306.731,236.62 316.817,254.595 319.961,270.135C318.775,270.556 317.491,270.696 316.211,270.523Z" style="fill:rgb(128,128,128);fill-opacity:0.6;stroke:rgb(47,57,68);stroke-width:1px;"/>
    <path d="M172.262,237.915L206.203,203.974C221.813,188.363 257.3,198.502 285.399,226.601C313.498,254.7 323.637,290.187 308.026,305.797L274.085,339.738C289.696,324.128 279.557,288.641 251.458,260.542C223.359,232.443 187.872,222.304 172.262,237.915Z" style="fill:rgb(128,128,128);fill-opacity:0.6;stroke:rgb(47,57,68);stroke-width:2px;"/>
    <path d="M184.403,231.431L209.031,206.802C214.467,201.367 222.732,199.762 232.185,201.065C247.787,203.216 266.422,213.281 282.57,229.43C298.719,245.578 308.784,264.213 310.935,279.815C312.238,289.268 310.633,297.533 305.198,302.969L280.569,327.597C284.674,309.62 273.685,282.77 251.458,260.542C229.23,238.315 202.381,227.326 184.403,231.431Z" style="fill:rgb(128,128,128);fill-opacity:0.6;stroke:rgb(47,57,68);stroke-width:2px;"/>
    <path d="M251.458,260.542C279.557,288.641 289.696,324.128 274.085,339.738C258.475,355.349 222.988,345.21 194.889,317.111C166.79,289.012 156.651,253.525 172.262,237.915C187.872,222.304 223.359,232.443 251.458,260.542Z" style="fill:rgb(127,127,127);fill-opacity:0.6;stroke:rgb(47,57,68);stroke-width:2px;"/>
    <path d="M247.215,264.785C272.972,290.542 283.111,322.227 269.842,335.496C256.573,348.765 224.889,338.626 199.132,312.868C173.374,287.111 163.235,255.427 176.504,242.158C189.773,228.889 221.458,239.028 247.215,264.785Z" style="fill:rgb(128,128,128);fill-opacity:0.6;stroke:rgb(47,57,68);stroke-width:1px;"/>
    <path d="M240.144,271.856C261.999,293.711 272.138,319.058 262.771,328.425C253.405,337.791 228.058,327.652 206.203,305.797C184.348,283.942 174.209,258.595 183.575,249.229C192.942,239.862 218.289,250.001 240.144,271.856Z" style="fill:rgb(128,128,128);fill-opacity:0.6;stroke:rgb(47,57,68);stroke-width:1px;"/>
    <path d="M237.315,274.685C257.609,294.978 267.748,317.791 259.943,325.596C252.138,333.401 229.325,323.262 209.031,302.969C188.738,282.675 178.599,259.862 186.404,252.057C194.209,244.252 217.022,254.391 237.315,274.685Z" style="fill:rgb(100,83,148);fill-opacity:0.6;stroke:rgb(47,57,68);stroke-width:2px;"/>
    <path d="M32,480L32,316.807L186.404,252.057C178.599,259.862 188.738,282.675 209.031,302.969C229.325,323.262 252.138,333.401 259.943,325.596L195.193,480L32,480" style="fill:rgb(100,83,148);fill-opacity:0.6;"/>
    <path d="M310.658,173.057L275.806,207.91C269.904,203.641 263.899,200.127 258.003,197.429L366.561,88.87C373.69,89.653 381.014,91.954 388.004,95.711L330.85,152.866C325.665,152.816 320.464,154.767 316.511,158.719C312.559,162.671 310.608,167.872 310.658,173.057ZM373.699,81.733L423.13,32.302C430.259,33.084 437.582,35.386 444.573,39.143L393.926,89.79C387.381,85.952 380.524,83.253 373.699,81.733Z" style="fill:white;fill-opacity:0.6;stroke:rgb(47,57,68);stroke-width:1px;"/>
    <path d="M363.765,80.353L411.732,32.385C415.417,31.899 419.244,31.875 423.13,32.302L373.699,81.733C370.367,80.99 367.042,80.529 363.765,80.353ZM355.164,88.954C358.848,88.468 362.676,88.443 366.561,88.87L258.003,197.429C255.273,196.18 252.567,195.106 249.905,194.213L355.164,88.954Z" style="fill:white;fill-opacity:0.6;stroke:rgb(47,57,68);stroke-width:1px;"/>
    <path d="M426.046,125.552L476.392,75.206C479.557,83.654 480.666,92.296 479.615,100.268L431.647,148.235C431.246,140.763 429.36,133.044 426.046,125.552ZM419.824,131.774C422.989,140.222 424.098,148.865 423.046,156.836L317.787,262.095C315.698,255.87 312.621,249.404 308.633,242.965L419.824,131.774Z" style="fill-opacity:0.3;stroke:rgb(47,57,68);stroke-width:1px;"/>
    <path d="M201.346,231.458L235.287,197.517C244.119,199.157 253.778,203.077 263.378,209.024L229.437,242.965C219.837,237.019 210.178,233.098 201.346,231.458Z" style="fill:white;fill-opacity:0.6;stroke:rgb(47,57,68);stroke-width:1px;"/>
    <path d="M210.307,233.811L244.248,199.87C245.616,200.329 246.996,200.836 248.385,201.389L214.444,235.331C213.055,234.777 211.675,234.27 210.307,233.811Z" style="fill:white;fill-opacity:0.3;stroke:rgb(47,57,68);stroke-width:1px;"/>
    <path d="M276.669,297.556L310.611,263.615C313.954,271.998 315.587,280.061 315.331,287.178L281.39,321.119C281.646,314.002 280.013,305.939 276.669,297.556Z" style="fill-opacity:0.3;stroke:rgb(47,57,68);stroke-width:1px;"/>
    <path d="M344.796,158.719C352.601,166.524 352.601,179.198 344.796,187.003C336.99,194.809 324.317,194.809 316.511,187.003C308.706,179.198 308.706,166.524 316.511,158.719C324.317,150.914 336.99,150.914 344.796,158.719Z" style="fill:rgb(128,128,128);fill-opacity:0.6;stroke:rgb(47,57,68);stroke-width:2px;"/>
    <path d="M343.381,157.305C350.406,164.33 350.406,175.736 343.381,182.761C336.357,189.785 324.95,189.785 317.926,182.761C310.901,175.736 310.901,164.33 317.926,157.305C324.95,150.28 336.357,150.28 343.381,157.305Z" style="fill:rgb(100,83,148);fill-opacity:0.3;stroke:rgb(47,57,68);stroke-width:1px;"/>
    <path d="M340.553,160.133C346.017,165.597 346.017,174.469 340.553,179.932C335.089,185.396 326.218,185.396 320.754,179.932C315.29,174.469 315.29,165.597 320.754,160.133C326.218,154.67 335.089,154.67 340.553,160.133Z" style="fill:rgb(100,83,148);fill-opacity:0.6;stroke:rgb(47,57,68);stroke-width:1px;"/>
</svg>
