<?xml version="1.0" encoding="UTF-8" standalone="no"?><!DOCTYPE svg PUBLIC "-//W3C//DTD SVG 1.1//EN" "http://www.w3.org/Graphics/SVG/1.1/DTD/svg11.dtd"><svg width="100%" height="100%" viewBox="0 0 512 512" version="1.1" xmlns="http://www.w3.org/2000/svg" xmlns:xlink="http://www.w3.org/1999/xlink" xml:space="preserve" xmlns:serif="http://www.serif.com/" style="fill-rule:evenodd;clip-rule:evenodd;stroke-linecap:round;stroke-linejoin:round;stroke-miterlimit:1.5;"><rect id="ArtBoard1" x="0" y="0" width="512" height="512" style="fill:none;"/><ellipse cx="256" cy="278" rx="48" ry="22" style="fill:rgb(234,244,255);fill-opacity:0.6;stroke:rgb(47,57,68);stroke-width:2px;"/><ellipse cx="256" cy="256" rx="220" ry="104" style="fill:rgb(234,244,255);fill-opacity:0.6;stroke:rgb(47,57,68);stroke-width:2px;"/><path d="M32,252C32,192.393 132.371,144 256,144C379.629,144 480,192.393 480,252L480,268C471.498,323.877 374.048,368 256,368C137.952,368 40.502,323.877 32,268L32,252Z" style="fill:rgb(234,244,255);fill-opacity:0.6;stroke:rgb(47,57,68);stroke-width:4px;"/><path d="M480,252L480,268C471.498,323.877 374.048,368 256,368C137.952,368 40.502,323.877 32,268L32,252C32,311.607 132.371,360 256,360C379.629,360 480,311.607 480,252Z" style="fill:rgb(234,244,255);fill-opacity:0.6;stroke:rgb(47,57,68);stroke-width:2px;"/><path d="M254.03,144.004C254.686,144.001 255.343,144 256,144C379.546,144 479.849,192.393 479.849,252C479.849,311.607 379.546,360 256,360C132.454,360 32.151,311.607 32.151,252C32.151,251.665 32.154,251.33 32.161,250.995C33.27,309.041 131.385,356 252.076,356C373.455,356 472,308.503 472,250C472,191.811 374.511,144.511 254.03,144.004Z" style="fill:white;fill-opacity:0.6;stroke:rgb(47,57,68);stroke-width:1px;"/><path d="M204.015,277.372C204.005,277.149 204,276.926 204,276.703C204,260.861 229.093,248 260,248C290.907,248 316,260.861 316,276.703C316,292.545 290.907,305.406 260,305.406C244.002,305.406 229.561,301.96 219.353,296.438C228.756,301.111 241.708,304 256,304C284.7,304 308,292.35 308,278C308,263.65 284.7,252 256,252C227.721,252 204.683,263.312 204.015,277.372Z" style="fill:white;fill-opacity:0.6;stroke:rgb(47,57,68);stroke-width:1px;"/><path d="M64.012,259.016C64.004,258.684 64,258.352 64,258.019C64,208.358 151.825,168.039 260,168.039C368.175,168.039 456,208.358 456,258.019C456,307.681 368.175,348 260,348C259.329,348 258.66,347.998 257.991,347.995C363.043,347.505 448,308.264 448,260C448,211.431 361.968,172 256,172C150.749,172 65.165,210.9 64.012,259.016Z" style="fill:white;fill-opacity:0.6;stroke:rgb(47,57,68);stroke-width:1px;"/></svg>