<?xml version="1.0" encoding="UTF-8" standalone="no"?><!DOCTYPE svg PUBLIC "-//W3C//DTD SVG 1.1//EN" "http://www.w3.org/Graphics/SVG/1.1/DTD/svg11.dtd"><svg width="100%" height="100%" viewBox="0 0 30 30" version="1.1" xmlns="http://www.w3.org/2000/svg" xmlns:xlink="http://www.w3.org/1999/xlink" xml:space="preserve" xmlns:serif="http://www.serif.com/" style="fill-rule:evenodd;clip-rule:evenodd;stroke-linecap:round;stroke-linejoin:round;stroke-miterlimit:1.5;"><rect id="visible" x="0" y="0" width="30" height="30" style="fill:none;"/><path d="M29,15C24,20 23,24 15,24C7,24 6,19.825 1,15C6,10 7,6 15,6C23,6 24,10 29,15ZM15,9C11.689,9 9,11.689 9,15C9,18.311 11.689,21 15,21C18.311,21 21,18.311 21,15C21,11.689 18.311,9 15,9ZM15,13C16.104,13 17,13.896 17,15C17,16.104 16.104,17 15,17C13.896,17 13,16.104 13,15C13,13.896 13.896,13 15,13Z" style="fill:rgb(235,235,235);stroke:rgb(235,235,235);stroke-width:1px;"/></svg>